<?xml version="1.0" encoding="UTF-8"?>
<svg width="947px" height="242px" viewBox="0 0 947 242" version="1.1" xmlns="http://www.w3.org/2000/svg" xmlns:xlink="http://www.w3.org/1999/xlink">
    <!-- Generator: Sketch 48.2 (47327) - http://www.bohemiancoding.com/sketch -->
    <title>logo-ws</title>
    <desc>Created with Sketch.</desc>
    <defs>
        <polygon id="path-1" points="0 0.663 241.335 0.663 241.335 242 0 242"></polygon>
    </defs>
    <g id="Page-1" stroke="none" stroke-width="1" fill="none" fill-rule="evenodd">
        <g id="logo-ws">
            <g id="Group-3">
                <mask id="mask-2" fill="white">
                    <use xlink:href="#path-1"></use>
                </mask>
                <g id="Clip-2"></g>
                <path d="M33.221,48.382 C-11.074,92.661 -11.074,164.489 33.221,208.776 C77.514,253.069 149.336,253.076 193.629,208.791 C237.923,164.489 241.335,0.663 241.335,0.663 C241.335,0.663 77.514,4.082 33.221,48.382 M111.663,186.152 C81.752,186.152 57.511,161.908 57.511,131.998 C57.511,102.089 81.752,77.849 111.663,77.849 C141.565,77.849 165.812,102.089 165.812,131.998 C165.812,161.908 141.565,186.152 111.663,186.152" id="Fill-1" fill="#F6EB43" mask="url(#mask-2)"></path>
            </g>
            <path d="M295.833,42.231 L320.694,42.231 C337.103,42.231 347.843,50.784 347.843,66.397 L347.843,66.794 C347.843,83.5 335.71,91.457 320.495,91.655 L313.633,91.655 L313.633,111.842 L295.833,111.842 L295.833,42.231 Z M319.899,77.037 C326.163,77.037 329.943,73.357 329.943,67.491 L329.943,67.193 C329.943,60.828 326.265,57.547 319.8,57.547 L313.633,57.547 L313.633,77.037 L319.899,77.037 Z" id="Fill-4" fill="#1A1919"></path>
            <path d="M431.08,41.964 L449.18,41.964 L473.743,111.974 L454.947,111.974 L450.869,99.442 L428.992,99.442 L425.014,111.974 L406.618,111.974 L431.08,41.964 Z M446.396,85.124 L439.931,64.737 L433.467,85.124 L446.396,85.124 Z" id="Fill-5" fill="#1A1919"></path>
            <path d="M674.779,41.996 L692.878,41.996 L717.441,112.006 L698.645,112.006 L694.568,99.474 L672.69,99.474 L668.713,112.006 L650.315,112.006 L674.779,41.996 Z M690.094,85.156 L683.629,64.769 L677.166,85.156 L690.094,85.156 Z" id="Fill-6" fill="#1A1919"></path>
            <path d="M723.889,42.361 L751.237,42.361 C760.585,42.361 767.645,44.848 772.122,49.422 C775.999,53.3 778.188,58.671 778.188,65.732 L778.188,66.228 C778.188,76.57 773.115,83.035 765.756,86.714 L780.076,111.973 L759.888,111.973 L748.056,90.394 L741.69,90.394 L741.69,111.973 L723.889,111.973 L723.889,42.361 Z M750.542,76.173 C756.608,76.173 760.186,72.692 760.186,67.124 L760.186,66.925 C760.186,60.958 756.409,57.974 750.441,57.974 L741.69,57.974 L741.69,76.173 L750.542,76.173 Z" id="Fill-7" fill="#1A1919"></path>
            <path d="M380.384,131.279 L398.271,131.279 L422.545,200.466 L403.97,200.466 L399.942,188.083 L378.32,188.083 L374.389,200.466 L356.208,200.466 L380.384,131.279 Z M395.519,173.931 L389.131,153.785 L382.743,173.931 L395.519,173.931 Z" id="Fill-8" fill="#1A1919"></path>
            <path d="M502.432,131.148 L530.933,131.148 C539.188,131.148 545.576,133.114 549.606,137.241 C552.455,139.993 554.126,143.727 554.126,148.642 L554.126,149.035 C554.126,156.898 549.606,161.614 543.905,164.169 C551.277,166.921 556.485,171.441 556.485,180.484 L556.485,180.877 C556.485,192.669 547.247,199.942 531.031,199.942 L502.432,199.942 L502.432,131.148 Z M536.633,152.278 C536.633,148.15 533.684,145.89 528.378,145.89 L519.631,145.89 L519.631,158.764 L528.083,158.764 C533.488,158.764 536.633,156.602 536.633,152.376 L536.633,152.278 Z M529.951,171.737 L519.631,171.737 L519.631,185.201 L530.048,185.201 C535.552,185.201 538.795,182.744 538.795,178.518 L538.795,178.42 C538.795,174.39 535.748,171.737 529.951,171.737 Z" id="Fill-9" fill="#1A1919"></path>
            <path d="M628.511,131.148 L655.537,131.148 C664.775,131.148 671.752,133.605 676.176,138.126 C680.008,141.958 682.171,147.266 682.171,154.243 L682.171,154.734 C682.171,164.955 677.158,171.343 669.886,174.98 L684.038,199.942 L664.087,199.942 L652.392,178.616 L646.102,178.616 L646.102,199.942 L628.511,199.942 L628.511,131.148 Z M654.849,164.562 C660.844,164.562 664.382,161.122 664.382,155.619 L664.382,155.423 C664.382,149.526 660.647,146.578 654.752,146.578 L646.102,146.578 L646.102,164.562 L654.849,164.562 Z" id="Fill-10" fill="#1A1919"></path>
            <path d="M530.943,42.515 C528.279,42.208 520.167,42.395 520.167,42.395 L520.167,77.399 L496.996,42.395 L480.189,42.395 L480.189,112.006 L497.791,112.006 L497.791,75.509 L521.857,112.006 L537.768,112.006 L537.768,51.273 C537.768,47.033 534.982,42.98 530.943,42.515" id="Fill-11" fill="#1A1919"></path>
            <path d="M798.562,42.377 C795.898,42.07 787.786,42.257 787.786,42.257 L787.786,111.867 L805.387,111.867 L805.387,51.135 C805.387,46.895 802.601,42.842 798.562,42.377" id="Fill-12" fill="#1A1919"></path>
            <path d="M343.984,131.313 C342.199,131.107 333.021,131.148 333.021,131.148 L333.021,157.29 L313.464,157.29 L313.464,131.148 L295.774,131.148 L295.774,199.942 L313.464,199.942 L313.464,173.407 L333.021,173.407 L333.021,199.942 L333.207,199.942 L333.207,200.706 L350.809,200.706 L350.809,139.974 C350.809,135.733 348.022,131.778 343.984,131.313" id="Fill-13" fill="#1A1919"></path>
            <path d="M492.348,199.942 L492.339,143.116 L492.339,140.05 C492.339,135.811 489.553,131.79 485.514,131.325 C483.457,131.088 473.937,131.148 473.937,131.148 L460.081,156.503 L446.125,131.148 L427.943,131.148 L427.943,199.942 L445.143,199.942 L445.143,161.418 L459.786,186.773 L460.081,186.773 L474.724,161.221 L474.724,199.942 L474.738,199.942 L474.738,199.963 L492.339,199.963 L492.339,199.942 L492.348,199.942" id="Fill-14" fill="#1A1919"></path>
            <path d="M871.822,51.331 C871.819,47.059 868.544,43.136 864.506,42.671 C862.038,42.385 861.836,42.366 855.615,42.432 L853.736,42.42 L853.736,42.453 L853.73,42.453 L853.73,66.456 L853.736,66.456 L853.736,84.983 C853.736,93.237 849.758,97.014 843.494,97.014 C837.328,97.014 833.25,93.037 833.25,84.685 L833.25,42.42 L815.252,42.42 L815.252,84.486 C815.252,104.275 826.388,113.225 843.393,113.225 C860.399,113.225 871.836,104.374 871.836,84.188 C871.836,84.188 871.825,55.205 871.822,51.331" id="Fill-15" fill="#1A1919"></path>
            <path d="M619.302,140.08 C619.299,135.808 616.024,131.885 611.986,131.419 C609.518,131.134 609.316,131.113 603.095,131.181 L601.216,131.169 L601.216,131.201 L601.209,131.201 L601.209,155.204 L601.216,155.204 L601.216,173.731 C601.216,181.986 597.239,185.762 590.974,185.762 C584.808,185.762 580.73,181.786 580.73,173.433 L580.73,131.169 L562.731,131.169 L562.731,173.235 C562.731,193.023 573.868,201.974 590.873,201.974 C607.88,201.974 619.317,193.122 619.317,172.937 C619.317,172.937 619.305,143.954 619.302,140.08" id="Fill-16" fill="#1A1919"></path>
            <path d="M372.827,95.798 L372.827,57.712 L372.824,57.712 L372.824,51.172 C372.529,46.932 369.743,42.878 365.704,42.413 C363.04,42.106 354.928,42.293 354.928,42.293 L354.928,111.908 L400.176,111.908 L400.176,95.798 L372.827,95.798" id="Fill-17" fill="#1A1919"></path>
            <path d="M649.449,42.578 C646.784,42.271 638.672,42.392 638.672,42.392 L638.672,42.393 L603.964,42.393 L603.964,58.505 L621.168,58.505 L621.168,112.006 L639.069,112.006 L639.069,58.505 L656.274,58.505 L656.274,51.271 C656.274,47.031 653.487,43.043 649.449,42.578" id="Fill-18" fill="#1A1919"></path>
            <path d="M746.439,168.671 C746.439,164.432 743.653,160.378 739.614,159.913 C736.949,159.606 718.921,159.747 718.921,159.747 L718.921,173.407 L729.82,173.407 L729.82,183.634 C727.855,184.909 725.304,185.692 721.869,185.692 C713.025,185.692 706.244,178.715 706.244,166.135 L706.244,165.152 C706.244,153.752 712.926,146.086 721.673,146.086 C727.57,146.086 731.501,148.543 735.137,151.787 L744.964,138.323 C738.282,132.918 731.107,129.97 721.28,129.97 C702.313,129.97 688.16,144.318 688.16,164.955 L688.16,166.332 C688.16,187.854 702.411,201.121 721.182,201.121 C731.599,201.121 739.953,197.388 746.439,192.572 L746.439,168.671" id="Fill-19" fill="#1A1919"></path>
            <path d="M939.684,42.438 C937.08,42.268 927.996,42.316 927.996,42.316 L913.992,67.947 L899.871,42.289 L881.472,42.289 L881.472,111.901 L898.875,111.901 L898.875,72.919 L913.692,98.573 L913.992,98.573 L928.78,72.769 L928.777,111.901 L946.509,112.027 L946.509,51.196 C946.509,46.956 943.741,42.703 939.684,42.438" id="Fill-20" fill="#1A1919"></path>
            <path d="M564.897,96.292 L564.897,84.359 L592.145,84.359 L592.145,69.542 L564.897,69.542 L564.897,58.105 L595.096,58.105 L595.099,50.742 L595.095,50.741 C595.041,46.556 592.372,43.092 588.374,42.632 C585.709,42.325 577.532,42.38 577.532,42.38 L547.196,42.393 L547.196,112.006 L595.526,112.006 L595.526,96.292 L564.897,96.292" id="Fill-21" fill="#1A1919"></path>
        </g>
    </g>
</svg>