<svg width="823" height="822" xmlns="http://www.w3.org/2000/svg" xmlns:xlink="http://www.w3.org/1999/xlink" xml:space="preserve" overflow="hidden"><g transform="translate(-317 -515)"><path d="M719.25 667.019 668.731 667.019 668.731 617.356 691.85 617.356 691.85 615.644 668.731 615.644 668.731 339.075 667.019 339.075 667.019 615.644 617.356 615.644 617.356 565.981 655.888 565.981 655.888 564.269 617.356 564.269 617.356 514.606 637.05 514.606 637.05 512.894 617.356 512.894 617.356 315.443 615.644 315.443 615.644 512.894 565.981 512.894 565.981 463.231 609.65 463.231 609.65 461.519 565.981 461.519 565.981 411.856 582.25 411.856 582.25 410.144 565.981 410.144 565.981 291.81 564.269 291.81 564.269 410.144 514.606 410.144 514.606 360.481 554.85 360.481 554.85 358.769 514.606 358.769 514.606 309.106 527.45 309.106 527.45 307.394 514.606 307.394 514.606 268.178 512.894 268.178 512.894 307.394 463.231 307.394 463.231 257.731 500.05 257.731 500.05 256.019 463.231 256.019 463.231 244.545 461.519 244.545 461.519 256.019 411.856 256.019 411.856 220.912 410.144 220.912 410.144 256.019 360.481 256.019 360.481 206.356 472.65 206.356 472.65 204.644 360.481 204.644 360.481 197.28 358.769 197.28 358.769 204.644 309.106 204.644 309.106 173.648 307.394 173.648 307.394 204.644 257.731 204.644 257.731 154.981 445.25 154.981 445.25 153.269 257.731 153.269 257.731 150.015 256.019 150.015 256.019 153.269 206.356 153.269 206.356 126.382 204.644 126.382 204.644 153.269 154.981 153.269 154.981 102.75 153.269 102.75 153.269 153.269 102.75 153.269 102.75 154.981 153.269 154.981 153.269 204.644 132.548 204.644 132.548 206.356 153.269 206.356 153.269 421.275 154.981 421.275 154.981 206.356 204.644 206.356 204.644 256.019 162.345 256.019 162.345 257.731 204.644 257.731 204.644 307.394 192.142 307.394 192.142 309.106 204.644 309.106 204.644 451.072 206.356 451.072 206.356 309.106 256.019 309.106 256.019 358.769 221.94 358.769 221.94 360.481 256.019 360.481 256.019 410.144 251.738 410.144 251.738 411.856 256.019 411.856 256.019 480.87 257.731 480.87 257.731 411.856 307.394 411.856 307.394 461.519 281.535 461.519 281.535 463.231 307.394 463.231 307.394 510.668 309.106 510.668 309.106 463.231 358.769 463.231 358.769 512.894 311.332 512.894 311.332 514.606 358.769 514.606 358.769 540.465 360.481 540.465 360.481 514.606 410.144 514.606 410.144 564.269 341.13 564.269 341.13 565.981 410.144 565.981 410.144 570.263 411.856 570.263 411.856 565.981 461.519 565.981 461.519 600.06 463.231 600.06 463.231 565.981 512.894 565.981 512.894 615.644 370.927 615.644 370.927 617.356 512.894 617.356 512.894 629.857 514.606 629.857 514.606 617.356 564.269 617.356 564.269 659.655 565.981 659.655 565.981 617.356 615.644 617.356 615.644 667.019 400.725 667.019 400.725 668.731 615.644 668.731 615.644 689.453 617.356 689.453 617.356 668.731 667.019 668.731 667.019 719.25 668.731 719.25 668.731 668.731 719.25 668.731 719.25 667.019ZM615.644 514.606 615.644 564.269 565.981 564.269 565.981 514.606 615.644 514.606ZM564.269 564.269 514.606 564.269 514.606 514.606 564.269 514.606 564.269 564.269ZM564.269 512.894 514.606 512.894 514.606 463.231 564.269 463.231 564.269 512.894ZM309.106 257.731 358.769 257.731 358.769 307.394 309.106 307.394 309.106 257.731ZM307.394 307.394 257.731 307.394 257.731 257.731 307.394 257.731 307.394 307.394ZM358.769 309.106 358.769 358.769 309.106 358.769 309.106 309.106 358.769 309.106ZM411.856 358.769 411.856 309.106 461.519 309.106 461.519 358.769 411.856 358.769ZM461.519 360.481 461.519 410.144 411.856 410.144 411.856 360.481 461.519 360.481ZM410.144 358.769 360.481 358.769 360.481 309.106 410.144 309.106 410.144 358.769ZM358.769 360.481 358.769 410.144 309.106 410.144 309.106 360.481 358.769 360.481ZM360.481 360.481 410.144 360.481 410.144 410.144 360.481 410.144 360.481 360.481ZM410.144 411.856 410.144 461.519 360.481 461.519 360.481 411.856 410.144 411.856ZM411.856 411.856 461.519 411.856 461.519 461.519 411.856 461.519 411.856 411.856ZM463.231 411.856 512.894 411.856 512.894 461.519 463.231 461.519 463.231 411.856ZM461.519 463.231 461.519 512.894 411.856 512.894 411.856 463.231 461.519 463.231ZM463.231 463.231 512.894 463.231 512.894 512.894 463.231 512.894 463.231 463.231ZM564.269 411.856 564.269 461.519 514.606 461.519 514.606 411.856 564.269 411.856ZM512.894 410.144 463.231 410.144 463.231 360.481 512.894 360.481 512.894 410.144ZM512.894 309.106 512.894 358.769 463.231 358.769 463.231 309.106 512.894 309.106ZM461.519 257.731 461.519 307.394 411.856 307.394 411.856 257.731 461.519 257.731ZM410.144 257.731 410.144 307.394 360.481 307.394 360.481 257.731 410.144 257.731ZM358.769 206.356 358.769 256.019 309.106 256.019 309.106 206.356 358.769 206.356ZM307.394 206.356 307.394 256.019 257.731 256.019 257.731 206.356 307.394 206.356ZM256.019 154.981 256.019 204.644 206.356 204.644 206.356 154.981 256.019 154.981ZM154.981 204.644 154.981 154.981 204.644 154.981 204.644 204.644 154.981 204.644ZM206.356 206.356 256.019 206.356 256.019 256.019 206.356 256.019 206.356 206.356ZM206.356 307.394 206.356 257.731 256.019 257.731 256.019 307.394 206.356 307.394ZM257.731 309.106 307.394 309.106 307.394 358.769 257.731 358.769 257.731 309.106ZM257.731 410.144 257.731 360.481 307.394 360.481 307.394 410.144 257.731 410.144ZM309.106 461.519 309.106 411.856 358.769 411.856 358.769 461.519 309.106 461.519ZM360.481 512.894 360.481 463.231 410.144 463.231 410.144 512.894 360.481 512.894ZM411.856 564.269 411.856 514.606 461.519 514.606 461.519 564.269 411.856 564.269ZM463.231 564.269 463.231 514.606 512.894 514.606 512.894 564.269 463.231 564.269ZM514.606 615.644 514.606 565.981 564.269 565.981 564.269 615.644 514.606 615.644ZM565.981 615.644 565.981 565.981 615.644 565.981 615.644 615.644 565.981 615.644ZM617.356 667.019 617.356 617.356 667.019 617.356 667.019 667.019 617.356 667.019Z" stroke="#E1D15A" stroke-width="0.856273" fill="#E6E6E6" transform="matrix(-1.00122 0 0 1 1140 515)"/><path d="M303.58 230.314C303.58 238.76 296.734 245.606 288.288 245.606 279.843 245.606 272.996 238.76 272.996 230.314 272.996 221.869 279.843 215.022 288.288 215.022 296.734 215.022 303.58 221.869 303.58 230.314Z" stroke="#E1D15A" stroke-width="0.856273" fill="#D2D2D2" transform="matrix(-1.00122 0 0 1 1140 515)"/><path d="M606.225 638.642C606.225 647.087 599.379 653.934 590.933 653.934 582.488 653.934 575.641 647.087 575.641 638.642 575.641 630.196 582.488 623.35 590.933 623.35 599.379 623.35 606.225 630.196 606.225 638.642Z" stroke="#E1D15A" stroke-width="0.856273" fill="#F2F2F2" transform="matrix(-1.00122 0 0 1 1140 515)"/><path d="M606.225 436.808C606.225 445.254 599.379 452.1 590.933 452.1 582.488 452.1 575.641 445.254 575.641 436.808 575.641 428.363 582.488 421.516 590.933 421.516 599.379 421.516 606.225 428.363 606.225 436.808Z" stroke="#E1D15A" stroke-width="0.856273" fill="#D2D2D2" transform="matrix(-1.00122 0 0 1 1140 515)"/><path d="M554.609 539.558C554.609 548.004 547.762 554.85 539.317 554.85 530.871 554.85 524.025 548.004 524.025 539.558 524.025 531.113 530.871 524.266 539.317 524.266 547.762 524.266 554.609 531.113 554.609 539.558Z" stroke="#E1D15A" stroke-width="0.856273" fill="#737373" transform="matrix(-1.00122 0 0 1 1140 515)"/><path d="M424.459 566.717C424.459 575.162 417.612 582.009 409.167 582.009 400.721 582.009 393.875 575.162 393.875 566.717 393.875 558.271 400.721 551.425 409.167 551.425 417.612 551.425 424.459 558.271 424.459 566.717Z" stroke="#E1D15A" stroke-width="0.856273" fill="#737373" transform="matrix(-1.00122 0 0 1 1140 515)"/><path d="M427.884 282.442C427.884 290.887 421.037 297.734 412.592 297.734 404.146 297.734 397.3 290.887 397.3 282.442 397.3 273.996 404.146 267.15 412.592 267.15 421.037 267.15 427.884 273.996 427.884 282.442Z" stroke="#E1D15A" stroke-width="0.856273" fill="#F2F2F2" transform="matrix(-1.00122 0 0 1 1140 515)"/><path d="M400.725 334.058C400.725 342.504 393.879 349.35 385.433 349.35 376.988 349.35 370.141 342.504 370.141 334.058 370.141 325.613 376.988 318.766 385.433 318.766 393.879 318.766 400.725 325.613 400.725 334.058Z" stroke="#E1D15A" stroke-width="0.856273" fill="#737373" transform="matrix(-1.00122 0 0 1 1140 515)"/><path d="M143.611 282.681C143.611 291.126 136.765 297.972 128.319 297.972 119.874 297.972 113.028 291.126 113.028 282.681 113.028 274.235 119.874 267.389 128.319 267.389 136.765 267.389 143.611 274.235 143.611 282.681Z" stroke="#E1D15A" stroke-width="0.856273" fill="#F2F2F2" transform="matrix(-1.00122 0 0 1 1140 515)"/><path d="M270.572 310.081C270.572 318.526 263.726 325.372 255.281 325.372 246.835 325.372 239.989 318.526 239.989 310.081 239.989 301.635 246.835 294.789 255.281 294.789 263.726 294.789 270.572 301.635 270.572 310.081Z" stroke="#E1D15A" stroke-width="0.856273" fill="#505050" transform="matrix(-1.00122 0 0 1 1140 515)"/><path d="M479.497 309.844C479.497 318.29 472.651 325.136 464.206 325.136 455.76 325.136 448.914 318.29 448.914 309.844 448.914 301.399 455.76 294.553 464.206 294.553 472.651 294.553 479.497 301.399 479.497 309.844Z" stroke="#E1D15A" stroke-width="0.856273" fill="#F2F2F2" transform="matrix(-1.00122 0 0 1 1140 515)"/><path d="M560.149 377.618C560.149 386.064 553.303 392.91 544.858 392.91 536.412 392.91 529.566 386.064 529.566 377.618 529.566 369.173 536.412 362.326 544.858 362.326 553.303 362.326 560.149 369.173 560.149 377.618Z" stroke="#E1D15A" stroke-width="0.856273" fill="#505050" transform="matrix(-1.00122 0 0 1 1140 515)"/><path d="M502.961 520.258C502.961 528.704 496.115 535.55 487.669 535.55 479.224 535.55 472.378 528.704 472.378 520.258 472.378 511.813 479.224 504.967 487.669 504.967 496.115 504.967 502.961 511.813 502.961 520.258Z" stroke="#E1D15A" stroke-width="0.856273" fill="#F2F2F2" transform="matrix(-1.00122 0 0 1 1140 515)"/><path d="M238.313 399.399C238.313 407.844 231.467 414.69 223.021 414.69 214.576 414.69 207.73 407.844 207.73 399.399 207.73 390.953 214.576 384.107 223.021 384.107 231.467 384.107 238.313 390.953 238.313 399.399Z" stroke="#E1D15A" stroke-width="0.856273" fill="#505050" transform="matrix(-1.00122 0 0 1 1140 515)"/><path d="M195.222 231.069C195.222 239.515 188.376 246.361 179.931 246.361 171.485 246.361 164.639 239.515 164.639 231.069 164.639 222.624 171.485 215.778 179.931 215.778 188.376 215.778 195.222 222.624 195.222 231.069Z" stroke="#E1D15A" stroke-width="0.856273" fill="#737373" transform="matrix(-1.00122 0 0 1 1140 515)"/><path d="M402.974 459.686C402.974 468.131 396.128 474.977 387.683 474.977 379.237 474.977 372.391 468.131 372.391 459.686 372.391 451.24 379.237 444.394 387.683 444.394 396.128 444.394 402.974 451.24 402.974 459.686Z" stroke="#E1D15A" stroke-width="0.856273" fill="#D2D2D2" transform="matrix(-1.00122 0 0 1 1140 515)"/><path d="M506.9 354.608C506.9 363.054 500.054 369.9 491.608 369.9 483.163 369.9 476.316 363.054 476.316 354.608 476.316 346.163 483.163 339.316 491.608 339.316 500.054 339.316 506.9 346.163 506.9 354.608Z" stroke="#E1D15A" stroke-width="0.856273" fill="#505050" transform="matrix(-1.00122 0 0 1 1140 515)"/><path d="M479.431 444.395C479.431 452.84 472.585 459.686 464.14 459.686 455.694 459.686 448.848 452.84 448.848 444.395 448.848 435.949 455.694 429.103 464.14 429.103 472.585 429.103 479.431 435.949 479.431 444.395Z" stroke="#E1D15A" stroke-width="0.856273" fill="#D2D2D2" transform="matrix(-1.00122 0 0 1 1140 515)"/><path d="M534.3 425.495C534.3 429.718 530.877 433.141 526.655 433.141 522.432 433.141 519.009 429.718 519.009 425.495 519.009 421.273 522.432 417.85 526.655 417.85 530.877 417.85 534.3 421.273 534.3 425.495Z" stroke="#E1D15A" stroke-width="0.856273" fill="#505050" transform="matrix(-1.00122 0 0 1 1140 515)"/><path d="M434.975 375.955C434.975 380.177 431.552 383.6 427.33 383.6 423.107 383.6 419.684 380.177 419.684 375.955 419.684 371.732 423.107 368.309 427.33 368.309 431.552 368.309 434.975 371.732 434.975 375.955Z" stroke="#E1D15A" stroke-width="0.856273" fill="#505050" transform="matrix(-1.00122 0 0 1 1140 515)"/><path d="M532.951 322.063C532.951 326.285 529.528 329.708 525.305 329.708 521.083 329.708 517.66 326.285 517.66 322.063 517.66 317.841 521.083 314.418 525.305 314.418 529.528 314.418 532.951 317.841 532.951 322.063Z" stroke="#E1D15A" stroke-width="0.856273" fill="#F2F2F2" transform="matrix(-1.00122 0 0 1 1140 515)"/><path d="M383.6 523.229C383.6 527.452 380.177 530.875 375.955 530.875 371.732 530.875 368.309 527.452 368.309 523.229 368.309 519.007 371.732 515.584 375.955 515.584 380.177 515.584 383.6 519.007 383.6 523.229Z" stroke="#E1D15A" stroke-width="0.856273" fill="#505050" transform="matrix(-1.00122 0 0 1 1140 515)"/><path d="M404.15 487.145C404.15 491.368 400.727 494.791 396.505 494.791 392.282 494.791 388.859 491.368 388.859 487.145 388.859 482.923 392.282 479.5 396.505 479.5 400.727 479.5 404.15 482.923 404.15 487.145Z" stroke="#E1D15A" stroke-width="0.856273" fill="#505050" transform="matrix(-1.00122 0 0 1 1140 515)"/><path d="M453.691 497.42C453.691 501.643 450.268 505.066 446.045 505.066 441.823 505.066 438.4 501.643 438.4 497.42 438.4 493.198 441.823 489.775 446.045 489.775 450.268 489.775 453.691 493.198 453.691 497.42Z" stroke="#E1D15A" stroke-width="0.856273" fill="#505050" transform="matrix(-1.00122 0 0 1 1140 515)"/><path d="M299.566 343.295C299.566 347.518 296.143 350.941 291.92 350.941 287.698 350.941 284.275 347.518 284.275 343.295 284.275 339.073 287.698 335.65 291.92 335.65 296.143 335.65 299.566 339.073 299.566 343.295Z" stroke="#E1D15A" stroke-width="0.856273" fill="#505050" transform="matrix(-1.00122 0 0 1 1140 515)"/><path d="M404.15 396.505C404.15 400.727 400.727 404.15 396.505 404.15 392.282 404.15 388.859 400.727 388.859 396.505 388.859 392.282 392.282 388.859 396.505 388.859 400.727 388.859 404.15 392.282 404.15 396.505Z" stroke="#E1D15A" stroke-width="0.856273" fill="#505050" transform="matrix(-1.00122 0 0 1 1140 515)"/></g></svg>