<svg width="480" height="480" xmlns="http://www.w3.org/2000/svg" xmlns:xlink="http://www.w3.org/1999/xlink" xml:space="preserve" overflow="hidden"><g transform="translate(-630 -272)"><path d="M799 383.533C799 365.017 779.8 343.266 761.653 345.351 756.717 346.666 752.157 348.902 748.167 351.863 747.938 352.033 747.25 356.699 743.2 362.199 739.137 367.717 734.198 370.848 734.104 371.125 732.733 375.161 731.99 379.488 731.99 383.988 731.99 388.495 732.722 392.833 734.11 396.87 734.195 397.116 737.118 398.877 737.866 400.399 738.743 402.184 738.891 406.453 739.069 406.711 741.975 410.908 745.671 414.507 749.919 417.344 750.213 417.54 754.716 417.859 756.632 418.732 758.424 419.549 760.799 422.391 761.021 422.454 761.241 422.516 761.429 422.567 761.651 422.626 782.733 424.333 799 402.049 799 383.533Z" fill="#E6E6E6"/><path d="M775.993 344.2C771.009 343.705 766.195 344.145 761.688 345.342 761.668 345.347 761.668 345.356 761.688 345.361 778.748 349.925 791.314 365.486 791.314 383.989 791.314 402.492 778.747 418.053 761.688 422.617 761.668 422.622 761.668 422.631 761.688 422.636 764.969 423.508 768.414 423.978 771.969 423.978 794.838 423.978 813.221 404.774 811.88 381.609 810.755 362.154 795.386 346.128 775.993 344.2Z" fill="#737373"/><path d="M798.378 393.858C796.17 393.858 794.38 395.648 794.38 397.857 794.38 400.066 796.17 401.856 798.378 401.856 800.586 401.856 802.376 400.066 802.376 397.857 802.376 395.648 800.586 393.858 798.378 393.858Z" fill="#505050"/><path d="M772.01 359.222C763.241 359.222 756.133 366.332 756.133 375.102 756.133 383.873 763.241 390.983 772.01 390.983 780.779 390.983 787.887 383.873 787.887 375.102 787.887 366.332 780.779 359.222 772.01 359.222ZM772.01 382.642C767.04 382.642 763.012 378.613 763.012 373.642 763.012 368.671 767.041 364.642 772.01 364.642 776.979 364.642 781.008 368.671 781.008 373.642 781.008 378.613 776.98 382.642 772.01 382.642Z" fill="#D2D2D2"/><path d="M750.058 366.716C753.028 361.821 752.132 355.674 748.259 351.796 741.733 356.616 736.733 363.375 734.092 371.222 739.726 374.12 746.72 372.217 750.058 366.716Z" fill="#D2D2D2"/><path d="M767.823 405.908C766.924 397.4 760.152 390.477 751.667 389.381 744.501 388.456 737.97 391.651 734.115 396.878 735.309 400.401 737.007 403.721 739.079 406.725 739.087 406.737 739.095 406.735 739.097 406.72 739.677 401.729 744.075 397.858 749.294 398.2 754.341 398.531 758.364 402.923 758.273 407.98 758.186 412.777 754.586 416.708 749.94 417.33 749.926 417.332 749.924 417.34 749.936 417.348 753.311 419.588 757.049 421.319 761.038 422.457 765.727 418.629 768.528 412.581 767.823 405.908Z" fill="#D2D2D2"/><path d="M944.115 397.413C944.85 399.05 944.117 400.973 942.479 401.708 940.842 402.442 938.919 401.71 938.184 400.072 937.45 398.434 938.182 396.511 939.82 395.776 941.458 395.042 943.381 395.775 944.115 397.413Z" fill="#D2D2D2"/><path d="M730.22 440.463C730.954 442.1 730.222 444.023 728.584 444.758 726.946 445.492 725.023 444.76 724.289 443.122 723.555 441.484 724.287 439.561 725.925 438.827 727.563 438.092 729.486 438.825 730.22 440.463Z" fill="#D2D2D2"/><path d="M786.72 458.961C787.455 460.599 786.722 462.522 785.084 463.256 783.447 463.991 781.524 463.258 780.789 461.62 780.055 459.982 780.787 458.059 782.425 457.325 784.063 456.591 785.986 457.323 786.72 458.961Z" fill="#D2D2D2"/><path d="M752.322 461.733C753.791 465.008 752.326 468.854 749.05 470.323 745.774 471.792 741.928 470.327 740.46 467.051 738.991 463.775 740.456 459.929 743.732 458.461 747.008 456.992 750.854 458.457 752.322 461.733Z" fill="#D2D2D2"/><path d="M870.454 392.196C870.758 393.965 869.57 395.645 867.801 395.949 866.032 396.253 864.352 395.065 864.048 393.296 863.744 391.527 864.932 389.847 866.701 389.543 868.47 389.239 870.15 390.427 870.454 392.196Z" fill="#D2D2D2"/><path d="M965.957 384.192C966.261 385.961 965.073 387.642 963.304 387.946 961.535 388.25 959.854 387.062 959.55 385.293 959.247 383.524 960.434 381.843 962.203 381.539 963.972 381.236 965.653 382.423 965.957 384.192Z" fill="#D2D2D2"/><path d="M764.713 549.381C765.017 551.15 763.829 552.83 762.06 553.134 760.291 553.438 758.61 552.25 758.307 550.481 758.003 548.712 759.19 547.032 760.96 546.728 762.729 546.424 764.409 547.612 764.713 549.381Z" fill="#D2D2D2"/><path d="M848.906 388.396C849.514 391.934 847.139 395.295 843.601 395.903 840.062 396.511 836.701 394.135 836.094 390.597 835.486 387.059 837.861 383.698 841.4 383.09 844.938 382.483 848.299 384.858 848.906 388.396Z" fill="#D2D2D2"/><path d="M1009.27 512.067C1009.32 512.861 1013.63 517.421 1013.67 518.213 1014.12 529.88 1012.52 541.289 1009.13 552.019 1009.01 552.392 1004.99 555.163 1004.87 555.534 1003.29 560.325 1001.99 562.558 1000.2 565.667 998.2 569.134 996.798 572.02 993.4 576.6 993.193 576.879 993.605 582.149 993.395 582.426 979.137 601.235 958.202 615.098 933.233 620.062 917.318 623.226 901.536 622.423 886.909 618.336 886.608 618.252 881.012 612.475 880.734 612.333 868.467 606.066 863.926 603.661 853.801 595.666 845.926 589.448 841.412 584.734 835.668 576.333 835.451 576.015 830.731 577.776 830.518 577.456 823.458 566.87 818.315 554.751 815.68 541.495 813.888 532.482 813.369 523.51 813.998 514.768 814.05 514.043 816.866 513.455 816.934 512.734 818.016 501.228 820.628 490.892 825.401 480.667 830.99 468.694 838.54 458.671 848.334 449.734 848.958 449.165 847.663 446.944 848.302 446.39 860.983 435.394 876.61 427.446 894.25 423.939 917.7 419.277 940.863 423.228 960.466 433.604 961.487 434.145 958.933 438.159 959.934 438.734 974.278 446.972 986.306 457.311 995.134 471.667 1001.18 481.502 1008.99 507.649 1009.27 512.067Z" fill="#E1D15A"/><path d="M830.479 577.388C843.813 597.417 864.001 611.968 887.051 618.37 883.896 611.661 877.117 601.704 877.741 588 878.505 571.21 889.615 565.792 885.741 552 885.328 550.529 882.369 540.529 873.741 536 866.787 532.35 861.741 532 853.741 532 850.567 532 835.101 534.798 833.741 528 831.357 516.081 862.628 497.562 859.741 488 857.846 481.725 845.356 480.927 845.741 478 846.068 475.515 854.975 476.829 863.741 472 872.108 467.391 879.861 457.455 877.741 452 875.551 446.366 862.367 444.331 848.344 446.358 828.545 463.508 815.921 488.081 814.003 514.784 818.221 516.486 822.346 519.131 825.741 524 833.397 534.979 832.573 550.418 831.741 566 831.465 571.17 830.966 574.707 830.479 577.388Z" fill="#737373"/><path d="M1011.8 502.505C1005.69 471.747 986.07 447.118 960.339 433.544 942.988 435.948 924.746 439.621 911.742 444 893.639 450.096 895.955 461.23 896.366 461.989 900.877 470.328 918.493 466.091 920.366 471.989 921.716 476.241 912.789 479.161 908.366 489.989 905.063 498.074 904.458 510.11 910.366 515.989 916.944 522.534 926.458 516.335 936.366 519.989 955.886 527.189 949.652 575.251 957.742 576 965.189 576.69 976.531 565.633 983.742 544 989.742 526 982.713 518.626 988.366 513.989 994.467 508.984 1005.33 517.368 1013.66 518.296 1013.46 513.072 1012.85 507.796 1011.8 502.505Z" fill="#737373"/><path d="M991.988 561.654C988.014 568.857 989.842 577.178 993.372 582.445 1000.3 573.314 1005.65 563.019 1009.13 552.008 1002.88 552.159 995.717 554.897 991.988 561.654Z" fill="#737373"/></g></svg>