<svg width="480" height="480" xmlns="http://www.w3.org/2000/svg" xmlns:xlink="http://www.w3.org/1999/xlink" xml:space="preserve" overflow="hidden"><g transform="translate(-800 -853)"><path d="M1146.92 1086.68C1146.92 1092.98 1146.27 1099.12 1145.04 1105.05 1144.97 1105.41 1139.48 1108.31 1139.4 1108.67 1133.67 1134.7 1120.43 1149.53 1097.53 1161.73 1097.26 1161.88 1098.63 1166.45 1098.35 1166.6 1085.95 1173.04 1071.86 1176.68 1056.92 1176.68 1042.01 1176.68 1027.94 1173.06 1015.56 1166.64 1015.1 1166.4 1015.58 1160.98 1015.13 1160.73 994.282 1149.47 983.383 1137.88 976.534 1114.73 976.379 1114.21 970.298 1111.21 970.152 1110.69 968.043 1103.04 966.916 1094.99 966.916 1086.68 966.916 1085.58 966.936 1084.49 966.975 1083.4 967.004 1082.6 972.084 1081.4 972.134 1080.6 973.489 1058.87 979.931 1042.31 994.001 1027.47 994.488 1026.95 992.562 1023.76 993.061 1023.26 1009.36 1006.85 1031.95 996.683 1056.92 996.683 1081.91 996.683 1104.52 1006.87 1120.83 1023.32 1121.72 1024.22 1119.48 1028.4 1120.33 1029.33 1132.83 1043.04 1137.13 1052.27 1141.4 1072 1141.5 1072.44 1146.47 1077.7 1146.52 1078.15 1146.78 1080.96 1146.92 1083.8 1146.92 1086.68Z" fill="#D2D2D2"/><path d="M993.075 1023.25C986.498 1029.87 980.946 1037.51 976.671 1045.9 976.512 1046.21 1037.94 1065.3 1091.4 1064.53 1128.47 1064 1142.14 1057.65 1141.63 1056.23 1137.14 1043.76 1129.98 1032.56 1120.83 1023.33 1098.1 1021.73 1070.35 1020 1056.41 1020 1042.69 1020 1015.6 1021.67 993.075 1023.25Z" fill="#F2F2F2"/><path d="M976.665 1045.9C970.885 1057.26 967.448 1070 966.978 1083.49 989.475 1085.84 1037.88 1089.41 1076.41 1082 1102.23 1077.03 1127.56 1077 1146.52 1078.23 1145.81 1070.65 1144.17 1063.34 1141.7 1056.42 1118.91 1058.98 1090.28 1059.42 1070.41 1050 1045.27 1038.1 1002.65 1041.94 976.665 1045.9Z" fill="#E6E6E6"/><path d="M1032.73 1124.53C1000.73 1123.33 978.793 1131.51 980.462 1134.19 989.017 1147.93 1001.17 1159.19 1015.61 1166.66 1031.63 1167.65 1047.09 1168.42 1056.41 1168.42 1065.94 1168.42 1081.93 1167.61 1098.36 1166.59 1107.81 1161.68 1116.28 1155.13 1123.4 1147.33 1125.54 1144.99 1082.43 1126.4 1032.73 1124.53Z" fill="#F2F2F2"/><path d="M1145.04 1105.02C1119.91 1103.16 1083.04 1102.11 1052.41 1108 1020.58 1114.12 989.501 1112.75 970.179 1110.76 972.516 1119.2 976.051 1127.14 980.589 1134.38 1004.2 1131.2 1036.58 1129.66 1058.41 1140 1075.54 1148.12 1100.82 1148.91 1123.4 1147.34 1134.08 1135.64 1141.71 1121.12 1145.04 1105.02Z" fill="#E6E6E6"/><path d="M1141.31 1118 972.518 1118C973.502 1120.65 974.604 1123.24 975.823 1125.77 995.851 1126.47 1032.47 1127.36 1066.41 1126 1093.84 1124.9 1118.87 1127.42 1135.87 1129.91 1137.96 1126.1 1139.78 1122.12 1141.31 1118Z" fill="#E1D15A"/><path d="M1181.92 1015.15C1183.59 1015.79 1184.44 1017.66 1183.8 1019.34 1183.16 1021.02 1181.28 1021.86 1179.6 1021.22 1177.93 1020.58 1177.08 1018.7 1177.72 1017.03 1178.36 1015.35 1180.24 1014.51 1181.92 1015.15Z" fill="#D2D2D2"/><path d="M1157.26 1022.72C1160.62 1023.99 1162.3 1027.75 1161.02 1031.1 1159.75 1034.46 1155.99 1036.14 1152.64 1034.86 1149.28 1033.59 1147.6 1029.83 1148.88 1026.48 1150.15 1023.12 1153.91 1021.44 1157.26 1022.72Z" fill="#F2F2F2"/><path d="M1135.23 1177.43C1138.58 1178.71 1140.27 1182.47 1138.99 1185.82 1137.71 1189.18 1133.96 1190.86 1130.6 1189.58 1127.25 1188.3 1125.56 1184.55 1126.84 1181.19 1128.12 1177.84 1131.87 1176.15 1135.23 1177.43Z" fill="#D2D2D2"/><path d="M915.129 1033.29C915.863 1034.92 915.13 1036.85 913.492 1037.58 911.855 1038.31 909.932 1037.58 909.197 1035.94 908.463 1034.31 909.195 1032.38 910.833 1031.65 912.471 1030.92 914.394 1031.65 915.129 1033.29Z" fill="#D2D2D2"/><path d="M913.846 1091.02C915.314 1094.3 913.849 1098.15 910.573 1099.62 907.298 1101.08 903.452 1099.62 901.983 1096.34 900.514 1093.07 901.979 1089.22 905.255 1087.75 908.531 1086.28 912.377 1087.75 913.846 1091.02Z" fill="#505050"/><path d="M907.344 1057.71C908.813 1060.98 907.348 1064.83 904.072 1066.3 900.797 1067.76 896.951 1066.3 895.482 1063.02 894.013 1059.75 895.478 1055.9 898.754 1054.43 902.03 1052.96 905.876 1054.43 907.344 1057.71Z" fill="#F2F2F2"/><path d="M937.231 1054.56C938.7 1057.83 937.235 1061.68 933.959 1063.15 930.684 1064.61 926.838 1063.15 925.369 1059.87 923.9 1056.6 925.365 1052.75 928.641 1051.28 931.917 1049.81 935.763 1051.28 937.231 1054.56Z" fill="#D2D2D2"/><path d="M949.622 1142.2C949.926 1143.97 948.738 1145.65 946.969 1145.96 945.2 1146.26 943.519 1145.07 943.216 1143.3 942.912 1141.54 944.099 1139.85 945.869 1139.55 947.638 1139.25 949.318 1140.43 949.622 1142.2Z" fill="#D2D2D2"/></g></svg>