<svg width="480" height="480" xmlns="http://www.w3.org/2000/svg" xmlns:xlink="http://www.w3.org/1999/xlink" xml:space="preserve" overflow="hidden"><g transform="translate(-950 -973)"><path d="M1293.51 1207.5C1293.51 1210.26 1293.39 1213 1293.14 1215.7 1293.12 1215.92 1290.42 1217.44 1290.4 1217.65 1289.8 1223.81 1289.33 1226.32 1287.55 1232.05 1287.45 1232.37 1289.28 1234.86 1289.17 1235.18 1287.04 1241.79 1284.16 1248.06 1280.64 1253.91 1280.56 1254.03 1277.52 1254.83 1277.45 1254.95 1274.49 1259.8 1272.69 1261.71 1268.9 1265.9 1268.71 1266.11 1269.88 1268.28 1269.69 1268.49 1265.86 1272.64 1261.65 1276.43 1257.11 1279.8 1256.95 1279.93 1253.11 1280.23 1252.95 1280.35 1249.78 1282.67 1249.62 1282.55 1246.15 1284.45 1245.93 1284.57 1246.22 1286.74 1246 1286.86 1233.35 1293.65 1218.88 1297.5 1203.51 1297.5 1182.15 1297.5 1162.53 1290.06 1147.1 1277.63 1146.89 1277.46 1147.76 1275.77 1147.55 1275.6 1145 1273.51 1144.75 1273.5 1142.45 1271.15 1142.28 1270.98 1138.86 1270.12 1138.7 1269.95 1137.09 1268.28 1135.54 1266.54 1134.06 1264.75 1133.92 1264.57 1135.44 1262.13 1135.3 1261.95 1131.79 1257.63 1129.97 1256.03 1127.3 1251.1 1127.16 1250.84 1124.05 1249.81 1123.92 1249.55 1122.47 1246.83 1121.17 1244.02 1120 1241.14 1119.92 1240.92 1121.38 1238.81 1121.3 1238.6 1119.35 1233.67 1118.75 1231.06 1117.7 1225.75 1117.65 1225.51 1115.13 1224.63 1115.09 1224.39 1114.05 1218.92 1113.51 1213.27 1113.51 1207.5 1113.51 1207.32 1113.51 1207.13 1113.51 1206.95 1113.51 1206.53 1116.39 1204.27 1116.4 1203.85 1116.52 1197.39 1116.78 1194.91 1118.2 1188.85 1118.27 1188.55 1116.02 1186.3 1116.09 1186 1116.55 1184.12 1117.07 1182.26 1117.65 1180.43 1117.71 1180.25 1120.53 1178.32 1120.6 1178.15 1121.1 1176.9 1121.55 1174.7 1122.35 1173.35 1122.46 1173.15 1120.84 1171.86 1120.93 1171.65 1122.67 1167.64 1124.7 1163.78 1126.98 1160.1 1127.15 1159.83 1131.68 1157.67 1131.85 1157.4 1136.85 1149.53 1139.81 1146.96 1146.95 1141 1147.18 1140.8 1146.29 1138.02 1146.53 1137.82 1162.05 1125.12 1181.89 1117.5 1203.51 1117.5 1227.29 1117.5 1248.93 1126.73 1265.02 1141.8 1265.2 1141.97 1264.06 1144.18 1264.24 1144.35 1269.36 1149.22 1271.29 1151.15 1275.15 1157.1 1275.3 1157.33 1279.39 1159.09 1279.54 1159.33 1280.31 1160.54 1281.05 1161.77 1281.77 1163.02 1281.86 1163.19 1280.45 1164.23 1280.55 1164.4 1282.17 1167.29 1282.29 1168.22 1283.59 1171.3 1283.73 1171.62 1286.71 1173.13 1286.84 1173.45 1287.8 1175.78 1288.66 1178.17 1289.42 1180.59 1289.47 1180.78 1288.24 1181.96 1288.3 1182.15 1289.3 1185.44 1289.32 1186.71 1289.95 1190.15 1289.99 1190.41 1292.13 1191.76 1292.18 1192.02 1293.06 1197.05 1293.51 1202.22 1293.51 1207.5Z" fill="#D2D2D2"/><path d="M1117.65 1180.45C1137.79 1175.55 1161.38 1171.33 1187.89 1169.38 1226.11 1166.56 1259.71 1169.22 1286.86 1173.5 1285.38 1169.88 1283.68 1166.37 1281.76 1163.01 1263.34 1160.64 1242.59 1159.13 1219.89 1159.38 1181.2 1159.81 1147.71 1165.23 1120.95 1171.64 1119.7 1174.5 1118.6 1177.44 1117.65 1180.45Z" fill="#737373"/><path d="M1257.12 1279.79C1246.09 1277.37 1234.37 1275.22 1221.97 1273.52 1190.97 1269.26 1162.85 1268.73 1138.72 1269.95 1141.35 1272.69 1144.17 1275.26 1147.13 1277.64 1160.16 1277.34 1174.11 1277.61 1188.85 1278.7 1209.56 1280.24 1228.67 1283.17 1246.02 1286.84 1249.9 1284.76 1253.61 1282.4 1257.12 1279.79Z" fill="#E6E6E6"/><path d="M1120.02 1241.14C1139.17 1236.1 1161.27 1231.83 1185.89 1229.78 1226.16 1226.41 1261.28 1229.95 1289.15 1235.24 1291.17 1229 1292.52 1222.46 1293.14 1215.7 1271.61 1211.81 1246.27 1209.05 1217.89 1209.41 1177.33 1209.92 1142.48 1216.65 1115.1 1224.37 1116.2 1230.18 1117.86 1235.79 1120.02 1241.14Z" fill="#E1D15A"/><path d="M1269.67 1268.51C1273.8 1264.03 1277.48 1259.14 1280.64 1253.89 1263.56 1249.78 1244.23 1246.38 1222.92 1244.63 1185.09 1241.54 1151.51 1244.55 1123.93 1249.55 1126.8 1254.97 1130.2 1260.07 1134.08 1264.76 1148.26 1264.04 1160.93 1263.64 1171.87 1263.43 1206.58 1262.75 1224.74 1263.92 1230 1264.28 1244.91 1265.3 1258.24 1266.85 1269.67 1268.51Z" fill="#737373"/><path d="M1289.43 1180.62C1257.73 1175.91 1220.19 1170.95 1179.13 1175.46 1156.35 1177.96 1135.29 1181.67 1116.1 1185.99 1114.46 1192.71 1113.56 1199.73 1113.52 1206.95 1144.25 1199.22 1180.82 1192.81 1222.18 1190.87 1247.52 1189.68 1270.98 1190.35 1292.19 1192.06 1291.51 1188.15 1290.59 1184.34 1289.43 1180.62Z" fill="#E6E6E6"/><path d="M1146.54 1137.83C1138.87 1144.11 1132.25 1151.64 1127 1160.1 1160.4 1155.28 1200.85 1152.53 1246.45 1155.89 1257.92 1156.74 1268.96 1157.92 1279.56 1159.35 1275.47 1152.9 1270.58 1147.02 1265.04 1141.82 1246.52 1138.23 1226.64 1135.65 1205.56 1135.41 1184.51 1135.18 1164.78 1136.13 1146.54 1137.83Z" fill="#F2F2F2"/><path d="M1271.75 1317.67C1273.47 1318.21 1274.43 1320.03 1273.89 1321.73 1273.35 1323.43 1271.52 1324.37 1269.8 1323.83 1268.09 1323.28 1267.13 1321.46 1267.67 1319.76 1268.21 1318.06 1270.03 1317.12 1271.75 1317.67Z" fill="#D2D2D2"/><path d="M1289.22 1281.7C1292.88 1279.13 1297.95 1280.84 1299.25 1285.19 1300.03 1287.81 1299.01 1290.72 1296.78 1292.29 1293.12 1294.86 1288.05 1293.15 1286.75 1288.8 1285.97 1286.19 1286.99 1283.28 1289.22 1281.7Z" fill="#505050"/><path d="M1113.75 1135.67C1115.46 1136.21 1116.42 1138.03 1115.88 1139.73 1115.34 1141.43 1113.51 1142.37 1111.8 1141.83 1110.08 1141.28 1109.12 1139.46 1109.66 1137.76 1110.2 1136.06 1112.03 1135.13 1113.75 1135.67Z" fill="#D2D2D2"/><path d="M1095.22 1159.7C1098.88 1157.13 1103.95 1158.84 1105.25 1163.19 1106.03 1165.81 1105.01 1168.72 1102.78 1170.29 1099.12 1172.86 1094.05 1171.15 1092.75 1166.8 1091.97 1164.19 1092.99 1161.28 1095.22 1159.7Z" fill="#F2F2F2"/><path d="M1125.24 1101.67C1126.95 1102.21 1127.91 1104.03 1127.37 1105.73 1126.83 1107.43 1125.01 1108.37 1123.29 1107.83 1121.57 1107.28 1120.61 1105.46 1121.15 1103.76 1121.69 1102.06 1123.52 1101.12 1125.24 1101.67Z" fill="#D2D2D2"/><path d="M1079.22 1130.71C1082.88 1128.13 1087.95 1129.84 1089.25 1134.2 1090.03 1136.81 1089.01 1139.72 1086.78 1141.29 1083.12 1143.87 1078.05 1142.16 1076.75 1137.81 1075.97 1135.19 1076.99 1132.28 1079.22 1130.71Z" fill="#D2D2D2"/></g></svg>