<svg width="480" height="480" xmlns="http://www.w3.org/2000/svg" xmlns:xlink="http://www.w3.org/1999/xlink" xml:space="preserve" overflow="hidden"><g transform="translate(-728 -566)"><path d="M1054.57 751.426C1031.26 728.119 997.154 722.208 968.357 733.672L1072.33 837.637C1083.79 808.841 1077.88 774.733 1054.57 751.426Z" fill="#505050"/><path d="M923.352 779.189C921.885 782.993 920.722 786.882 919.859 790.829L921.68 799.549 947.075 847.604 1002.36 887.882C1010.68 887.429 1018.93 885.676 1026.81 882.64 1026.81 882.64 1040.43 841.946 1005.07 812.245 978.026 789.532 944.55 781.878 930.297 779.697 925.911 779.026 923.352 779.189 923.352 779.189Z" fill="#737373"/><path d="M941.416 864.576C958.15 881.309 980.452 889.071 1002.36 887.881 1002.36 887.881 1005.85 869.31 966.877 844.774 928.687 820.73 919.859 790.828 919.859 790.828 914.225 816.575 921.396 844.557 941.416 864.576Z" fill="#505050"/><path d="M1072.33 837.637C1072.33 837.637 1067.3 803.758 1023.45 765.57 1000.63 745.69 968.358 733.672 968.358 733.672 958.549 737.577 949.355 743.488 941.417 751.426 940.543 752.3 939.7 753.195 938.875 754.1L985.265 812.244 1064.09 853.076C1067.44 848.181 1070.19 843.004 1072.33 837.637Z" fill="#2F2F2F"/><path d="M1054.57 864.576C1058.17 860.983 1061.32 857.124 1064.09 853.076 1064.09 853.076 1046.85 815.744 1010.72 798.101 949.903 768.399 938.874 754.101 938.874 754.101 931.996 761.63 926.83 770.158 923.351 779.19 923.351 779.19 964.047 779.715 968.29 815.074 972.342 848.836 1026.81 882.641 1026.81 882.641 1036.93 878.742 1046.41 872.735 1054.57 864.576Z" fill="#505050"/><path d="M1007.99 841.052C1007.99 844.951 1004.83 848.111 1000.93 848.111 997.031 848.111 993.871 844.951 993.871 841.052 993.871 837.153 997.031 833.993 1000.93 833.993 1004.83 833.993 1007.99 837.153 1007.99 841.052Z" fill="#737373"/><path d="M1043.99 847.754C1043.99 853.602 1039.25 858.342 1033.41 858.342 1027.56 858.342 1022.82 853.602 1022.82 847.754 1022.82 841.906 1027.56 837.166 1033.41 837.166 1039.25 837.166 1043.99 841.906 1043.99 847.754Z" fill="#E1D15A"/><path d="M927.268 733.511C928.945 734.15 929.787 736.028 929.148 737.705 928.509 739.382 926.631 740.224 924.954 739.585 923.276 738.946 922.435 737.068 923.074 735.391 923.713 733.714 925.591 732.872 927.268 733.511Z" fill="#E1D15A"/><path d="M883.651 769.238C887.005 770.516 888.689 774.271 887.411 777.626 886.133 780.981 882.378 782.664 879.023 781.386 875.668 780.108 873.985 776.353 875.263 772.998 876.541 769.643 880.296 767.96 883.651 769.238Z" fill="#505050"/><path d="M902.615 741.08C905.969 742.358 907.653 746.113 906.375 749.468 905.097 752.823 901.341 754.506 897.987 753.228 894.632 751.95 892.948 748.195 894.226 744.84 895.504 741.485 899.26 739.802 902.615 741.08Z" fill="#F2F2F2"/><path d="M868.224 803.431C871.579 804.709 873.263 808.464 871.985 811.819 870.707 815.174 866.951 816.857 863.596 815.579 860.242 814.301 858.558 810.546 859.836 807.191 861.114 803.836 864.87 802.153 868.224 803.431Z" fill="#E1D15A"/><path d="M901.031 836.592C902.497 837.628 902.845 839.656 901.809 841.122 900.773 842.588 898.745 842.936 897.279 841.9 895.814 840.864 895.465 838.836 896.501 837.37 897.537 835.904 899.565 835.556 901.031 836.592Z" fill="#E1D15A"/></g></svg>