<svg width="871" height="871" xmlns="http://www.w3.org/2000/svg" xmlns:xlink="http://www.w3.org/1999/xlink" xml:space="preserve" overflow="hidden"><g transform="translate(-598 -614)"><path d="M1035.31 1040.41C1035.31 995.062 993.579 967.844 963.296 971.159 933.85 980.41 912.487 1007.91 912.487 1040.41 912.487 1072.91 933.85 1100.41 963.296 1109.66 1002.65 1114.82 1035.31 1076.72 1035.31 1040.41Z" fill="#737373"/><path d="M991.414 968.101C981.572 967.258 972.107 968.401 963.35 971.143 963.319 971.152 963.319 971.168 963.35 971.177 992.766 980.444 1014.1 1007.93 1014.1 1040.41 1014.1 1072.89 992.766 1100.38 963.35 1109.64 963.319 1109.65 963.319 1109.67 963.35 1109.68 970.209 1111.83 977.502 1112.99 985.071 1112.99 1026.81 1112.99 1060.32 1077.77 1057.49 1035.42 1055.12 999.984 1026.81 971.132 991.414 968.101Z" fill="#505050"/><path d="M1124.95 1124.81C1124.95 1131.32 1119.67 1136.6 1113.16 1136.6 1106.64 1136.6 1101.36 1131.32 1101.36 1124.81 1101.36 1118.29 1106.64 1113.01 1113.16 1113.01 1119.67 1113.01 1124.95 1118.29 1124.95 1124.81Z" fill="#E1D15A"/><path d="M1155.08 1082.37C1155.08 1085.63 1152.44 1088.27 1149.18 1088.27 1145.92 1088.27 1143.28 1085.63 1143.28 1082.37 1143.28 1079.11 1145.92 1076.47 1149.18 1076.47 1152.44 1076.47 1155.08 1079.11 1155.08 1082.37Z" fill="#D2D2D2"/><path d="M975.789 1006.78C979.182 999.604 988.8 1002.66 987.435 1010.47 984.042 1017.65 974.424 1014.59 975.789 1006.78Z" fill="#505050"/><path d="M974.145 1055.39C980.93 1041.04 1000.17 1047.15 997.439 1062.78 990.652 1077.13 971.416 1071.02 974.145 1055.39Z" fill="#505050"/><path d="M1019.66 1025.36C1026.45 1011.02 1045.68 1017.12 1042.96 1032.75 1036.17 1047.1 1016.94 1041 1019.66 1025.36Z" fill="#2F2F2F"/></g></svg>