<svg width="480" height="480" xmlns="http://www.w3.org/2000/svg" xmlns:xlink="http://www.w3.org/1999/xlink" xml:space="preserve" overflow="hidden"><g transform="translate(-770 -454)"><path d="M1113.51 688.499C1113.51 691.264 1113.39 694 1113.14 696.702 1113.12 696.918 1110.42 698.435 1110.4 698.65 1109.8 704.812 1109.33 707.316 1107.55 713.05 1107.45 713.368 1109.28 715.859 1109.17 716.175 1107.04 722.787 1104.16 729.064 1100.64 734.908 1100.56 735.027 1097.52 735.832 1097.45 735.95 1094.49 740.804 1092.69 742.707 1088.9 746.9 1088.71 747.11 1089.88 749.283 1089.69 749.491 1085.86 753.642 1081.65 757.432 1077.11 760.805 1076.95 760.925 1073.11 761.231 1072.95 761.35 1069.78 763.673 1069.62 763.552 1066.15 765.45 1065.93 765.568 1066.22 767.739 1066 767.856 1053.35 774.647 1038.88 778.499 1023.51 778.499 1002.15 778.499 982.534 771.061 967.102 758.633 966.891 758.463 967.758 756.772 967.548 756.6 965.002 754.511 964.75 754.501 962.448 752.15 962.283 751.981 958.864 751.118 958.7 750.948 957.089 749.276 955.542 747.542 954.062 745.75 953.917 745.575 955.44 743.126 955.297 742.95 951.789 738.633 949.967 737.025 947.297 732.1 947.156 731.84 944.055 730.813 943.916 730.552 942.473 727.826 941.166 725.017 940.003 722.135 939.918 721.923 941.38 719.813 941.296 719.6 939.351 714.667 938.75 712.065 937.696 706.75 937.649 706.511 935.134 705.626 935.088 705.387 934.05 699.917 933.506 694.271 933.506 688.499 933.506 688.316 933.507 688.133 933.508 687.95 933.511 687.532 936.388 685.266 936.396 684.85 936.523 678.392 936.778 675.906 938.196 669.85 938.266 669.552 936.017 667.299 936.09 667.002 936.551 665.12 937.072 663.26 937.65 661.427 937.706 661.249 940.527 659.324 940.596 659.151 941.096 657.901 941.546 655.701 942.346 654.351 942.463 654.154 940.837 652.864 940.928 652.654 942.672 648.643 944.699 644.784 946.984 641.101 947.151 640.832 951.676 638.668 951.846 638.4 956.85 630.525 959.815 627.961 966.946 622 967.183 621.802 966.294 619.02 966.533 618.824 982.05 606.12 1001.89 598.498 1023.51 598.498 1047.29 598.498 1068.93 607.727 1085.02 622.8 1085.2 622.973 1084.06 625.175 1084.24 625.35 1089.36 630.224 1091.29 632.145 1095.15 638.1 1095.3 638.334 1099.39 640.091 1099.54 640.327 1100.31 641.54 1101.05 642.772 1101.77 644.024 1101.86 644.189 1100.45 645.234 1100.55 645.4 1102.17 648.292 1102.29 649.222 1103.59 652.3 1103.73 652.622 1106.71 654.127 1106.84 654.451 1107.8 656.784 1108.66 659.167 1109.42 661.594 1109.47 661.78 1108.24 662.964 1108.3 663.15 1109.3 666.437 1109.32 667.715 1109.95 671.15 1109.99 671.409 1112.13 672.76 1112.18 673.019 1113.06 678.048 1113.51 683.22 1113.51 688.499Z" fill="#D2D2D2"/><path d="M937.65 661.447C957.787 656.546 981.378 652.333 1007.89 650.379 1046.11 647.562 1079.71 650.223 1106.86 654.498 1105.38 650.877 1103.68 647.373 1101.76 644.007 1083.34 641.636 1062.59 640.126 1039.89 640.379 1001.2 640.81 967.715 646.233 940.945 652.639 939.701 655.501 938.597 658.439 937.65 661.447Z" fill="#737373"/><path d="M1077.12 760.794C1066.09 758.366 1054.37 756.219 1041.97 754.517 1010.97 750.26 982.848 749.733 958.716 750.955 961.354 753.691 964.165 756.259 967.129 758.644 980.162 758.344 994.107 758.608 1008.85 759.702 1029.56 761.238 1048.67 764.174 1066.02 767.842 1069.9 765.76 1073.61 763.403 1077.12 760.794Z" fill="#E6E6E6"/><path d="M940.017 722.144C959.171 717.098 981.273 712.834 1005.89 710.778 1046.16 707.413 1081.28 710.945 1109.15 716.241 1111.17 710 1112.52 703.46 1113.14 696.705 1091.61 692.811 1066.27 690.05 1037.89 690.409 997.326 690.922 962.476 697.654 935.096 705.369 936.198 711.178 937.856 716.789 940.017 722.144Z" fill="#E1D15A"/><path d="M1089.67 749.51C1093.8 745.033 1097.48 740.138 1100.64 734.893 1083.56 730.782 1064.23 727.375 1042.92 725.633 1005.09 722.54 971.513 725.545 943.927 730.552 946.798 735.974 950.201 741.07 954.077 745.764 968.259 745.04 980.926 744.642 991.868 744.429 1026.58 743.753 1044.74 744.918 1050 745.277 1064.91 746.298 1078.24 747.852 1089.67 749.51Z" fill="#737373"/><path d="M1109.43 661.624C1077.73 656.911 1040.19 651.95 999.126 656.457 976.348 658.957 955.288 662.669 936.104 666.993 934.456 673.714 933.561 680.731 933.518 687.951 964.25 680.22 1000.82 673.815 1042.18 671.873 1067.52 670.684 1090.98 671.346 1112.19 673.056 1111.51 669.154 1110.59 665.336 1109.43 661.624Z" fill="#E6E6E6"/><path d="M966.541 618.826C958.866 625.109 952.251 632.637 946.997 641.099 980.397 636.275 1020.85 633.532 1066.45 636.893 1077.92 637.739 1088.96 638.918 1099.56 640.348 1095.47 633.904 1090.58 628.017 1085.04 622.822 1066.52 619.228 1046.64 616.648 1025.56 616.414 1004.51 616.179 984.778 617.13 966.541 618.826Z" fill="#F2F2F2"/><path d="M1091.75 798.669C1093.47 799.213 1094.43 801.032 1093.89 802.732 1093.35 804.432 1091.52 805.37 1089.8 804.826 1088.09 804.282 1087.13 802.463 1087.67 800.763 1088.21 799.062 1090.03 798.125 1091.75 798.669Z" fill="#D2D2D2"/><path d="M1109.22 762.704C1112.88 760.131 1117.95 761.842 1119.25 766.192 1120.03 768.809 1119.01 771.717 1116.78 773.291 1113.12 775.864 1108.05 774.153 1106.75 769.803 1105.97 767.186 1106.99 764.278 1109.22 762.704Z" fill="#505050"/><path d="M933.745 616.669C935.464 617.213 936.42 619.032 935.882 620.733 935.344 622.433 933.515 623.37 931.796 622.826 930.078 622.283 929.122 620.463 929.66 618.763 930.198 617.063 932.027 616.125 933.745 616.669Z" fill="#D2D2D2"/><path d="M915.224 640.704C918.875 638.131 923.948 639.842 925.249 644.192 926.032 646.809 925.009 649.717 922.776 651.291 919.125 653.864 914.052 652.153 912.751 647.803 911.968 645.186 912.991 642.278 915.224 640.704Z" fill="#F2F2F2"/><path d="M945.236 582.669C946.954 583.213 947.911 585.032 947.373 586.732 946.835 588.432 945.005 589.37 943.287 588.826 941.569 588.282 940.613 586.463 941.151 584.762 941.689 583.062 943.518 582.125 945.236 582.669Z" fill="#D2D2D2"/><path d="M899.224 611.707C902.875 609.134 907.948 610.845 909.249 615.195 910.032 617.812 909.009 620.72 906.776 622.294 903.125 624.867 898.052 623.156 896.751 618.806 895.968 616.188 896.991 613.281 899.224 611.707Z" fill="#D2D2D2"/></g></svg>