<svg width="453" height="454" xmlns="http://www.w3.org/2000/svg" xmlns:xlink="http://www.w3.org/1999/xlink" xml:space="preserve" overflow="hidden"><g transform="translate(2421 392)"><path d="M278.406 202.906C278.406 234.179 253.054 259.531 221.781 259.531 190.508 259.531 165.156 234.179 165.156 202.906 165.156 171.633 190.508 146.281 221.781 146.281 253.054 146.281 278.406 171.633 278.406 202.906Z" stroke="#E4E4E4" stroke-width="4.71875" fill="#D2D2D2" transform="matrix(1 0 0 1.00221 -2421 -392)"/><path d="M339.75 137.788C339.75 148.212 331.299 156.663 320.875 156.663 310.451 156.663 302 148.212 302 137.788 302 127.363 310.451 118.913 320.875 118.913 331.299 118.913 339.75 127.363 339.75 137.788Z" stroke="#E4E4E4" stroke-width="4.71875" fill="#D2D2D2" transform="matrix(1 0 0 1.00221 -2421 -392)"/><path d="M132.125 354.85C132.125 365.274 123.674 373.725 113.25 373.725 102.826 373.725 94.375 365.274 94.375 354.85 94.375 344.426 102.826 335.975 113.25 335.975 123.674 335.975 132.125 344.426 132.125 354.85Z" stroke="#E4E4E4" stroke-width="4.71875" fill="#D2D2D2" transform="matrix(1 0 0 1.00221 -2421 -392)"/><path d="M408.644 123.631C393.072 94.8469 358.625 79.275 312.381 79.275 268.025 79.275 217.534 93.4312 169.875 119.856 67.95 175.066 12.7406 264.25 44.3562 322.291 51.9062 335.031 62.7594 345.884 75.9719 352.491 76.4438 345.884 78.3313 339.75 82.1062 334.559 73.1406 329.369 66.0625 322.291 61.3438 313.325 35.3906 266.138 89.6562 184.975 179.784 135.9 224.612 111.363 272.272 97.6781 313.325 97.6781 352.491 97.6781 380.803 109.947 393.072 132.125 405.341 154.303 400.15 184.975 379.388 217.534 357.209 251.981 319.931 284.541 275.103 309.55 233.578 332.2 190.166 345.412 151.472 347.3 151.944 349.659 152.416 352.019 152.416 354.85 152.416 358.625 151.472 362.4 150.528 366.175 192.525 364.287 239.712 350.603 284.541 326.066 332.2 300.112 371.838 265.194 395.903 227.916 419.025 189.222 424.216 151.944 408.644 123.631Z" stroke="#E4E4E4" stroke-width="4.71875" fill="#D2D2D2" transform="matrix(1 0 0 1.00221 -2421 -392)"/><path d="M345.412 166.572C340.694 170.819 334.559 173.65 328.425 175.066 335.975 202.906 304.359 246.319 254.341 273.688 226.972 288.788 198.188 296.809 173.65 296.809 150.528 296.809 134.484 289.731 127.406 276.991 120.8 265.194 123.159 249.15 133.541 231.691 131.653 220.837 132.125 209.513 134.484 198.659 129.294 204.322 124.103 210.928 119.856 217.534 103.812 243.016 100.509 267.081 110.891 285.956 121.272 304.831 143.45 315.213 173.65 315.213 201.491 315.213 233.578 306.247 263.306 289.731 324.65 256.7 359.097 203.85 345.412 166.572Z" stroke="#E4E4E4" stroke-width="4.71875" fill="#D2D2D2" transform="matrix(1 0 0 1.00221 -2421 -392)"/></g></svg>