<svg width="446" height="446" xmlns="http://www.w3.org/2000/svg" xmlns:xlink="http://www.w3.org/1999/xlink" xml:space="preserve" overflow="hidden"><g transform="translate(-410 -657)"><path d="M628.354 912.521C659.144 912.521 684.104 887.561 684.104 856.771 684.104 825.981 659.144 801.021 628.354 801.021 597.564 801.021 572.604 825.981 572.604 856.771 572.638 887.547 597.578 912.487 628.354 912.521ZM628.354 810.312C654.012 810.312 674.812 831.113 674.812 856.771 674.812 882.429 654.012 903.229 628.354 903.229 602.696 903.229 581.896 882.429 581.896 856.771 581.924 831.124 602.708 810.341 628.354 810.312Z" stroke="#FFFFFF" stroke-width="4.64588" fill="#E1D15A"/><path d="M520.947 935.169C529.742 951.996 549.686 961.451 577.111 961.79L578.653 961.79C608.161 960.866 637.034 952.995 662.928 938.816 721.931 907.968 755.845 858.936 742.958 824.715 740.2 826.142 737.273 827.216 734.247 827.911 745.355 857.291 712.574 902.384 658.626 930.584 631.016 945.042 602.138 952.814 577.227 952.498 553.384 952.206 536.343 944.521 529.18 930.867 519.219 911.819 529.941 884.873 554.202 860.339 554.146 859.145 554.021 857.974 554.021 856.771 554.046 853.467 554.291 850.169 554.755 846.898 522.378 876.121 507.957 910.323 520.947 935.169Z" stroke="#FFFFFF" stroke-width="4.64588" fill="#E1D15A"/><path d="M725.917 810.312C736.18 810.312 744.5 801.992 744.5 791.729 744.5 781.466 736.18 773.146 725.917 773.146 715.654 773.146 707.333 781.466 707.333 791.729 707.333 801.992 715.654 810.312 725.917 810.312ZM725.917 782.438C731.048 782.438 735.208 786.597 735.208 791.729 735.208 796.861 731.048 801.021 725.917 801.021 720.785 801.021 716.625 796.861 716.625 791.729 716.625 786.597 720.785 782.438 725.917 782.438Z" stroke="#FFFFFF" stroke-width="4.64588" fill="#E1D15A"/><path d="M806.053 778.99C791.437 752.532 759.436 737.982 715.896 737.982L715.18 737.982C672.29 738.139 623.109 752.342 576.702 777.982 480.045 831.377 425.656 918.714 455.459 972.666 462.246 984.647 472.411 994.365 484.686 1000.61 485.095 997.415 485.919 994.291 487.139 991.314 477.294 985.937 469.141 977.924 463.594 968.173 436.263 918.704 489.021 837.035 581.194 786.112 626.259 761.22 673.855 747.427 715.217 747.273L715.9 747.273C755.896 747.273 785.012 760.119 797.918 783.483 825.245 832.952 772.491 914.621 680.318 965.544 639.648 988.011 596.934 1001.4 558.597 1003.91 558.597 1004.42 558.676 1004.92 558.676 1005.44 558.672 1008.07 558.389 1010.7 557.83 1013.27 597.887 1010.89 642.501 997.056 684.82 973.674 781.472 920.279 835.86 832.942 806.053 778.99Z" stroke="#FFFFFF" stroke-width="4.64588" fill="#E1D15A"/><path d="M521.5 986.854C511.237 986.854 502.917 995.174 502.917 1005.44 502.917 1015.7 511.237 1024.02 521.5 1024.02 531.763 1024.02 540.083 1015.7 540.083 1005.44 540.083 995.174 531.763 986.854 521.5 986.854ZM521.5 1014.73C516.368 1014.73 512.208 1010.57 512.208 1005.44 512.208 1000.31 516.368 996.146 521.5 996.146 526.632 996.146 530.792 1000.31 530.792 1005.44 530.792 1010.57 526.632 1014.73 521.5 1014.73Z" stroke="#FFFFFF" stroke-width="4.64588" fill="#E1D15A"/></g></svg>