<svg width="446" height="447" xmlns="http://www.w3.org/2000/svg" xmlns:xlink="http://www.w3.org/1999/xlink" xml:space="preserve" overflow="hidden"><g transform="translate(2000 592)"><path d="M218.354 255.521C249.144 255.521 274.104 230.561 274.104 199.771 274.104 168.981 249.144 144.021 218.354 144.021 187.564 144.021 162.604 168.981 162.604 199.771 162.638 230.547 187.578 255.487 218.354 255.521ZM218.354 153.312C244.012 153.312 264.812 174.113 264.812 199.771 264.812 225.429 244.012 246.229 218.354 246.229 192.696 246.229 171.896 225.429 171.896 199.771 171.924 174.124 192.708 153.341 218.354 153.312Z" fill="#D2D2D2" transform="matrix(1 0 0 1.00224 -2000 -592)"/><path d="M110.947 278.169C119.742 294.996 139.686 304.451 167.111 304.79L168.653 304.79C198.161 303.866 227.034 295.995 252.928 281.816 311.931 250.968 345.845 201.936 332.958 167.715 330.2 169.142 327.273 170.216 324.247 170.911 335.355 200.291 302.574 245.384 248.626 273.584 221.016 288.042 192.138 295.814 167.227 295.498 143.384 295.206 126.343 287.521 119.18 273.867 109.219 254.819 119.941 227.873 144.202 203.339 144.146 202.145 144.021 200.974 144.021 199.771 144.046 196.467 144.291 193.169 144.755 189.898 112.378 219.121 97.9574 253.323 110.947 278.169Z" fill="#D2D2D2" transform="matrix(1 0 0 1.00224 -2000 -592)"/><path d="M315.917 153.312C326.18 153.312 334.5 144.992 334.5 134.729 334.5 124.466 326.18 116.146 315.917 116.146 305.654 116.146 297.333 124.466 297.333 134.729 297.333 144.992 305.654 153.312 315.917 153.312ZM315.917 125.438C321.048 125.438 325.208 129.597 325.208 134.729 325.208 139.861 321.048 144.021 315.917 144.021 310.785 144.021 306.625 139.861 306.625 134.729 306.625 129.597 310.785 125.438 315.917 125.438Z" fill="#D2D2D2" transform="matrix(1 0 0 1.00224 -2000 -592)"/><path d="M396.053 121.99C381.437 95.5323 349.436 80.9815 305.896 80.9815L305.18 80.9815C262.29 81.1395 213.109 95.3418 166.702 120.982 70.0452 174.377 15.6565 261.714 45.4595 315.666 52.2461 327.647 62.4112 337.365 74.6864 343.606 75.0948 340.415 75.9194 337.291 77.1394 334.314 67.2944 328.937 59.1415 320.924 53.5943 311.173 26.2629 261.704 79.021 180.035 171.194 129.112 216.259 104.22 263.855 90.4265 305.217 90.2732L305.9 90.2732C345.896 90.2732 375.012 103.119 387.918 126.483 415.245 175.952 362.491 257.621 270.318 308.544 229.648 331.011 186.934 344.396 148.597 346.914 148.597 347.425 148.676 347.922 148.676 348.438 148.672 351.071 148.389 353.697 147.83 356.27 187.887 353.887 232.501 340.056 274.82 316.674 371.472 263.279 425.86 175.942 396.053 121.99Z" fill="#D2D2D2" transform="matrix(1 0 0 1.00224 -2000 -592)"/><path d="M111.5 329.854C101.237 329.854 92.9167 338.174 92.9167 348.438 92.9167 358.701 101.237 367.021 111.5 367.021 121.763 367.021 130.083 358.701 130.083 348.438 130.083 338.174 121.763 329.854 111.5 329.854ZM111.5 357.729C106.368 357.729 102.208 353.569 102.208 348.438 102.208 343.306 106.368 339.146 111.5 339.146 116.632 339.146 120.792 343.306 120.792 348.438 120.792 353.569 116.632 357.729 111.5 357.729Z" fill="#D2D2D2" transform="matrix(1 0 0 1.00224 -2000 -592)"/></g></svg>