<svg width="563" height="564" xmlns="http://www.w3.org/2000/svg" xmlns:xlink="http://www.w3.org/1999/xlink" xml:space="preserve" overflow="hidden"><defs><clipPath id="clip0"><path d="M1117.94 293.212 646.721 201.798 555.307 673.013 1026.52 764.427Z" fill-rule="evenodd" clip-rule="evenodd"/></clipPath><clipPath id="clip1"><path d="M1117.94 293.212 646.721 201.798 555.307 673.013 1026.52 764.427Z" fill-rule="evenodd" clip-rule="evenodd"/></clipPath><clipPath id="clip2"><path d="M1117.94 293.212 646.721 201.798 555.307 673.013 1026.52 764.427Z" fill-rule="evenodd" clip-rule="evenodd"/></clipPath></defs><g transform="translate(-555 -201)"><g clip-path="url(#clip0)"><g clip-path="url(#clip1)"><g clip-path="url(#clip2)"><path d="M194 355C194 364.941 185.941 373 176 373 166.059 373 158 364.941 158 355 158 345.059 166.059 337 176 337 185.941 337 194 345.059 194 355Z" fill="#D2D2D2" transform="matrix(-0.981698 -0.190445 -0.190445 0.981698 1117.94 293.212)"/><path d="M116 181.5C116 185.09 113.09 188 109.5 188 105.91 188 103 185.09 103 181.5 103 177.91 105.91 175 109.5 175 113.09 175 116 177.91 116 181.5Z" fill="#D2D2D2" transform="matrix(-0.981698 -0.190445 -0.190445 0.981698 1117.94 293.212)"/><path d="M222 344.5C222 348.09 219.09 351 215.5 351 211.91 351 209 348.09 209 344.5 209 340.91 211.91 338 215.5 338 219.09 338 222 340.91 222 344.5Z" fill="#D2D2D2" transform="matrix(-0.981698 -0.190445 -0.190445 0.981698 1117.94 293.212)"/><path d="M378 154C378 161.18 372.18 167 365 167 357.82 167 352 161.18 352 154 352 146.82 357.82 141 365 141 372.18 141 378 146.82 378 154Z" fill="#E1D15A" transform="matrix(-0.981698 -0.190445 -0.190445 0.981698 1117.94 293.212)"/><path d="M252 382C252 389.18 246.18 395 239 395 231.82 395 226 389.18 226 382 226 374.82 231.82 369 239 369 246.18 369 252 374.82 252 382Z" fill="#D2D2D2" transform="matrix(-0.981698 -0.190445 -0.190445 0.981698 1117.94 293.212)"/><path d="M212 136C202.151 126.62 190.204 121.408 190.204 121.408 182.972 125.736 176.149 131.009 169.918 137.24 157.659 149.5 149.1 164.047 144.183 179.501 144.183 179.501 145.242 189.743 149.933 194.733 182.266 229.133 240.333 283.333 274.466 300.866 281.686 304.575 292.693 304.248 292.693 304.248 298.749 301.073 304.553 297.252 310.022 292.812 310.022 292.812 308.999 277.999 303.999 267.999 283 226 233 156 212 136Z" fill="#F2F2F2" transform="matrix(-0.981698 -0.190445 -0.190445 0.981698 1117.94 293.212)"/><path d="M169.919 285.491C194.033 309.605 226.97 319.499 258.34 315.205 258.34 315.205 260.571 305.477 256.333 297.4 242.2 270.467 185.4 220.333 155.533 201.667 146.937 196.294 140.204 197.07 140.204 197.07 135.91 228.44 145.806 261.378 169.919 285.491Z" fill="#D2D2D2" transform="matrix(-0.981698 -0.190445 -0.190445 0.981698 1117.94 293.212)"/><path d="M318.167 137.238C288.42 107.491 245.251 99.385 208.163 112.867 208.163 112.867 205.917 120.759 211 132.867 229.133 176.067 281.933 236.6 313.4 258.467 323.179 265.262 333.397 266.168 333.397 266.168 358.214 225.781 353.155 172.225 318.167 137.238Z" fill="#D2D2D2" transform="matrix(-0.981698 -0.190445 -0.190445 0.981698 1117.94 293.212)"/><path d="M144.184 179.501C142.353 185.256 141.016 191.132 140.204 197.07L258.34 315.205C270.203 313.58 281.841 309.936 292.693 304.249L144.184 179.501Z" fill="#737373" transform="matrix(-0.981698 -0.190445 -0.190445 0.981698 1117.94 293.212)"/><path d="M208.163 112.867C202.394 114.963 196.776 117.588 191.374 120.726 190.984 120.953 190.592 121.177 190.204 121.409L210.571 162.142C228.757 198.514 252.237 231.986 280.244 261.468L310.023 292.814C310.25 292.63 310.474 292.442 310.699 292.256 313.266 290.136 315.766 287.892 318.168 285.489 324.118 279.538 329.177 273.038 333.397 266.168L208.163 112.867Z" fill="#E6E6E6" transform="matrix(-0.981698 -0.190445 -0.190445 0.981698 1117.94 293.212)"/><path d="M334.13 264.805C332.053 268.33 329.729 271.749 327.206 275.063 336.797 292.351 339.948 305.343 334.582 310.708 328.997 316.293 315.136 312.634 296.783 302.104 274.66 289.412 246 266.726 217.341 238.066 188.681 209.407 165.995 180.747 153.302 158.624 142.773 140.271 139.114 126.412 144.699 120.826 150.064 115.461 163.056 118.611 180.344 128.202 183.657 125.677 187.075 123.353 190.601 121.277 150.409 91.986 118.234 78.396 107.686 88.944 96.614 100.017 112.138 134.918 144.498 177.901 161.192 200.079 182.364 224.404 206.683 248.723 231.004 273.044 255.329 294.215 277.506 310.908 320.491 343.269 355.392 358.793 366.464 347.72 377.013 337.172 363.42 304.996 334.13 264.805Z" fill="#E1D15A" transform="matrix(-0.981698 -0.190445 -0.190445 0.981698 1117.94 293.212)"/></g></g></g></g></svg>