<svg width="480" height="480" xmlns="http://www.w3.org/2000/svg" xmlns:xlink="http://www.w3.org/1999/xlink" xml:space="preserve" overflow="hidden"><g transform="translate(-1848 -615)"><path d="M2163.53 795.469C2097.26 795.469 2043.53 849.195 2043.53 915.469 2043.53 981.743 2097.26 1035.47 2163.53 1035.47 2229.8 1035.47 2283.53 981.743 2283.53 915.469 2283.53 849.195 2229.8 795.469 2163.53 795.469ZM2163.53 975.469C2130.39 975.469 2103.53 948.606 2103.53 915.469 2103.53 882.332 2130.39 855.469 2163.53 855.469 2196.67 855.469 2223.53 882.332 2223.53 915.469 2223.53 948.606 2196.67 975.469 2163.53 975.469Z" fill="#D2D2D2"/><path d="M1951.97 691.346 1908.16 735.159C1906.99 737.186 1905.88 739.239 1904.83 741.317L1958.13 688.017C1956.06 689.062 1954 690.173 1951.97 691.346Z" fill="#E4E4E4"/><path d="M1973.88 681.464 1898.28 757.06C1897.82 758.433 1897.38 759.812 1896.97 761.198L1978.01 680.154C1976.63 680.563 1975.25 681.004 1973.88 681.464Z" fill="#E4E4E4"/><path d="M1990.09 677.27 1894.09 773.27C1893.88 774.404 1893.68 775.54 1893.51 776.678L1993.5 676.689C1992.36 676.867 1991.22 677.06 1990.09 677.27Z" fill="#E4E4E4"/><path d="M2003.85 675.529 1892.34 787.029C1892.28 788.026 1892.22 789.024 1892.18 790.023L2006.84 675.363C2005.84 675.406 2004.84 675.461 2003.85 675.529Z" fill="#E4E4E4"/><path d="M2016.07 675.32 1892.14 799.256C1892.17 800.159 1892.21 801.062 1892.26 801.964L2018.78 675.44C2017.88 675.389 2016.98 675.35 2016.07 675.32Z" fill="#E4E4E4"/><path d="M2027.2 676.205 1893.02 810.388C1893.13 811.219 1893.24 812.049 1893.36 812.877L2029.69 676.544C2028.86 676.422 2028.04 676.31 2027.2 676.205Z" fill="#E4E4E4"/><path d="M2037.47 677.955 1894.77 820.656C1894.94 821.426 1895.11 822.193 1895.3 822.96L2039.78 678.479C2039.01 678.298 2038.24 678.121 2037.47 677.955Z" fill="#E4E4E4"/><path d="M2047.01 680.431 1897.25 830.198C1897.47 830.918 1897.69 831.638 1897.92 832.355L2049.17 681.102C2048.45 680.87 2047.73 680.649 2047.01 680.431Z" fill="#E4E4E4"/><path d="M2055.93 683.529 1900.34 839.117C1900.61 839.791 1900.88 840.464 1901.16 841.135L2057.95 684.34C2057.28 684.063 2056.61 683.794 2055.93 683.529Z" fill="#E4E4E4"/><path d="M2064.3 687.183 1904 847.481C1904.31 848.114 1904.62 848.745 1904.94 849.373L2066.19 688.119C2065.56 687.801 2064.93 687.489 2064.3 687.183Z" fill="#E4E4E4"/><path d="M2072.15 691.348 1908.17 855.333C1908.51 855.928 1908.86 856.52 1909.21 857.111L2073.93 692.399C2073.34 692.043 2072.75 691.693 2072.15 691.348Z" fill="#E4E4E4"/><path d="M2079.53 695.99 1912.81 862.71C1913.19 863.269 1913.57 863.827 1913.96 864.381L2081.2 697.147C2080.64 696.755 2080.08 696.371 2079.53 695.99Z" fill="#E4E4E4"/><path d="M2086.45 701.082 1917.9 869.635C1918.31 870.16 1918.73 870.686 1919.16 871.205L2088.02 702.34C2087.5 701.914 2086.98 701.498 2086.45 701.082Z" fill="#E4E4E4"/><path d="M2092.94 706.606 1923.42 876.128C1923.87 876.62 1924.32 877.11 1924.78 877.596L2094.41 707.966C2093.93 707.507 2093.44 707.055 2092.94 706.606Z" fill="#E4E4E4"/><path d="M2099.02 712.55 1929.37 882.202C1929.85 882.663 1930.34 883.112 1930.83 883.564L2100.38 714.016C2099.93 713.526 2099.48 713.035 2099.02 712.55Z" fill="#E4E4E4"/><path d="M2104.66 718.922 1935.74 887.847C1936.26 888.275 1936.78 888.695 1937.3 889.113L2105.93 720.484C2105.51 719.961 2105.09 719.44 2104.66 718.922Z" fill="#E4E4E4"/><path d="M2109.88 725.722 1942.54 893.065C1943.09 893.458 1943.64 893.848 1944.2 894.231L2111.05 727.384C2110.67 726.827 2110.27 726.273 2109.88 725.722Z" fill="#E4E4E4"/><path d="M2114.66 732.965 1949.78 897.84C1950.37 898.197 1950.96 898.553 1951.55 898.899L2115.72 734.734C2115.37 734.141 2115.01 733.553 2114.66 732.965Z" fill="#E4E4E4"/><path d="M2118.96 740.676 1957.49 902.146C1958.12 902.466 1958.75 902.783 1959.38 903.091L2119.91 742.56C2119.6 741.929 2119.28 741.302 2118.96 740.676Z" fill="#E4E4E4"/><path d="M2122.77 748.886 1965.7 905.953C1966.37 906.232 1967.04 906.507 1967.71 906.773L2123.59 750.894C2123.32 750.223 2123.05 749.554 2122.77 748.886Z" fill="#E4E4E4"/><path d="M2126.04 757.637 1974.45 909.22C1975.17 909.455 1975.88 909.681 1976.6 909.902L2126.72 759.784C2126.5 759.067 2126.27 758.351 2126.04 757.637Z" fill="#E4E4E4"/><path d="M2128.7 766.99 1983.81 911.885C1984.57 912.069 1985.34 912.247 1986.1 912.416L2129.23 769.286C2129.06 768.52 2128.89 767.754 2128.7 766.99Z" fill="#E4E4E4"/><path d="M2130.67 777.037 1993.85 913.856C1994.68 913.982 1995.5 914.098 1996.33 914.207L2131.02 779.514C2130.91 778.688 2130.8 777.862 2130.67 777.037Z" fill="#E4E4E4"/><path d="M2131.83 787.898 2004.71 915.012C2005.61 915.067 2006.51 915.112 2007.41 915.146L2131.96 790.591C2131.93 789.693 2131.88 788.795 2131.83 787.898Z" fill="#E4E4E4"/><path d="M2131.82 802.753C2131.88 801.761 2131.93 800.769 2131.97 799.776L2016.59 915.151C2017.59 915.114 2018.58 915.064 2019.57 915.003L2131.82 802.753Z" fill="#E4E4E4"/><path d="M2033.22 913.366 2130.18 816.407C2130.38 815.281 2130.57 814.153 2130.74 813.022L2029.84 913.922C2030.97 913.754 2032.1 913.567 2033.22 913.366Z" fill="#E4E4E4"/><path d="M2049.25 909.362 2126.18 832.429C2126.62 831.081 2127.02 829.725 2127.41 828.365L2045.18 910.597C2046.54 910.209 2047.9 909.8 2049.25 909.362Z" fill="#E4E4E4"/><path d="M2070.59 900.039 2116.85 853.771C2117.94 851.822 2118.97 849.848 2119.94 847.854L2064.67 903.129C2066.66 902.155 2068.64 901.128 2070.59 900.039Z" fill="#E4E4E4"/><path d="M1931.79 1035 1931.33 1035C1910.75 1035 1894.06 1018.32 1894.06 997.732L1894.06 997.268C1894.06 976.686 1910.75 960 1931.33 960L1931.79 960C1952.38 960 1969.06 976.685 1969.06 997.268L1969.06 997.732C1969.06 1018.32 1952.38 1035 1931.79 1035Z" fill="#E1D15A"/></g></svg>