<svg width="480" height="480" xmlns="http://www.w3.org/2000/svg" xmlns:xlink="http://www.w3.org/1999/xlink" xml:space="preserve" overflow="hidden"><g transform="translate(-1729 -978)"><path d="M2112.5 1363.41 2136.87 1339.04 2141.25 1331.83 2105.29 1367.79 2112.5 1363.41Z" fill="#D2D2D2"/><path d="M2093.23 1373.25 2146.71 1319.76 2148.16 1315.49 2088.95 1374.7 2093.23 1373.25Z" fill="#D2D2D2"/><path d="M2080.08 1376.97 2150.43 1306.62C2150.66 1305.48 2150.86 1304.33 2151.04 1303.18L2076.64 1377.58C2077.79 1377.4 2078.94 1377.2 2080.08 1376.97Z" fill="#D2D2D2"/><path d="M2069.15 1378.47 2151.93 1295.69C2152.01 1294.68 2152.08 1293.67 2152.13 1292.67L2066.12 1378.67C2067.13 1378.62 2068.14 1378.55 2069.15 1378.47Z" fill="#D2D2D2"/><path d="M2059.5 1378.7 2152.16 1286.04C2152.13 1285.13 2152.09 1284.23 2152.04 1283.33L2056.79 1378.58C2057.69 1378.63 2058.59 1378.67 2059.5 1378.7Z" fill="#D2D2D2"/><path d="M2050.76 1378.01 2151.47 1277.3C2151.36 1276.47 2151.25 1275.64 2151.12 1274.81L2048.27 1377.66C2049.1 1377.79 2049.93 1377.9 2050.76 1378.01Z" fill="#D2D2D2"/><path d="M2042.73 1376.61 2150.07 1269.27C2149.9 1268.5 2149.74 1267.73 2149.55 1266.96L2040.42 1376.09C2041.19 1376.28 2041.96 1376.44 2042.73 1376.61Z" fill="#D2D2D2"/><path d="M2035.28 1374.63 2148.09 1261.82C2147.87 1261.1 2147.64 1260.39 2147.4 1259.68L2033.14 1373.94C2033.85 1374.18 2034.56 1374.41 2035.28 1374.63Z" fill="#D2D2D2"/><path d="M2028.32 1372.16 2145.62 1254.86C2145.35 1254.2 2145.05 1253.55 2144.76 1252.89L2026.35 1371.3C2027.01 1371.59 2027.66 1371.89 2028.32 1372.16Z" fill="#D2D2D2"/><path d="M2021.85 1369.2 2142.66 1248.39C2142.34 1247.77 2142.04 1247.14 2141.71 1246.52L2019.98 1368.25C2020.6 1368.58 2021.23 1368.88 2021.85 1369.2Z" fill="#D2D2D2"/><path d="M2015.77 1365.85 2139.31 1242.31C2138.96 1241.72 2138.59 1241.15 2138.23 1240.57L2014.03 1364.77C2014.61 1365.13 2015.19 1365.5 2015.77 1365.85Z" fill="#D2D2D2"/><path d="M2010.08 1362.11 2135.57 1236.62C2135.18 1236.07 2134.79 1235.53 2134.38 1234.98L2008.44 1360.92C2008.99 1361.33 2009.54 1361.72 2010.08 1362.11Z" fill="#D2D2D2"/><path d="M2129.84 1230.1 2003.23 1356.7C2003.74 1357.14 2004.24 1357.58 2004.76 1358.01L2131.25 1231.52 2129.84 1230.1Z" fill="#D2D2D2"/><path d="M2125.11 1225.4 1998.35 1352.16C1998.43 1352.24 1998.5 1352.32 1998.58 1352.4 1998.98 1352.8 1999.39 1353.16 1999.79 1353.55L2126.52 1226.82 2125.11 1225.4Z" fill="#D2D2D2"/><path d="M2120.38 1220.7 1993.84 1347.24C1994.28 1347.75 1994.7 1348.26 1995.15 1348.76L2121.8 1222.11 2120.38 1220.7Z" fill="#D2D2D2"/><path d="M1990.88 1343.6 2117.06 1217.42C2116.53 1217.01 2116.01 1216.58 2115.47 1216.19L1989.65 1342.01C1990.04 1342.55 1990.47 1343.07 1990.88 1343.6Z" fill="#D2D2D2"/><path d="M1986.94 1338.11 2111.57 1213.48C2111 1213.1 2110.41 1212.76 2109.83 1212.39L1985.86 1336.37C1986.22 1336.95 1986.57 1337.54 1986.94 1338.11Z" fill="#D2D2D2"/><path d="M1983.41 1332.22 2105.68 1209.95C2105.07 1209.61 2104.47 1209.27 2103.85 1208.95L1982.41 1330.39C1982.73 1331.01 1983.08 1331.61 1983.41 1332.22Z" fill="#D2D2D2"/><path d="M1980.25 1325.95 2099.41 1206.79C2098.75 1206.5 2098.09 1206.21 2097.43 1205.94L1979.4 1323.97C1979.68 1324.63 1979.96 1325.29 1980.25 1325.95Z" fill="#D2D2D2"/><path d="M1977.53 1319.24 2092.7 1204.07C2092 1203.82 2091.29 1203.59 2090.59 1203.35L1976.81 1317.13C1977.05 1317.83 1977.28 1318.54 1977.53 1319.24Z" fill="#D2D2D2"/><path d="M1975.3 1312.05 2085.51 1201.84C2084.76 1201.64 2084.01 1201.43 2083.26 1201.25L1974.71 1309.8C1974.89 1310.55 1975.1 1311.3 1975.3 1312.05Z" fill="#D2D2D2"/><path d="M1973.59 1304.32 2077.78 1200.13C2076.98 1199.99 2076.17 1199.84 2075.36 1199.72L1973.19 1301.9C1973.3 1302.71 1973.45 1303.51 1973.59 1304.32Z" fill="#D2D2D2"/><path d="M1972.53 1295.96 2069.42 1199.07C2068.54 1199 2067.66 1198.93 2066.78 1198.88L1972.34 1293.32C1972.39 1294.2 1972.46 1295.08 1972.53 1295.96Z" fill="#D2D2D2"/><path d="M1972.27 1286.79 2060.25 1198.81C2059.27 1198.83 2058.3 1198.85 2057.33 1198.91L1972.37 1283.86C1972.31 1284.84 1972.29 1285.81 1972.27 1286.79Z" fill="#D2D2D2"/><path d="M1973.06 1276.57 2050.03 1199.6C2048.91 1199.75 2047.79 1199.94 2046.67 1200.13L1973.59 1273.21C1973.4 1274.33 1973.21 1275.45 1973.06 1276.57Z" fill="#D2D2D2"/><path d="M1975.51 1264.69 2038.16 1202.05C2036.8 1202.42 2035.45 1202.83 2034.1 1203.27L1976.73 1260.64C1976.29 1261.98 1975.88 1263.33 1975.51 1264.69Z" fill="#D2D2D2"/><path d="M1981.2 1249.57 2023.04 1207.74 2017.02 1210.92 1984.38 1243.56 1981.2 1249.57Z" fill="#D2D2D2"/><path d="M1862.77 1151.77 1862.77 1151.77C1889.13 1125.41 1931.87 1125.41 1958.23 1151.77L1958.23 1151.77C1984.59 1178.13 1984.59 1220.87 1958.23 1247.23L1958.23 1247.23C1931.87 1273.59 1889.13 1273.59 1862.77 1247.23L1862.77 1247.23C1836.41 1220.87 1836.41 1178.13 1862.77 1151.77Z" fill="#F2F2F2"/><path d="M1999.55 1317.34 1999.55 1317.34C1979.05 1296.84 1979.05 1263.6 1999.55 1243.1L1999.55 1243.1C2020.05 1222.59 2053.29 1222.59 2073.79 1243.1L2073.79 1243.1C2094.3 1263.6 2094.3 1296.84 2073.79 1317.34L2073.79 1317.34C2053.29 1337.85 2020.05 1337.85 1999.55 1317.34Z" fill="#E1D15A"/><path d="M2045.73 1173 2045.27 1173C2024.69 1173 2008 1156.31 2008 1135.73L2008 1135.27C2008 1114.69 2024.69 1098 2045.27 1098L2045.73 1098C2066.31 1098 2083 1114.69 2083 1135.27L2083 1135.73C2083 1156.31 2066.31 1173 2045.73 1173Z" fill="#D2D2D2"/><path d="M1981.48 1397 1980.52 1397C1972.5 1397 1966 1390.5 1966 1382.48L1966 1381.52C1966 1373.5 1972.5 1367 1980.52 1367L1981.48 1367C1989.5 1367 1996 1373.5 1996 1381.52L1996 1382.48C1996 1390.5 1989.5 1397 1981.48 1397Z" fill="#E6E6E6"/><path d="M1881.62 1246.75C1881.62 1249.86 1879.11 1252.38 1876 1252.38 1872.89 1252.38 1870.38 1249.86 1870.38 1246.75 1870.38 1243.64 1872.89 1241.12 1876 1241.12 1879.11 1241.12 1881.62 1243.64 1881.62 1246.75Z" fill="#D2D2D2"/><path d="M1881.62 1218.62C1881.62 1221.73 1879.11 1224.25 1876 1224.25 1872.89 1224.25 1870.38 1221.73 1870.38 1218.62 1870.38 1215.52 1872.89 1213 1876 1213 1879.11 1213 1881.62 1215.52 1881.62 1218.62Z" fill="#D2D2D2"/><path d="M1859.79 1221.5C1859.79 1224.61 1857.27 1227.12 1854.16 1227.12 1851.06 1227.12 1848.54 1224.61 1848.54 1221.5 1848.54 1218.39 1851.06 1215.88 1854.16 1215.88 1857.27 1215.88 1859.79 1218.39 1859.79 1221.5Z" fill="#D2D2D2"/><path d="M1839.44 1229.93C1839.44 1233.04 1836.92 1235.55 1833.81 1235.55 1830.71 1235.55 1828.19 1233.04 1828.19 1229.93 1828.19 1226.82 1830.71 1224.3 1833.81 1224.3 1836.92 1224.3 1839.44 1226.82 1839.44 1229.93Z" fill="#D2D2D2"/><path d="M1821.96 1243.34C1821.96 1246.44 1819.44 1248.96 1816.34 1248.96 1813.23 1248.96 1810.71 1246.44 1810.71 1243.34 1810.71 1240.23 1813.23 1237.71 1816.34 1237.71 1819.44 1237.71 1821.96 1240.23 1821.96 1243.34Z" fill="#D2D2D2"/><path d="M1808.55 1260.81C1808.55 1263.92 1806.04 1266.44 1802.93 1266.44 1799.82 1266.44 1797.3 1263.92 1797.3 1260.81 1797.3 1257.71 1799.82 1255.19 1802.93 1255.19 1806.04 1255.19 1808.55 1257.71 1808.55 1260.81Z" fill="#D2D2D2"/><path d="M1800.12 1281.16C1800.12 1284.27 1797.61 1286.79 1794.5 1286.79 1791.39 1286.79 1788.88 1284.27 1788.88 1281.16 1788.88 1278.06 1791.39 1275.54 1794.5 1275.54 1797.61 1275.54 1800.12 1278.06 1800.12 1281.16Z" fill="#D2D2D2"/><path d="M1797.25 1303C1797.25 1306.11 1794.73 1308.62 1791.62 1308.62 1788.52 1308.62 1786 1306.11 1786 1303 1786 1299.89 1788.52 1297.38 1791.62 1297.38 1794.73 1297.38 1797.25 1299.89 1797.25 1303Z" fill="#D2D2D2"/><path d="M1800.12 1324.84C1800.12 1327.94 1797.61 1330.46 1794.5 1330.46 1791.39 1330.46 1788.88 1327.94 1788.88 1324.84 1788.88 1321.73 1791.39 1319.21 1794.5 1319.21 1797.61 1319.21 1800.12 1321.73 1800.12 1324.84Z" fill="#D2D2D2"/><path d="M1808.55 1345.19C1808.55 1348.29 1806.04 1350.81 1802.93 1350.81 1799.82 1350.81 1797.3 1348.29 1797.3 1345.19 1797.3 1342.08 1799.82 1339.56 1802.93 1339.56 1806.04 1339.56 1808.55 1342.08 1808.55 1345.19Z" fill="#D2D2D2"/><path d="M1821.96 1362.66C1821.96 1365.77 1819.44 1368.29 1816.34 1368.29 1813.23 1368.29 1810.71 1365.77 1810.71 1362.66 1810.71 1359.56 1813.23 1357.04 1816.34 1357.04 1819.44 1357.04 1821.96 1359.56 1821.96 1362.66Z" fill="#D2D2D2"/><path d="M1839.44 1376.07C1839.44 1379.18 1836.92 1381.7 1833.81 1381.7 1830.71 1381.7 1828.19 1379.18 1828.19 1376.07 1828.19 1372.96 1830.71 1370.45 1833.81 1370.45 1836.92 1370.45 1839.44 1372.96 1839.44 1376.07Z" fill="#D2D2D2"/><path d="M1859.79 1384.5C1859.79 1387.61 1857.27 1390.12 1854.16 1390.12 1851.06 1390.12 1848.54 1387.61 1848.54 1384.5 1848.54 1381.39 1851.06 1378.88 1854.16 1378.88 1857.27 1378.88 1859.79 1381.39 1859.79 1384.5Z" fill="#D2D2D2"/><path d="M1881.62 1387.38C1881.62 1390.48 1879.11 1393 1876 1393 1872.89 1393 1870.38 1390.48 1870.38 1387.38 1870.38 1384.27 1872.89 1381.75 1876 1381.75 1879.11 1381.75 1881.62 1384.27 1881.62 1387.38Z" fill="#D2D2D2"/><path d="M1903.46 1384.5C1903.46 1387.61 1900.94 1390.12 1897.84 1390.12 1894.73 1390.12 1892.21 1387.61 1892.21 1384.5 1892.21 1381.39 1894.73 1378.88 1897.84 1378.88 1900.94 1378.88 1903.46 1381.39 1903.46 1384.5Z" fill="#D2D2D2"/><path d="M1923.81 1376.07C1923.81 1379.18 1921.29 1381.7 1918.19 1381.7 1915.08 1381.7 1912.56 1379.18 1912.56 1376.07 1912.56 1372.96 1915.08 1370.45 1918.19 1370.45 1921.29 1370.45 1923.81 1372.96 1923.81 1376.07Z" fill="#D2D2D2"/><path d="M1941.29 1362.66C1941.29 1365.77 1938.77 1368.29 1935.66 1368.29 1932.56 1368.29 1930.04 1365.77 1930.04 1362.66 1930.04 1359.56 1932.56 1357.04 1935.66 1357.04 1938.77 1357.04 1941.29 1359.56 1941.29 1362.66Z" fill="#D2D2D2"/><path d="M1954.7 1345.19C1954.7 1348.29 1952.18 1350.81 1949.07 1350.81 1945.96 1350.81 1943.45 1348.29 1943.45 1345.19 1943.45 1342.08 1945.96 1339.56 1949.07 1339.56 1952.18 1339.56 1954.7 1342.08 1954.7 1345.19Z" fill="#D2D2D2"/><path d="M1963.12 1324.84C1963.12 1327.94 1960.61 1330.46 1957.5 1330.46 1954.39 1330.46 1951.88 1327.94 1951.88 1324.84 1951.88 1321.73 1954.39 1319.21 1957.5 1319.21 1960.61 1319.21 1963.12 1321.73 1963.12 1324.84Z" fill="#D2D2D2"/><path d="M1966 1303C1966 1306.11 1963.48 1308.62 1960.38 1308.62 1957.27 1308.62 1954.75 1306.11 1954.75 1303 1954.75 1299.89 1957.27 1297.38 1960.38 1297.38 1963.48 1297.38 1966 1299.89 1966 1303Z" fill="#D2D2D2"/><path d="M1963.12 1281.16C1963.12 1284.27 1960.61 1286.79 1957.5 1286.79 1954.39 1286.79 1951.88 1284.27 1951.88 1281.16 1951.88 1278.06 1954.39 1275.54 1957.5 1275.54 1960.61 1275.54 1963.12 1278.06 1963.12 1281.16Z" fill="#D2D2D2"/><path d="M1954.7 1260.81C1954.7 1263.92 1952.18 1266.44 1949.07 1266.44 1945.96 1266.44 1943.45 1263.92 1943.45 1260.81 1943.45 1257.71 1945.96 1255.19 1949.07 1255.19 1952.18 1255.19 1954.7 1257.71 1954.7 1260.81Z" fill="#D2D2D2"/><path d="M1941.29 1243.34C1941.29 1246.44 1938.77 1248.96 1935.66 1248.96 1932.56 1248.96 1930.04 1246.44 1930.04 1243.34 1930.04 1240.23 1932.56 1237.71 1935.66 1237.71 1938.77 1237.71 1941.29 1240.23 1941.29 1243.34Z" fill="#D2D2D2"/><path d="M1923.81 1229.93C1923.81 1233.04 1921.29 1235.55 1918.19 1235.55 1915.08 1235.55 1912.56 1233.04 1912.56 1229.93 1912.56 1226.82 1915.08 1224.3 1918.19 1224.3 1921.29 1224.3 1923.81 1226.82 1923.81 1229.93Z" fill="#D2D2D2"/><path d="M1903.46 1221.5C1903.46 1224.61 1900.94 1227.12 1897.84 1227.12 1894.73 1227.12 1892.21 1224.61 1892.21 1221.5 1892.21 1218.39 1894.73 1215.88 1897.84 1215.88 1900.94 1215.88 1903.46 1218.39 1903.46 1221.5Z" fill="#D2D2D2"/><path d="M1853.5 1254.29C1853.5 1257.39 1850.98 1259.91 1847.88 1259.91 1844.77 1259.91 1842.25 1257.39 1842.25 1254.29 1842.25 1251.18 1844.77 1248.66 1847.88 1248.66 1850.98 1248.66 1853.5 1251.18 1853.5 1254.29Z" fill="#D2D2D2"/><path d="M1832.91 1274.88C1832.91 1277.98 1830.39 1280.5 1827.29 1280.5 1824.18 1280.5 1821.66 1277.98 1821.66 1274.88 1821.66 1271.77 1824.18 1269.25 1827.29 1269.25 1830.39 1269.25 1832.91 1271.77 1832.91 1274.88Z" fill="#D2D2D2"/><path d="M1825.38 1303C1825.38 1306.11 1822.86 1308.62 1819.75 1308.62 1816.64 1308.62 1814.12 1306.11 1814.12 1303 1814.12 1299.89 1816.64 1297.38 1819.75 1297.38 1822.86 1297.38 1825.38 1299.89 1825.38 1303Z" fill="#D2D2D2"/><path d="M1832.91 1331.12C1832.91 1334.23 1830.39 1336.75 1827.29 1336.75 1824.18 1336.75 1821.66 1334.23 1821.66 1331.12 1821.66 1328.02 1824.18 1325.5 1827.29 1325.5 1830.39 1325.5 1832.91 1328.02 1832.91 1331.12Z" fill="#D2D2D2"/><path d="M1853.5 1351.71C1853.5 1354.82 1850.98 1357.34 1847.88 1357.34 1844.77 1357.34 1842.25 1354.82 1842.25 1351.71 1842.25 1348.61 1844.77 1346.09 1847.88 1346.09 1850.98 1346.09 1853.5 1348.61 1853.5 1351.71Z" fill="#D2D2D2"/><path d="M1881.62 1359.25C1881.62 1362.36 1879.11 1364.88 1876 1364.88 1872.89 1364.88 1870.38 1362.36 1870.38 1359.25 1870.38 1356.14 1872.89 1353.62 1876 1353.62 1879.11 1353.62 1881.62 1356.14 1881.62 1359.25Z" fill="#D2D2D2"/><path d="M1909.75 1351.71C1909.75 1354.82 1907.23 1357.34 1904.12 1357.34 1901.02 1357.34 1898.5 1354.82 1898.5 1351.71 1898.5 1348.61 1901.02 1346.09 1904.12 1346.09 1907.23 1346.09 1909.75 1348.61 1909.75 1351.71Z" fill="#D2D2D2"/><path d="M1930.34 1331.12C1930.34 1334.23 1927.82 1336.75 1924.71 1336.75 1921.61 1336.75 1919.09 1334.23 1919.09 1331.12 1919.09 1328.02 1921.61 1325.5 1924.71 1325.5 1927.82 1325.5 1930.34 1328.02 1930.34 1331.12Z" fill="#D2D2D2"/><path d="M1937.88 1303C1937.88 1306.11 1935.36 1308.62 1932.25 1308.62 1929.14 1308.62 1926.62 1306.11 1926.62 1303 1926.62 1299.89 1929.14 1297.38 1932.25 1297.38 1935.36 1297.38 1937.88 1299.89 1937.88 1303Z" fill="#D2D2D2"/><path d="M1930.34 1274.88C1930.34 1277.98 1927.82 1280.5 1924.71 1280.5 1921.61 1280.5 1919.09 1277.98 1919.09 1274.88 1919.09 1271.77 1921.61 1269.25 1924.71 1269.25 1927.82 1269.25 1930.34 1271.77 1930.34 1274.88Z" fill="#D2D2D2"/><path d="M1909.75 1254.29C1909.75 1257.39 1907.23 1259.91 1904.12 1259.91 1901.02 1259.91 1898.5 1257.39 1898.5 1254.29 1898.5 1251.18 1901.02 1248.66 1904.12 1248.66 1907.23 1248.66 1909.75 1251.18 1909.75 1254.29Z" fill="#D2D2D2"/><path d="M1881.62 1274.88C1881.62 1277.98 1879.11 1280.5 1876 1280.5 1872.89 1280.5 1870.38 1277.98 1870.38 1274.88 1870.38 1271.77 1872.89 1269.25 1876 1269.25 1879.11 1269.25 1881.62 1271.77 1881.62 1274.88Z" fill="#D2D2D2"/><path d="M1857.27 1288.94C1857.27 1292.04 1854.75 1294.56 1851.64 1294.56 1848.54 1294.56 1846.02 1292.04 1846.02 1288.94 1846.02 1285.83 1848.54 1283.31 1851.64 1283.31 1854.75 1283.31 1857.27 1285.83 1857.27 1288.94Z" fill="#D2D2D2"/><path d="M1857.27 1317.06C1857.27 1320.17 1854.75 1322.69 1851.64 1322.69 1848.54 1322.69 1846.02 1320.17 1846.02 1317.06 1846.02 1313.96 1848.54 1311.44 1851.64 1311.44 1854.75 1311.44 1857.27 1313.96 1857.27 1317.06Z" fill="#D2D2D2"/><path d="M1881.62 1331.12C1881.62 1334.23 1879.11 1336.75 1876 1336.75 1872.89 1336.75 1870.38 1334.23 1870.38 1331.12 1870.38 1328.02 1872.89 1325.5 1876 1325.5 1879.11 1325.5 1881.62 1328.02 1881.62 1331.12Z" fill="#D2D2D2"/><path d="M1905.98 1317.06C1905.98 1320.17 1903.46 1322.69 1900.36 1322.69 1897.25 1322.69 1894.73 1320.17 1894.73 1317.06 1894.73 1313.96 1897.25 1311.44 1900.36 1311.44 1903.46 1311.44 1905.98 1313.96 1905.98 1317.06Z" fill="#D2D2D2"/><path d="M1881.62 1303C1881.62 1306.11 1879.11 1308.62 1876 1308.62 1872.89 1308.62 1870.37 1306.11 1870.37 1303 1870.37 1299.89 1872.89 1297.37 1876 1297.37 1879.11 1297.37 1881.62 1299.89 1881.62 1303Z" fill="#D2D2D2"/><path d="M1905.98 1288.94C1905.98 1292.04 1903.46 1294.56 1900.36 1294.56 1897.25 1294.56 1894.73 1292.04 1894.73 1288.94 1894.73 1285.83 1897.25 1283.31 1900.36 1283.31 1903.46 1283.31 1905.98 1285.83 1905.98 1288.94Z" fill="#D2D2D2"/><path d="M1962 1217.5C1912.1 1217.5 1871.5 1176.9 1871.5 1127 1871.5 1077.1 1912.1 1036.5 1962 1036.5 2011.9 1036.5 2052.5 1077.1 2052.5 1127 2052.5 1176.9 2011.9 1217.5 1962 1217.5ZM1962 1037.5C1912.65 1037.5 1872.5 1077.65 1872.5 1127 1872.5 1176.35 1912.65 1216.5 1962 1216.5 2011.35 1216.5 2051.5 1176.35 2051.5 1127 2051.5 1077.65 2011.35 1037.5 1962 1037.5Z" fill="#D2D2D2"/><path d="M1962 1211.27C1915.53 1211.27 1877.73 1173.47 1877.73 1127 1877.73 1080.53 1915.53 1042.73 1962 1042.73 2008.47 1042.73 2046.27 1080.53 2046.27 1127 2046.27 1173.47 2008.47 1211.27 1962 1211.27ZM1962 1043.73C1916.08 1043.73 1878.73 1081.08 1878.73 1127 1878.73 1172.92 1916.08 1210.27 1962 1210.27 2007.92 1210.27 2045.27 1172.92 2045.27 1127 2045.27 1081.08 2007.92 1043.73 1962 1043.73Z" fill="#D2D2D2"/><path d="M1962 1205.04C1918.97 1205.04 1883.96 1170.03 1883.96 1127 1883.96 1083.97 1918.97 1048.96 1962 1048.96 2005.03 1048.96 2040.04 1083.97 2040.04 1127 2040.04 1170.03 2005.03 1205.04 1962 1205.04ZM1962 1049.96C1919.52 1049.96 1884.96 1084.52 1884.96 1127 1884.96 1169.48 1919.52 1204.04 1962 1204.04 2004.48 1204.04 2039.04 1169.48 2039.04 1127 2039.04 1084.52 2004.48 1049.96 1962 1049.96Z" fill="#D2D2D2"/><path d="M1962 1198.81C1922.41 1198.81 1890.19 1166.59 1890.19 1127 1890.19 1087.41 1922.41 1055.19 1962 1055.19 2001.59 1055.19 2033.81 1087.41 2033.81 1127 2033.81 1166.59 2001.59 1198.81 1962 1198.81ZM1962 1056.19C1922.96 1056.19 1891.19 1087.96 1891.19 1127 1891.19 1166.04 1922.96 1197.81 1962 1197.81 2001.04 1197.81 2032.81 1166.04 2032.81 1127 2032.81 1087.96 2001.04 1056.19 1962 1056.19Z" fill="#D2D2D2"/><path d="M1962 1192.58C1925.84 1192.58 1896.42 1163.16 1896.42 1127 1896.42 1090.84 1925.84 1061.42 1962 1061.42 1998.16 1061.42 2027.58 1090.84 2027.58 1127 2027.58 1163.16 1998.16 1192.58 1962 1192.58ZM1962 1062.42C1926.39 1062.42 1897.42 1091.39 1897.42 1127 1897.42 1162.61 1926.39 1191.58 1962 1191.58 1997.61 1191.58 2026.58 1162.61 2026.58 1127 2026.58 1091.39 1997.61 1062.42 1962 1062.42Z" fill="#D2D2D2"/><path d="M1962 1186.35C1929.28 1186.35 1902.65 1159.72 1902.65 1127 1902.65 1094.28 1929.28 1067.65 1962 1067.65 1994.72 1067.65 2021.35 1094.28 2021.35 1127 2021.35 1159.72 1994.72 1186.35 1962 1186.35ZM1962 1068.65C1929.83 1068.65 1903.65 1094.83 1903.65 1127 1903.65 1159.17 1929.83 1185.35 1962 1185.35 1994.17 1185.35 2020.35 1159.17 2020.35 1127 2020.35 1094.83 1994.17 1068.65 1962 1068.65Z" fill="#D2D2D2"/><path d="M1962 1180.11C1932.71 1180.11 1908.89 1156.29 1908.89 1127 1908.89 1097.71 1932.71 1073.89 1962 1073.89 1991.29 1073.89 2015.11 1097.71 2015.11 1127 2015.11 1156.29 1991.29 1180.11 1962 1180.11ZM1962 1074.89C1933.26 1074.89 1909.89 1098.26 1909.89 1127 1909.89 1155.74 1933.26 1179.11 1962 1179.11 1990.74 1179.11 2014.11 1155.74 2014.11 1127 2014.11 1098.26 1990.74 1074.89 1962 1074.89Z" fill="#D2D2D2"/><path d="M1962 1173.89C1936.15 1173.89 1915.11 1152.85 1915.11 1127 1915.11 1101.15 1936.15 1080.11 1962 1080.11 1987.85 1080.11 2008.89 1101.15 2008.89 1127 2008.89 1152.85 1987.85 1173.89 1962 1173.89ZM1962 1081.11C1936.7 1081.11 1916.11 1101.7 1916.11 1127 1916.11 1152.3 1936.7 1172.89 1962 1172.89 1987.3 1172.89 2007.89 1152.3 2007.89 1127 2007.89 1101.7 1987.3 1081.11 1962 1081.11Z" fill="#D2D2D2"/><path d="M1962 1167.65C1939.58 1167.65 1921.35 1149.42 1921.35 1127 1921.35 1104.58 1939.58 1086.35 1962 1086.35 1984.42 1086.35 2002.65 1104.58 2002.65 1127 2002.65 1149.42 1984.42 1167.65 1962 1167.65ZM1962 1087.35C1940.14 1087.35 1922.35 1105.14 1922.35 1127 1922.35 1148.86 1940.14 1166.65 1962 1166.65 1983.86 1166.65 2001.65 1148.86 2001.65 1127 2001.65 1105.14 1983.86 1087.35 1962 1087.35Z" fill="#D2D2D2"/><path d="M1962 1161.42C1943.02 1161.42 1927.58 1145.98 1927.58 1127 1927.58 1108.02 1943.02 1092.58 1962 1092.58 1980.98 1092.58 1996.42 1108.02 1996.42 1127 1996.42 1145.98 1980.98 1161.42 1962 1161.42ZM1962 1093.58C1943.57 1093.58 1928.58 1108.57 1928.58 1127 1928.58 1145.43 1943.57 1160.42 1962 1160.42 1980.43 1160.42 1995.42 1145.43 1995.42 1127 1995.42 1108.57 1980.43 1093.58 1962 1093.58Z" fill="#D2D2D2"/><path d="M1962 1155.19C1946.45 1155.19 1933.81 1142.55 1933.81 1127 1933.81 1111.45 1946.45 1098.81 1962 1098.81 1977.55 1098.81 1990.19 1111.45 1990.19 1127 1990.19 1142.55 1977.55 1155.19 1962 1155.19ZM1962 1099.81C1947.01 1099.81 1934.81 1112.01 1934.81 1127 1934.81 1141.99 1947.01 1154.19 1962 1154.19 1976.99 1154.19 1989.19 1141.99 1989.19 1127 1989.19 1112.01 1976.99 1099.81 1962 1099.81Z" fill="#D2D2D2"/><path d="M1962 1148.96C1949.89 1148.96 1940.04 1139.11 1940.04 1127 1940.04 1114.89 1949.89 1105.04 1962 1105.04 1974.11 1105.04 1983.96 1114.89 1983.96 1127 1983.96 1139.11 1974.11 1148.96 1962 1148.96ZM1962 1106.04C1950.44 1106.04 1941.04 1115.44 1941.04 1127 1941.04 1138.56 1950.44 1147.96 1962 1147.96 1973.56 1147.96 1982.96 1138.56 1982.96 1127 1982.96 1115.44 1973.56 1106.04 1962 1106.04Z" fill="#D2D2D2"/><path d="M1962 1142.73C1953.33 1142.73 1946.27 1135.67 1946.27 1127 1946.27 1118.33 1953.33 1111.27 1962 1111.27 1970.67 1111.27 1977.73 1118.33 1977.73 1127 1977.73 1135.67 1970.67 1142.73 1962 1142.73ZM1962 1112.27C1953.88 1112.27 1947.27 1118.88 1947.27 1127 1947.27 1135.12 1953.88 1141.73 1962 1141.73 1970.12 1141.73 1976.73 1135.12 1976.73 1127 1976.73 1118.88 1970.12 1112.27 1962 1112.27Z" fill="#D2D2D2"/><path d="M1962 1136.5C1956.76 1136.5 1952.5 1132.24 1952.5 1127 1952.5 1121.76 1956.76 1117.5 1962 1117.5 1967.24 1117.5 1971.5 1121.76 1971.5 1127 1971.5 1132.24 1967.24 1136.5 1962 1136.5ZM1962 1118.5C1957.31 1118.5 1953.5 1122.31 1953.5 1127 1953.5 1131.69 1957.31 1135.5 1962 1135.5 1966.69 1135.5 1970.5 1131.69 1970.5 1127 1970.5 1122.31 1966.69 1118.5 1962 1118.5Z" fill="#D2D2D2"/></g></svg>