<svg width="480" height="480" xmlns="http://www.w3.org/2000/svg" xmlns:xlink="http://www.w3.org/1999/xlink" xml:space="preserve" overflow="hidden"><g transform="translate(-586 -131)"><path d="M956.484 349.916 847.916 458.484C905.473 453.289 951.289 407.475 956.484 349.916Z" fill="#505050"/><path d="M846.859 219.438C846.859 219.438 801 233 765 271 729 309 719.072 361.141 719.072 361.141 720.289 367.655 722.002 373.993 724.224 380.09L870.197 223.69C862.691 221.533 854.891 220.09 846.859 219.438Z" fill="#2F2F2F"/><path d="M719.994 312.406 737 309 813 232 810.406 221.994C765.494 232.162 730.16 267.494 719.994 312.406Z" fill="#505050"/><path d="M870.197 223.689C870.197 223.689 844.366 233.633 791 287 733 345 724.225 380.09 724.225 380.09 729.239 393.848 736.719 406.41 746.1 417.291L932 294 938.561 275.111C923.035 250.486 898.814 231.914 870.197 223.689Z" fill="#737373"/><path d="M957 339C957 321.342 953.154 304.59 946.305 289.492L929 292 774 414 766.297 435.939C786.129 450.428 810.559 459 837 459 840.682 459 844.318 458.809 847.916 458.484 847.916 458.484 889 429 909 409 929 389 956.484 349.916 956.484 349.916 956.809 346.318 957 342.684 957 339Z" fill="#737373"/><path d="M938.561 275.111C938.561 275.111 863.779 343.792 849 305 833 263 746.1 417.291 746.1 417.291 752.096 424.248 758.868 430.512 766.297 435.939L946.305 289.492C944.043 284.508 941.455 279.705 938.561 275.111Z" fill="#505050"/><path d="M837 219C827.855 219 818.965 220.057 810.406 221.994L719.994 312.406C718.057 320.965 717 329.855 717 339 717 346.568 717.732 353.961 719.072 361.141 719.072 361.141 733 319 787 265 823.056 228.944 846.859 219.437 846.859 219.437 843.605 219.172 840.324 219 837 219Z" fill="#737373"/><path d="M902.615 358.995C910.425 366.805 898.395 391.499 875.745 414.149 853.095 436.799 828.401 448.829 820.591 441.019 812.781 433.208 824.811 408.515 847.461 385.865 870.111 363.215 894.804 351.185 902.615 358.995Z" fill="#E1D15A"/><path d="M878.016 376.381C881.234 379.598 876.272 389.776 866.935 399.113 857.598 408.451 847.42 413.412 844.203 410.194 840.985 406.977 845.946 396.799 855.283 387.462 864.621 378.124 874.798 373.163 878.016 376.381Z" fill="#737373"/><path d="M696 311.5C696 315.09 693.09 318 689.5 318 685.91 318 683 315.09 683 311.5 683 307.91 685.91 305 689.5 305 693.09 305 696 307.91 696 311.5Z" fill="#D2D2D2"/><path d="M802 474.5C802 478.09 799.09 481 795.5 481 791.91 481 789 478.09 789 474.5 789 470.91 791.91 468 795.5 468 799.09 468 802 470.91 802 474.5Z" fill="#D2D2D2"/><path d="M969 238C969 245.18 963.18 251 956 251 948.82 251 943 245.18 943 238 943 230.82 948.82 225 956 225 963.18 225 969 230.82 969 238Z" fill="#E1D15A"/><path d="M832 512C832 519.18 826.18 525 819 525 811.82 525 806 519.18 806 512 806 504.82 811.82 499 819 499 826.18 499 832 504.82 832 512Z" fill="#D2D2D2"/></g></svg>