<svg width="480" height="480" xmlns="http://www.w3.org/2000/svg" xmlns:xlink="http://www.w3.org/1999/xlink" xml:space="preserve" overflow="hidden"><g transform="translate(-691 -215)"><path d="M1029.38 519.62C1024.94 524.063 1020.16 527.972 1015.09 531.264 1013.58 532.249 1004.33 530.994 985.467 535.599 962.534 541.199 959.85 545.849 956.589 545.516 936.696 543.484 917.345 534.862 902.102 519.619 887.498 505.015 878.999 486.637 876.494 467.631 876.2 465.399 879.333 462.266 884.4 439.866 889.039 419.356 886.7 412.899 887.352 411.717 891.2 404.737 896.191 398.251 902.102 392.34 902.887 391.555 903.702 390.807 904.49 390.037 905.501 389.049 912.643 389.268 924.201 382.249 935.151 375.599 936.901 370.699 937.758 370.421 968.96 360.287 1004.59 367.554 1029.38 392.34 1057.04 419.993 1062.89 461.147 1047.07 494.583 1046.6 495.574 1042.78 497.451 1039.47 502.599 1035.73 508.399 1035.38 513.024 1035.11 513.331 1033.27 515.457 1031.41 517.594 1029.38 519.62Z" fill="#737373"/><path d="M1047.08 494.528C1029.16 480.221 1008.61 460.29 1001.22 439.581 991.869 413.403 959.036 385.993 937.853 370.418 925.734 374.357 914.292 380.93 904.412 390.144 918.666 407.717 950.358 444.453 982.832 466.451 1004.6 481.198 1022.53 499.081 1035.07 513.352 1039.93 507.492 1043.94 501.164 1047.08 494.528Z" fill="#2F2F2F"/><path d="M942.8 484C911.15 448.733 887.6 436.2 887.6 436.2 887.6 436.2 878.388 434.288 878.049 435.762 875.647 446.227 875.138 457.035 876.518 467.648 887.938 480.611 899.386 493.312 906.45 500.375 916.737 510.662 938.978 530.246 956.576 545.504 961.002 545.954 965.453 546.077 969.892 545.871 979.501 545.427 950.398 492.467 942.8 484Z" fill="#2F2F2F"/><path d="M1015.09 531.263C998.632 512.176 973.302 485.359 947.478 467.865 920.654 449.694 899.656 426.761 887.395 411.693 883.084 419.31 879.968 427.416 878.054 435.747 896.998 450.193 920.972 471.996 929.093 494.735 935.471 512.593 952.779 531.025 969.861 545.882 985.684 545.162 1001.35 540.291 1015.09 531.263Z" fill="#505050"/><path d="M977.658 499.531C987.821 507.98 993.702 517.666 990.793 521.166 987.884 524.665 977.287 520.652 967.123 512.202 956.96 503.753 951.078 494.067 953.987 490.567 956.896 487.068 967.494 491.081 977.658 499.531Z" fill="#E1D15A"/><path d="M827.954 396.583C828.689 398.221 827.956 400.144 826.318 400.878 824.68 401.612 822.757 400.88 822.023 399.242 821.289 397.604 822.021 395.681 823.659 394.947 825.297 394.212 827.22 394.945 827.954 396.583Z" fill="#D2D2D2"/><path d="M826.671 454.322C828.14 457.598 826.675 461.444 823.399 462.913 820.124 464.381 816.278 462.916 814.809 459.64 813.34 456.365 814.805 452.519 818.081 451.05 821.357 449.581 825.203 451.046 826.671 454.322Z" fill="#505050"/><path d="M820.171 421.003C821.639 424.279 820.174 428.125 816.899 429.594 813.623 431.062 809.777 429.597 808.308 426.322 806.84 423.046 808.305 419.2 811.58 417.731 814.856 416.263 818.702 417.728 820.171 421.003Z" fill="#E1D15A"/><path d="M850.056 417.853C851.525 421.128 850.06 424.975 846.784 426.443 843.509 427.912 839.663 426.447 838.194 423.171 836.725 419.895 838.19 416.049 841.466 414.581 844.742 413.112 848.588 414.577 850.056 417.853Z" fill="#E1D15A"/><path d="M862.449 505.501C862.752 507.27 861.565 508.951 859.796 509.254 858.026 509.558 856.346 508.37 856.042 506.601 855.738 504.832 856.926 503.152 858.695 502.848 860.464 502.544 862.145 503.732 862.449 505.501Z" fill="#E1D15A"/></g></svg>