<svg width="239" height="239" xmlns="http://www.w3.org/2000/svg" xmlns:xlink="http://www.w3.org/1999/xlink" xml:space="preserve" overflow="hidden"><g transform="translate(-1325 -1194)"><path d="M1486.57 1308.3C1486.5 1306.36 1487.22 1304.47 1488.57 1303.08 1490.12 1301.97 1491.79 1301.07 1493.56 1300.37 1506.88 1294.43 1522.11 1294.52 1535.35 1300.62 1536.78 1301.17 1538.12 1301.92 1539.34 1302.84 1540.75 1304.32 1541.55 1306.27 1541.59 1308.3L1541.59 1333.31C1543.32 1334.6 1544.99 1335.97 1546.57 1337.43L1546.57 1308.3C1546.61 1304.93 1545.26 1301.69 1542.86 1299.32 1541.23 1297.96 1539.4 1296.87 1537.43 1296.09 1522.94 1289.3 1506.21 1289.19 1491.62 1295.77 1489.42 1296.64 1487.34 1297.79 1485.43 1299.2 1482.9 1301.54 1481.51 1304.86 1481.59 1308.3L1481.59 1311.3C1483.28 1311.56 1484.94 1311.84 1486.57 1312.14Z" fill="#F2F2F2"/><path d="M1514.09 1288.38C1523.72 1288.38 1531.52 1280.58 1531.52 1270.96 1531.52 1261.33 1523.72 1253.53 1514.09 1253.53 1504.47 1253.53 1496.67 1261.33 1496.67 1270.96 1496.61 1280.52 1504.32 1288.32 1513.88 1288.38 1513.95 1288.38 1514.02 1288.38 1514.09 1288.38ZM1514.09 1258.51C1520.96 1258.52 1526.53 1264.08 1526.54 1270.96 1526.54 1277.83 1520.97 1283.4 1514.09 1283.4 1507.22 1283.4 1501.65 1277.83 1501.65 1270.96 1501.65 1264.08 1507.22 1258.51 1514.09 1258.51Z" fill="#F2F2F2"/><path d="M1347.41 1308.3C1347.42 1307.22 1347.65 1306.15 1348.07 1305.16 1348.65 1303.78 1349.67 1302.63 1350.98 1301.9 1352 1301.32 1353.06 1300.81 1354.15 1300.37 1367.47 1294.43 1382.7 1294.52 1395.94 1300.62 1397.37 1301.17 1398.71 1301.92 1399.92 1302.84 1401.33 1304.31 1402.14 1306.27 1402.18 1308.3L1402.18 1312.18C1403.82 1311.89 1405.48 1311.61 1407.16 1311.34L1407.16 1308.3C1407.11 1304.95 1405.78 1301.73 1403.44 1299.32 1401.82 1297.95 1399.99 1296.86 1398.01 1296.09 1383.52 1289.31 1366.79 1289.19 1352.2 1295.78 1350.06 1296.62 1348.03 1297.74 1346.16 1299.09L1345.77 1299.46C1343.54 1301.86 1342.34 1305.03 1342.43 1308.3L1342.43 1337.43C1344.01 1335.97 1345.68 1334.6 1347.41 1333.31Z" fill="#F2F2F2"/><path d="M1444.5 1278.42C1454.12 1278.42 1461.93 1270.62 1461.93 1260.99 1461.93 1251.37 1454.12 1243.57 1444.5 1243.57 1434.88 1243.57 1427.07 1251.37 1427.07 1260.99 1427.01 1270.56 1434.72 1278.36 1444.29 1278.42 1444.36 1278.42 1444.43 1278.42 1444.5 1278.42ZM1444.5 1248.54C1451.37 1248.55 1456.94 1254.12 1456.95 1260.99 1456.95 1267.87 1451.37 1273.44 1444.5 1273.44 1437.63 1273.44 1432.05 1267.87 1432.05 1260.99 1432.05 1254.12 1437.63 1248.54 1444.5 1248.54Z" fill="#F2F2F2"/><path d="M1374.79 1288.38C1384.42 1288.38 1392.22 1280.58 1392.22 1270.96 1392.22 1261.33 1384.42 1253.53 1374.79 1253.53 1365.17 1253.53 1357.36 1261.33 1357.36 1270.96 1357.31 1280.52 1365.02 1288.32 1374.58 1288.38 1374.65 1288.38 1374.72 1288.38 1374.79 1288.38ZM1374.79 1258.51C1381.66 1258.52 1387.23 1264.08 1387.24 1270.96 1387.24 1277.83 1381.67 1283.4 1374.79 1283.4 1367.92 1283.4 1362.34 1277.83 1362.34 1270.96 1362.34 1264.08 1367.92 1258.51 1374.79 1258.51Z" fill="#F2F2F2"/><path d="M1416.87 1298.34C1416.79 1296.4 1417.51 1294.51 1418.86 1293.12 1420.41 1292.01 1422.09 1291.1 1423.86 1290.41 1437.17 1284.47 1452.4 1284.56 1465.65 1290.66 1467.07 1291.21 1468.42 1291.96 1469.63 1292.88 1471.04 1294.35 1471.85 1296.3 1471.89 1298.34L1471.89 1310.01C1473.56 1310.2 1475.22 1310.4 1476.86 1310.62L1476.86 1298.34C1476.82 1294.98 1475.5 1291.76 1473.16 1289.35 1471.54 1287.98 1469.7 1286.88 1467.73 1286.11 1453.24 1279.33 1436.5 1279.22 1421.92 1285.8 1419.71 1286.67 1417.63 1287.82 1415.72 1289.23 1413.19 1291.57 1411.79 1294.89 1411.89 1298.34L1411.89 1310.65C1413.53 1310.43 1415.19 1310.23 1416.87 1310.04Z" fill="#F2F2F2"/><path d="M1444.5 1313.5C1383.07 1313.5 1334.96 1334.82 1334.96 1362.05 1334.96 1389.27 1383.07 1410.59 1444.5 1410.59 1505.93 1410.59 1554.04 1389.27 1554.04 1362.05 1554.04 1334.82 1505.93 1313.5 1444.5 1313.5ZM1444.5 1405.61C1387.82 1405.61 1339.94 1385.66 1339.94 1362.05 1339.94 1338.43 1387.82 1318.48 1444.5 1318.48 1501.18 1318.48 1549.06 1338.43 1549.06 1362.05 1549.06 1385.66 1501.18 1405.61 1444.5 1405.61Z" fill="#F2F2F2"/></g></svg>