<svg width="238" height="237" xmlns="http://www.w3.org/2000/svg" xmlns:xlink="http://www.w3.org/1999/xlink" xml:space="preserve" overflow="hidden"><g transform="translate(-1325 -981)"><path d="M182.455 116.735C182.583 122.395 181.966 128.048 180.619 133.547 172.171 167.988 137.402 189.06 102.961 180.612 97.49 179.27 92.2194 177.213 87.2851 174.496 85.5027 175.355 83.7351 176.191 81.9823 177.004 114.375 197.089 156.916 187.112 177.001 154.72 184.705 142.296 188.264 127.745 187.166 113.168 185.619 114.354 184.049 115.543 182.455 116.735Z" fill="#F2F2F2" transform="matrix(1.00422 0 0 1 1325 981)"/><path d="M118.211 49.1281C80.0181 49.1758 49.0953 80.1759 49.1427 118.369 49.1484 122.865 49.5925 127.35 50.4687 131.76 30.457 147.365-0.634469 174.504 7.01866 187.146 8.96403 190.355 12.9955 191.955 19.0736 191.955 26.7119 191.955 37.5892 189.425 51.6216 184.371 75.05 175.935 104.181 161.456 133.636 143.597 187.872 110.716 240.365 67.2611 230.808 51.4907 223.155 38.8631 184.848 53.7965 161.585 64.3973 149.285 54.5219 133.985 49.1358 118.211 49.1281ZM118.211 54.0656C123.842 54.0614 129.449 54.7875 134.893 56.2258L55.6456 104.258C55.7419 103.831 55.8209 103.404 55.9271 102.977 62.9672 74.2877 88.6711 54.1027 118.211 54.0656ZM178.967 85.1867C178.473 84.2609 177.943 83.3401 177.39 82.4291 177.271 82.2341 177.143 82.0538 177.017 81.8588 180.967 80.1504 184.808 78.5482 188.459 77.1336 188.531 77.1065 188.543 77.1336 188.484 77.1756 185.751 79.5752 182.571 82.2637 178.967 85.1867ZM173.168 84.9892C173.832 86.0853 174.452 87.2111 175.042 88.3245 158.157 101.484 140.482 113.597 122.117 124.595 103.873 135.788 84.9618 145.854 65.4885 154.736 64.7479 153.695 64.0542 152.635 63.3876 151.527 60.7656 147.2 58.6602 142.581 57.1145 137.764L163.861 73.075C167.417 76.6705 170.54 80.6691 173.168 84.9892ZM59.1661 154.094C59.7191 155.008 60.2992 155.892 60.8942 156.763 56.6331 158.607 52.772 160.185 49.3775 161.501 49.3059 161.528 49.2935 161.501 49.3528 161.459 52.2931 158.876 55.4901 156.213 58.8278 153.507 58.9439 153.702 59.0476 153.902 59.1661 154.094ZM141.096 58.2378C148.059 60.8609 154.504 64.6909 160.135 69.5521L55.7518 132.819C54.057 125.571 53.6494 118.083 54.547 110.694ZM131.076 139.376C101.888 157.067 73.075 171.398 49.9552 179.725 24.7221 188.812 13.3313 188.022 11.2501 184.586 8.12219 179.431 19.5969 162.419 51.7549 137.045 52.9315 141.197 54.4954 145.23 56.4258 149.09 49.3355 154.81 43.0278 160.308 37.7225 165.441 36.6417 166.481 36.6086 168.2 37.6487 169.28 38.3809 170.042 39.4884 170.309 40.4875 169.966 53.9891 165.475 82.8858 154.166 124.689 128.817 166.493 103.468 189.879 83.0932 200.114 73.1935 201.191 72.1492 201.217 70.43 200.173 69.3534 199.444 68.6024 198.348 68.3367 197.357 68.6708 190.36 70.9988 182.567 74.0452 174.215 77.6891 171.691 74.1904 168.844 70.9363 165.712 67.9696 203.069 51.2043 223.459 48.8887 226.584 54.0508 232.334 63.5358 194.538 100.91 131.076 139.376Z" fill="#F2F2F2" transform="matrix(1.00422 0 0 1 1325 981)"/><path d="M222.758 56.1048 210.014 70.9889C204.529 77.4077 182.416 100.861 128.182 133.695L127.689 134.001C73.749 166.564 42.9044 175.217 34.7353 177.091L14.8273 181.665C14.773 181.665 14.773 181.7 14.8273 181.712L15.9778 181.999C17.2439 182.275 18.5382 182.402 19.8339 182.376L19.8339 182.376C35.9401 182.401 77.2003 167.971 129.733 136.235 194.854 96.8984 222.879 64.8911 223.422 56.4949L222.928 56.1295Z" fill="#F2F2F2" transform="matrix(1.00422 0 0 1 1325 981)"/></g></svg>