<svg width="238" height="238" xmlns="http://www.w3.org/2000/svg" xmlns:xlink="http://www.w3.org/1999/xlink" xml:space="preserve" overflow="hidden"><g transform="translate(-1325 -272)"><path d="M1488.63 420.569 1488.63 415.611 1471.28 415.611 1471.28 442.882 1466.32 442.882 1466.32 447.84 1513.42 447.84 1513.42 363.548 1492.49 363.548 1487.54 368.507 1508.46 368.507 1508.46 393.298 1468.79 393.298 1468.79 398.257 1508.46 398.257 1508.46 415.611 1501.03 415.611 1501.03 420.569 1508.46 420.569 1508.46 442.882 1476.23 442.882 1476.23 420.569 1488.63 420.569Z" fill="#F2F2F2"/><path d="M1522.24 333.798 1517.29 338.757 1535.73 338.757 1535.73 470.152 1376.79 470.152C1379.51 467.49 1381.28 464.005 1381.82 460.236L1382.02 457.757 1382.02 338.757 1465.02 338.757 1469.98 333.798 1382.02 333.798 1382.02 326.361C1382.02 316.776 1374.25 309.007 1364.67 309.007 1355.08 309.007 1347.31 316.776 1347.31 326.361L1347.31 457.757 1347.51 460.236C1348.7 468.343 1355.39 474.517 1363.57 475.044L1540.69 475.111 1540.69 333.798ZM1352.27 326.361C1352.27 319.515 1357.82 313.965 1364.67 313.965 1371.51 313.965 1377.06 319.515 1377.06 326.361L1377.06 445.633C1370.4 438.787 1359.44 438.642 1352.6 445.308 1352.49 445.415 1352.38 445.524 1352.27 445.633ZM1352.27 457.757C1352.27 450.911 1357.82 445.361 1364.67 445.361 1371.51 445.361 1377.06 450.911 1377.06 457.757 1377.06 464.602 1371.51 470.152 1364.67 470.152 1357.82 470.144 1352.28 464.599 1352.27 457.757Z" fill="#F2F2F2"/><path d="M1435.32 368.507 1440.27 363.548 1404.33 363.548 1404.33 447.84 1451.44 447.84 1451.44 442.882 1446.48 442.882 1446.48 415.611 1429.13 415.611 1429.13 420.569 1441.53 420.569 1441.53 442.882 1409.29 442.882 1409.29 420.569 1416.73 420.569 1416.73 415.611 1409.29 415.611 1409.29 398.438 1424.55 398.438 1426.19 393.479 1409.29 393.479 1409.29 368.507 1435.32 368.507Z" fill="#F2F2F2"/><path d="M1432.84 397.024 1456.2 389.322 1529.2 316.085C1531.12 314.396 1531.31 311.47 1529.62 309.549 1529.52 309.44 1529.42 309.336 1529.32 309.237L1520.64 300.56C1518.76 298.636 1515.67 298.603 1513.74 300.487 1513.72 300.511 1513.7 300.535 1513.67 300.56L1440.55 373.795ZM1517.16 304.085 1525.67 312.601 1518.04 320.225 1509.53 311.709ZM1505.19 316.045 1506.02 315.214 1514.63 323.815 1513.77 324.737 1460.16 378.356C1459.21 374.064 1455.84 370.723 1451.54 369.808ZM1444.89 376.467 1445.9 375.451C1446.9 374.844 1448.05 374.52 1449.22 374.514 1450.88 374.514 1452.47 375.18 1453.63 376.363 1455.75 378.412 1456.07 381.687 1454.4 384.11L1453.53 384.983 1443.17 388.399 1441.49 386.716Z" fill="#F2F2F2"/></g></svg>