<svg width="877" height="877" xmlns="http://www.w3.org/2000/svg" xmlns:xlink="http://www.w3.org/1999/xlink" xml:space="preserve" overflow="hidden"><g transform="translate(2900 -1534)"><path d="M-2297.15 1970.67-2379.37 1970.67-2379.37 1915.86-2297.15 1915.86C-2282.01 1915.86-2269.74 1928.13-2269.74 1943.27L-2269.74 1943.27C-2269.74 1958.4-2282.01 1970.67-2297.15 1970.67Z" fill="#505050"/><path d="M-2514.57 1970.67-2625.46 1970.67C-2640.6 1970.67-2652.87 1958.4-2652.87 1943.27L-2652.87 1943.27C-2652.87 1928.13-2640.6 1915.86-2625.46 1915.86L-2514.57 1915.86-2514.57 1970.67Z" fill="#505050"/><path d="M-2337.21 1915.86C-2337.21 1915.86-2353.79 1906.72-2461.59 1906.72-2569.38 1906.72-2582.31 1915.86-2582.31 1915.86-2608.35 1944.95-2624.2 1983.37-2624.2 2025.49L-2624.2 2100.4C-2624.2 2100.4-2611.41 2122.32-2461.59 2122.32-2311.77 2122.32-2295.32 2100.4-2295.32 2100.4L-2295.32 2025.49C-2295.32 1983.37-2311.17 1944.95-2337.21 1915.86Z" fill="#D2D2D2"/><path d="M-2468.9 1994.33-2479.86 1994.33-2479.86 1913.03-2483.51 1913.03-2483.51 1994.33-2576.69 1994.33-2576.69 2018.09-2468.9 2018.09-2468.9 2025.39-2522.13 2025.39-2522.13 2049.15-2468.9 2049.15-2468.9 2056.45-2576.69 2056.45-2576.69 2080.21-2468.9 2080.21-2468.9 2103.96-2465.24 2103.96-2465.24 1913.03-2468.9 1913.03Z" fill="#E6E6E6"/><path d="M-2341.91 1913.94-2343.74 1913.94C-2344.25 1913.94-2344.65 1914.35-2344.65 1914.86L-2344.65 1994.33-2404.95 1994.33-2404.95 2018.09-2344.65 2018.09-2344.65 2025.39-2450.63 2025.39-2450.63 2049.15-2344.65 2049.15-2344.65 2056.45-2450.63 2056.45-2450.63 2080.21-2344.65 2080.21-2344.65 2103.96-2341 2103.96-2341 1914.86C-2341 1914.35-2341.41 1913.94-2341.91 1913.94Z" fill="#E6E6E6"/><path d="M-2450.63 1994.33-2421.39 1994.33-2421.39 2018.09-2450.63 2018.09Z" fill="#E6E6E6"/><path d="M-2624.2 2100.4-2295.32 2100.4-2295.32 2188.1-2624.2 2188.1Z" fill="#505050"/><path d="M-2576.69 2164.3-2467.07 2164.3-2467.07 2188.14-2576.69 2188.14Z" fill="#2F2F2F"/><path d="M-2450.63 2164.3-2421.39 2164.3-2421.39 2188.14-2450.63 2188.14Z" fill="#2F2F2F"/><path d="M-2311.77 2124.15C-2311.77 2129.19-2315.86 2133.28-2320.9 2133.28-2325.95 2133.28-2330.04 2129.19-2330.04 2124.15-2330.04 2119.1-2325.95 2115.01-2320.9 2115.01-2315.86 2115.01-2311.77 2119.1-2311.77 2124.15Z" fill="#737373"/><path d="M-2311.77 2166.17C-2311.77 2171.22-2315.86 2175.31-2320.9 2175.31-2325.95 2175.31-2330.04 2171.22-2330.04 2166.17-2330.04 2161.13-2325.95 2157.04-2320.9 2157.04-2315.86 2157.04-2311.77 2161.13-2311.77 2166.17Z" fill="#737373"/><path d="M-2593.14 2124.15C-2593.14 2129.19-2597.23 2133.28-2602.27 2133.28-2607.32 2133.28-2611.41 2129.19-2611.41 2124.15-2611.41 2119.1-2607.32 2115.01-2602.27 2115.01-2597.23 2115.01-2593.14 2119.1-2593.14 2124.15Z" fill="#737373"/><path d="M-2593.14 2166.17C-2593.14 2171.22-2597.23 2175.31-2602.27 2175.31-2607.32 2175.31-2611.41 2171.22-2611.41 2166.17-2611.41 2161.13-2607.32 2157.04-2602.27 2157.04-2597.23 2157.04-2593.14 2161.13-2593.14 2166.17Z" fill="#737373"/><path d="M-2483.51 2116.84-2479.86 2116.84-2479.86 2178.96-2483.51 2178.96Z" fill="#737373"/><path d="M-2498.13 2116.84-2494.48 2116.84-2494.48 2178.96-2498.13 2178.96Z" fill="#737373"/><path d="M-2514.21 2116.84-2510.55 2116.84-2510.55 2178.96-2514.21 2178.96Z" fill="#737373"/><path d="M-2529.19 2116.84-2525.54 2116.84-2525.54 2178.96-2529.19 2178.96Z" fill="#737373"/><path d="M-2459.76 1861.05C-2508.46 1861.05-2552.2 1882.22-2582.31 1915.86L-2337.21 1915.86C-2367.32 1882.22-2411.06 1861.05-2459.76 1861.05Z" fill="#737373"/><path d="M-2269.74 2134.83-2214.93 2134.83C-2184.66 2134.83-2160.12 2110.28-2160.12 2080.01L-2160.12 2025.2C-2160.12 1964.66-2209.2 1915.58-2269.74 1915.58L-2269.74 2134.83Z" fill="#D2D2D2"/><path d="M-2214.93 2080.3C-2245.2 2080.3-2269.74 2104.84-2269.74 2135.11L-2269.74 2138.76-2259.7 2138.76C-2252.13 2138.76-2245.99 2144.9-2245.99 2152.47-2245.99 2160.04-2252.13 2166.17-2259.7 2166.17L-2269.74 2166.17-2269.74 2189.92C-2209.2 2189.92-2160.12 2140.84-2160.12 2080.3L-2214.93 2080.3Z" fill="#E1D15A"/><path d="M-2177.54 2025.49-2160.03 2025.49-2160.03 2049.24-2177.54 2049.24Z" fill="#E1D15A"/><path d="M-2202.14 2025.49-2184.72 2025.49-2184.72 2049.24-2202.14 2049.24Z" fill="#E1D15A"/><path d="M-2653.1 1754.16-2707.91 1754.16C-2738.18 1754.16-2762.72 1778.7-2762.72 1808.98L-2762.72 1863.79C-2762.72 1924.33-2713.64 1973.41-2653.1 1973.41L-2653.1 1754.16Z" fill="#D2D2D2"/><path d="M-2676.85 1736.52C-2676.85 1744.09-2670.72 1750.22-2663.15 1750.22L-2653.1 1750.22-2653.1 1753.88C-2653.1 1784.15-2677.64 1808.69-2707.91 1808.69L-2762.72 1808.69C-2762.72 1748.15-2713.64 1699.07-2653.1 1699.07L-2653.1 1722.82-2663.15 1722.82C-2670.72 1722.82-2676.85 1728.95-2676.85 1736.52Z" fill="#E1D15A"/><path d="M-2762.97 1839.75-2720.7 1839.75-2720.7 1863.5-2762.97 1863.5Z" fill="#737373"/><path d="M-2295.32 2272.14C-2295.32 2226.73-2332.13 2189.92-2377.54 2189.92L-2377.54 2189.92C-2422.95 2189.92-2459.76 2226.73-2459.76 2272.14-2459.76 2272.14-2438.99 2290.11-2377.54 2290.11-2316.09 2290.11-2295.32 2272.14-2295.32 2272.14Z" fill="#D2D2D2"/><path d="M-2295.32 2299.55-2459.76 2299.55-2459.76 2272.14-2295.32 2272.14Z" fill="#505050"/><path d="M-2404.95 2261.18-2342.83 2261.18-2342.83 2284.93-2404.95 2284.93Z" fill="#505050"/><path d="M-2625.11 2272.14C-2625.11 2226.73-2588.3 2189.92-2542.89 2189.92L-2542.89 2189.92C-2497.48 2189.92-2460.67 2226.73-2460.67 2272.14-2460.67 2272.14-2481.02 2288.89-2542.89 2288.89-2604.77 2288.89-2625.11 2272.14-2625.11 2272.14Z" fill="#D2D2D2"/><path d="M-2625.11 2272.14-2460.67 2272.14-2460.67 2299.55-2625.11 2299.55Z" fill="#E1D15A"/><path d="M-2551.11 2259.35-2488.99 2259.35-2488.99 2283.1-2551.11 2283.1Z" fill="#505050"/><path d="M-2355.42 1747.77C-2359.9 1743.2-2364.69 1738.93-2369.73 1734.98-2394.55 1715.54-2425.79 1703.92-2459.76 1703.92-2493.73 1703.92-2524.97 1715.54-2549.79 1734.98-2554.83 1738.93-2559.62 1743.2-2564.11 1747.77-2589.96 1774.14-2605.93 1810.24-2605.93 1850.09L-2605.93 1881.23-2313.59 1881.23-2313.59 1850.09C-2313.59 1810.24-2329.56 1774.14-2355.42 1747.77Z" fill="#E1D15A"/><path d="M-2348.31 1794.36C-2348.31 1796.88-2350.35 1798.93-2352.88 1798.93-2355.4 1798.93-2357.44 1796.88-2357.44 1794.36-2357.44 1791.84-2355.4 1789.79-2352.88 1789.79-2350.35 1789.79-2348.31 1791.84-2348.31 1794.36Z" fill="#505050"/><path d="M-2563.9 1794.36C-2563.9 1796.88-2565.95 1798.93-2568.47 1798.93-2570.99 1798.93-2573.04 1796.88-2573.04 1794.36-2573.04 1791.84-2570.99 1789.79-2568.47 1789.79-2565.95 1789.79-2563.9 1791.84-2563.9 1794.36Z" fill="#505050"/><path d="M-2426.87 1800.75C-2426.87 1820.94-2443.23 1837.3-2463.41 1837.3-2483.6 1837.3-2499.96 1820.94-2499.96 1800.75-2499.96 1780.57-2483.6 1764.21-2463.41 1764.21-2443.23 1764.21-2426.87 1780.57-2426.87 1800.75Z" fill="#2F2F2F"/><path d="M-2450.63 1794.36C-2450.63 1796.88-2452.67 1798.93-2455.19 1798.93-2457.72 1798.93-2459.76 1796.88-2459.76 1794.36-2459.76 1791.84-2457.72 1789.79-2455.19 1789.79-2452.67 1789.79-2450.63 1791.84-2450.63 1794.36Z" fill="#FFFFFF"/><path d="M-2461.59 1782.48C-2461.59 1787.53-2465.68 1791.62-2470.72 1791.62-2475.77 1791.62-2479.86 1787.53-2479.86 1782.48-2479.86 1777.44-2475.77 1773.35-2470.72 1773.35-2465.68 1773.35-2461.59 1777.44-2461.59 1782.48Z" fill="#FFFFFF"/><path d="M-2605.94 1857.58-2496.32 1857.58-2496.32 1881.33-2605.94 1881.33Z" fill="#2F2F2F"/><path d="M-2379.38 1857.58-2342.83 1857.58-2342.83 1881.33-2379.38 1881.33Z" fill="#2F2F2F"/><path d="M-2423.23 1857.58-2386.68 1857.58-2386.68 1881.33-2423.23 1881.33Z" fill="#2F2F2F"/><path d="M-2459.76 1713.05C-2461.78 1713.05-2463.41 1711.42-2463.41 1709.4L-2463.41 1645.45C-2463.41 1643.43-2461.78 1641.8-2459.76 1641.8-2457.74 1641.8-2456.11 1643.43-2456.11 1645.45L-2456.11 1709.4C-2456.11 1711.42-2457.74 1713.05-2459.76 1713.05Z" fill="#E1D15A"/></g></svg>