<svg width="238" height="238" xmlns="http://www.w3.org/2000/svg" xmlns:xlink="http://www.w3.org/1999/xlink" xml:space="preserve" overflow="hidden"><g transform="translate(-1325 -748)"><path d="M1468.76 804.049C1466.75 800.561 1462.18 798.889 1456.02 798.889 1451.46 798.983 1446.94 799.662 1442.55 800.908 1439.12 788.423 1433.34 780.229 1426.84 780.229 1420.35 780.229 1414.62 788.348 1411.18 800.74 1406.99 799.592 1402.68 798.971 1398.33 798.889 1392.18 798.889 1387.61 800.561 1385.59 804.049 1382.31 809.74 1386.61 818.917 1395.86 828.212 1387.08 837.268 1383.06 846.144 1386.26 851.686 1388.27 855.161 1392.84 856.848 1399 856.848 1403.13 856.774 1407.23 856.203 1411.23 855.15 1414.67 867.454 1420.35 875.505 1426.84 875.505 1433.33 875.505 1439.06 867.387 1442.5 854.995 1446.69 856.143 1451.01 856.766 1455.35 856.848 1461.5 856.848 1466.07 855.174 1468.09 851.686 1471.29 846.137 1467.27 837.268 1458.49 828.212 1467.74 818.917 1472.04 809.74 1468.76 804.049ZM1389.72 806.439C1390.74 804.672 1393.88 803.658 1398.33 803.658 1402.29 803.738 1406.23 804.311 1410.05 805.364 1409.19 809.419 1408.58 813.524 1408.23 817.654 1405.11 819.896 1402.11 822.318 1399.27 824.908 1391.17 816.768 1387.92 809.572 1389.72 806.439ZM1407.88 832.398C1406.03 830.977 1404.31 829.565 1402.73 828.164 1404.3 826.745 1406.01 825.306 1407.86 823.867 1407.82 825.188 1407.79 826.518 1407.79 827.867 1407.79 829.397 1407.82 830.908 1407.88 832.398ZM1399.01 852.083C1394.55 852.083 1391.41 851.068 1390.4 849.304 1388.63 846.261 1391.66 839.347 1399.31 831.471 1402.16 834.012 1405.16 836.388 1408.29 838.586 1408.65 842.602 1409.25 846.591 1410.09 850.534 1406.47 851.493 1402.75 852.013 1399.01 852.084ZM1440.24 813.705C1438.98 812.908 1437.69 812.127 1436.37 811.363 1435.14 810.656 1433.92 809.99 1432.7 809.341 1434.87 808.425 1437.01 807.613 1439.11 806.907 1439.55 809.045 1439.93 811.312 1440.24 813.707ZM1426.84 784.994C1430.42 784.994 1435 791.316 1438 802.27 1434.31 803.498 1430.7 804.939 1427.18 806.584 1423.46 804.846 1419.64 803.337 1415.74 802.065 1418.74 791.24 1423.26 784.994 1426.84 784.994ZM1414.62 806.692C1416.91 807.453 1419.26 808.338 1421.65 809.343 1420.43 809.991 1419.21 810.658 1417.98 811.357 1416.4 812.273 1414.87 813.208 1413.38 814.163 1413.7 811.512 1414.14 809.022 1414.62 806.692ZM1413.44 842.028C1414.7 842.826 1415.99 843.607 1417.32 844.37 1418.73 845.189 1420.15 845.958 1421.57 846.7 1419.22 847.667 1416.91 848.508 1414.66 849.231 1414.18 846.982 1413.77 844.575 1413.44 842.028ZM1426.84 870.741C1423.3 870.741 1418.79 864.568 1415.79 853.86 1419.67 852.628 1423.48 851.158 1427.18 849.457 1430.68 851.069 1434.27 852.476 1437.94 853.67 1434.94 864.496 1430.38 870.741 1426.84 870.741ZM1439.07 849.033C1437.01 848.361 1434.91 847.578 1432.78 846.7 1434.2 845.958 1435.61 845.188 1437.03 844.37 1438.1 843.75 1439.15 843.12 1440.18 842.481 1439.87 844.791 1439.5 846.975 1439.07 849.033ZM1440.8 836.439C1438.86 837.726 1436.81 839.003 1434.64 840.254 1432.16 841.688 1429.66 843.003 1427.17 844.208 1424.69 843.009 1422.18 841.688 1419.7 840.254 1417.27 838.856 1414.98 837.411 1412.84 835.965 1412.66 833.382 1412.56 830.688 1412.56 827.878 1412.56 825.241 1412.64 822.704 1412.8 820.265 1415.14 818.655 1417.66 817.06 1420.36 815.5 1422.62 814.206 1424.9 813 1427.17 811.886 1429.44 812.987 1431.71 814.195 1433.98 815.5 1436.42 816.896 1438.7 818.326 1440.83 819.789 1441.01 822.373 1441.12 825.067 1441.12 827.878 1441.12 830.861 1441 833.714 1440.8 836.439ZM1463.96 849.306C1462.94 851.07 1459.8 852.084 1455.35 852.084 1451.39 852.005 1447.45 851.432 1443.63 850.378 1444.42 846.652 1445 842.883 1445.35 839.091 1448.74 836.752 1451.98 834.208 1455.05 831.473 1462.69 839.348 1465.72 846.262 1463.96 849.305ZM1445.8 823.344C1447.92 824.954 1449.86 826.571 1451.62 828.164 1449.85 829.743 1447.9 831.332 1445.79 832.933 1445.86 831.265 1445.89 829.578 1445.89 827.872 1445.89 826.344 1445.86 824.835 1445.8 823.344ZM1455.08 824.898C1452.02 822.116 1448.79 819.528 1445.4 817.148 1445.05 813.243 1444.47 809.361 1443.67 805.523 1447.69 804.37 1451.84 803.741 1456.02 803.651 1460.48 803.651 1463.61 804.655 1464.63 806.429 1466.43 809.552 1463.19 816.758 1455.08 824.898Z" fill="#F2F2F2"/><path d="M1426.83 820.729C1422.89 820.753 1419.71 823.971 1419.73 827.917 1419.75 831.83 1422.92 834.997 1426.83 835.02L1426.84 835.02C1430.79 834.994 1433.97 831.773 1433.94 827.827 1433.92 823.913 1430.75 820.749 1426.83 820.729Z" fill="#F2F2F2"/><path d="M1508.73 840.498 1508.73 839.258C1510.23 798.107 1478.09 763.527 1436.94 762.02 1436.02 761.986 1435.09 761.97 1434.18 761.97 1394.07 762 1361.18 793.746 1359.72 833.821 1359.66 835.633 1359.66 837.446 1359.72 839.26 1359.63 862.721 1370.44 884.896 1388.98 899.272L1388.98 962.012 1467.32 962.012 1467.32 932.254 1479.48 932.254C1495.63 932.251 1508.73 919.153 1508.73 902.995 1508.73 902.829 1508.73 902.662 1508.73 902.495L1508.73 887.616 1519.63 887.616C1526.08 886.872 1531.78 879.432 1525.83 870.257ZM1522.93 879.922C1522.23 881.363 1520.88 882.38 1519.3 882.657L1503.77 882.657 1503.77 887.615 1503.77 902.575 1503.77 902.994C1503.76 916.408 1492.89 927.279 1479.47 927.294L1462.36 927.294 1462.36 957.053 1393.94 957.053 1393.94 896.842 1392.02 895.353C1374.74 881.878 1364.66 861.186 1364.68 839.279L1364.68 839.178 1364.68 839.078C1364.62 837.394 1364.62 835.685 1364.68 834.001 1365.9 796.531 1396.69 766.821 1434.18 766.927 1435.03 766.927 1435.9 766.943 1436.76 766.975 1475.16 768.425 1505.13 800.68 1503.77 839.078L1503.77 839.168 1503.77 841.823 1504.43 842.97 1521.54 872.728 1521.6 872.843 1521.67 872.955C1523.28 874.897 1523.76 877.541 1522.93 879.923Z" fill="#F2F2F2"/></g></svg>