<svg width="239" height="239" xmlns="http://www.w3.org/2000/svg" xmlns:xlink="http://www.w3.org/1999/xlink" xml:space="preserve" overflow="hidden"><g transform="translate(-1325 -1435)"><path d="M1543.83 1577.9C1540.57 1577.94 1537.9 1575.33 1537.86 1572.06 1537.71 1570.58 1538.18 1569.1 1539.18 1567.99 1540.37 1566.68 1542.06 1565.93 1543.83 1565.95 1547.13 1565.95 1549.81 1568.63 1549.81 1571.93 1549.81 1575.23 1547.13 1577.9 1543.83 1577.9ZM1543.83 1570.43C1543.35 1570.42 1542.88 1570.61 1542.54 1570.96 1542.37 1571.14 1542.29 1571.4 1542.32 1571.65L1542.34 1571.93C1542.34 1572.75 1543.01 1573.42 1543.83 1573.42 1544.66 1573.42 1545.33 1572.75 1545.33 1571.93 1545.33 1571.1 1544.66 1570.43 1543.83 1570.43Z" fill="#F2F2F2"/><path d="M1527.65 1540.06C1524.4 1540.1 1521.72 1537.49 1521.68 1534.23 1521.55 1532.78 1522.03 1531.34 1523 1530.25 1524.17 1528.9 1525.87 1528.12 1527.65 1528.11 1530.95 1528.11 1533.63 1530.79 1533.63 1534.09 1533.63 1537.39 1530.95 1540.06 1527.65 1540.06ZM1527.65 1532.59C1527.17 1532.6 1526.71 1532.82 1526.39 1533.18 1526.24 1533.34 1526.15 1533.55 1526.14 1533.77L1526.17 1534.09C1526.17 1534.91 1526.84 1535.58 1527.66 1535.58 1528.49 1535.58 1529.16 1534.91 1529.16 1534.09 1529.16 1533.26 1528.49 1532.59 1527.66 1532.59Z" fill="#F2F2F2"/><path d="M1520.43 1564.96C1516.03 1564.96 1512.47 1561.39 1512.47 1556.99 1512.47 1552.59 1516.03 1549.02 1520.43 1549.02 1524.83 1549.02 1528.4 1552.59 1528.4 1556.99 1528.4 1561.39 1524.83 1564.96 1520.43 1564.96ZM1520.43 1554C1518.78 1554 1517.44 1555.34 1517.44 1556.99 1517.44 1558.64 1518.78 1559.98 1520.43 1559.98 1522.08 1559.98 1523.42 1558.64 1523.42 1556.99 1523.4 1555.35 1522.07 1554.02 1520.43 1554Z" fill="#F2F2F2"/><path d="M1511.47 1601.3C1505.15 1601.3 1500.02 1596.18 1500.02 1589.85 1500.02 1583.53 1505.15 1578.4 1511.47 1578.4 1517.79 1578.4 1522.92 1583.53 1522.92 1589.85 1522.91 1596.17 1517.79 1601.3 1511.47 1601.3ZM1511.47 1583.38C1507.9 1583.38 1505 1586.28 1505 1589.85 1505 1593.43 1507.9 1596.32 1511.47 1596.32 1515.04 1596.32 1517.94 1593.43 1517.94 1589.85 1517.98 1586.32 1515.15 1583.42 1511.61 1583.38 1511.56 1583.38 1511.52 1583.38 1511.47 1583.38Z" fill="#F2F2F2"/><path d="M1500.27 1532.34C1495.87 1532.34 1492.3 1528.78 1492.3 1524.38 1492.3 1519.98 1495.87 1516.41 1500.27 1516.41 1504.67 1516.41 1508.23 1519.98 1508.23 1524.38 1508.23 1528.78 1504.67 1532.34 1500.27 1532.34ZM1500.27 1521.39C1498.62 1521.39 1497.28 1522.73 1497.28 1524.38 1497.28 1526.03 1498.62 1527.36 1500.27 1527.36 1501.92 1527.36 1503.25 1526.03 1503.25 1524.38 1503.23 1522.74 1501.91 1521.41 1500.27 1521.39Z" fill="#F2F2F2"/><path d="M1491.8 1568.19C1488.54 1568.23 1485.87 1565.62 1485.83 1562.37 1485.7 1560.91 1486.18 1559.47 1487.16 1558.38 1488.33 1557.04 1490.02 1556.26 1491.8 1556.24 1495.1 1556.24 1497.78 1558.92 1497.78 1562.22 1497.78 1565.52 1495.1 1568.19 1491.8 1568.19ZM1491.8 1560.72C1491.32 1560.74 1490.86 1560.95 1490.54 1561.32 1490.39 1561.47 1490.3 1561.68 1490.29 1561.9L1490.32 1562.22C1490.32 1563.04 1490.98 1563.71 1491.81 1563.71 1492.63 1563.71 1493.3 1563.04 1493.3 1562.22 1493.3 1561.39 1492.63 1560.72 1491.81 1560.72Z" fill="#F2F2F2"/><path d="M1468.4 1552.76C1462.08 1552.75 1456.95 1547.63 1456.95 1541.31 1457.03 1535.02 1462.11 1529.94 1468.4 1529.85 1474.72 1529.85 1479.85 1534.98 1479.85 1541.31 1479.85 1547.63 1474.72 1552.76 1468.4 1552.76ZM1468.4 1534.83C1464.84 1534.88 1461.97 1537.75 1461.93 1541.31 1461.93 1544.88 1464.83 1547.78 1468.4 1547.78 1471.97 1547.78 1474.87 1544.88 1474.87 1541.31 1474.87 1537.73 1471.97 1534.83 1468.4 1534.83Z" fill="#F2F2F2"/><path d="M1459.44 1581.89C1455.04 1581.89 1451.47 1578.32 1451.47 1573.92 1451.42 1569.57 1454.91 1566 1459.26 1565.95 1459.32 1565.95 1459.38 1565.95 1459.44 1565.95 1463.84 1565.95 1467.4 1569.52 1467.4 1573.92 1467.4 1578.32 1463.84 1581.89 1459.44 1581.89ZM1459.44 1570.93C1457.84 1570.88 1456.5 1572.13 1456.45 1573.72 1456.45 1573.79 1456.45 1573.85 1456.45 1573.92 1456.45 1575.57 1457.79 1576.91 1459.44 1576.91 1461.09 1576.91 1462.43 1575.57 1462.43 1573.92 1462.43 1572.27 1461.09 1570.93 1459.44 1570.93Z" fill="#F2F2F2"/><path d="M1449.53 1588.71C1434.06 1561.92 1443.24 1527.66 1470.03 1512.19 1496.82 1496.72 1531.08 1505.9 1546.55 1532.69 1562.02 1559.48 1552.84 1593.74 1526.05 1609.21 1524.59 1610.05 1523.09 1610.83 1521.56 1611.54L1529.31 1613.09C1558.22 1595.81 1567.66 1558.36 1550.38 1529.44 1533.1 1500.53 1495.65 1491.09 1466.73 1508.37 1438.68 1525.13 1428.82 1561.01 1444.37 1589.75Z" fill="#F2F2F2"/><path d="M1559.02 1634.09 1550.08 1631.86 1535.1 1621.86 1510.2 1616.88 1472.41 1591.69 1435.93 1599.08 1427.74 1599.77 1393.25 1584.81 1374.08 1596.82 1356.61 1596.82 1341.26 1607.06 1329.98 1611.57 1329.98 1616.93 1343.35 1611.58 1358.12 1601.8 1375.51 1601.8 1393.68 1590.42 1426.8 1604.79 1437.89 1618.37 1456.48 1628.81 1458.91 1624.46 1441.15 1614.49 1432.86 1604.34 1436.49 1604.03 1471.37 1596.98 1508.26 1621.57 1533.15 1626.55 1548.04 1636.48 1559.02 1639.22 1559.02 1634.09Z" fill="#F2F2F2"/><path d="M1399.69 1467.36C1381.73 1467.28 1367.09 1481.77 1367 1499.73 1366.92 1517.69 1381.41 1532.32 1399.37 1532.41 1417.33 1532.5 1431.96 1518.01 1432.05 1500.05 1432.05 1499.99 1432.05 1499.94 1432.05 1499.89 1432.04 1481.99 1417.58 1467.46 1399.69 1467.36ZM1426.51 1494.3C1420.41 1492.98 1414.2 1492.26 1407.97 1492.14 1403.48 1492.18 1399 1492.64 1394.6 1493.51 1389.12 1494.57 1383.56 1495.1 1377.98 1495.1 1376.25 1495.1 1374.52 1494.98 1372.8 1494.75 1373.56 1490.76 1375.19 1486.99 1377.58 1483.7 1384.62 1484.39 1391.68 1484.72 1398.74 1484.7 1406.39 1484.71 1414.02 1484.29 1421.62 1483.45 1424.02 1486.67 1425.69 1490.37 1426.51 1494.3ZM1417.31 1478.84C1417.32 1478.85 1417.32 1478.86 1417.31 1478.87 1417.31 1478.88 1417.3 1478.88 1417.3 1478.88 1411.51 1479.41 1405.1 1479.7 1398.73 1479.7 1392.72 1479.7 1386.99 1479.49 1381.85 1479.09 1381.84 1479.09 1381.83 1479.08 1381.83 1479.06 1381.83 1479.06 1381.83 1479.05 1381.84 1479.05 1391.97 1470.19 1407.07 1470.1 1417.31 1478.84ZM1399.69 1527.43C1391.74 1527.42 1384.19 1523.94 1379.02 1517.9 1379.02 1517.89 1379.02 1517.87 1379.03 1517.87 1379.04 1517.86 1379.04 1517.86 1379.05 1517.86 1382.77 1518.66 1386.56 1519.12 1390.37 1519.21 1395.9 1519.25 1401.42 1518.69 1406.83 1517.54 1410.64 1516.69 1414.54 1516.26 1418.45 1516.25 1419.49 1516.25 1420.55 1516.29 1421.61 1516.34 1416.47 1523.3 1408.34 1527.42 1399.69 1527.43ZM1424.46 1511.55C1422.47 1511.38 1420.45 1511.27 1418.44 1511.27 1414.21 1511.28 1410 1511.74 1405.88 1512.65 1400.78 1513.74 1395.57 1514.28 1390.36 1514.23 1385.65 1514.02 1380.98 1513.35 1376.4 1512.24L1375.12 1511.98C1373.24 1508.16 1372.28 1503.96 1372.3 1499.71L1372.3 1499.71C1374.18 1499.96 1376.08 1500.09 1377.97 1500.09 1383.83 1500.09 1389.68 1499.53 1395.43 1498.43 1399.56 1497.61 1403.75 1497.17 1407.96 1497.12 1414.38 1497.26 1420.78 1498.06 1427.04 1499.5L1427.06 1499.53C1427.11 1503.68 1426.22 1507.79 1424.46 1511.55Z" fill="#F2F2F2"/><path d="M1416.12 1486.13C1415.06 1486.12 1414.2 1486.97 1414.19 1488.03 1414.19 1489.09 1415.04 1489.95 1416.1 1489.96 1417.16 1489.96 1418.02 1489.11 1418.02 1488.05 1418.02 1488.05 1418.02 1488.04 1418.02 1488.04 1418.02 1486.98 1417.17 1486.13 1416.12 1486.13Z" fill="#F2F2F2"/><path d="M1395.21 1477.49C1396.26 1477.5 1397.13 1476.65 1397.13 1475.59 1397.14 1474.53 1396.28 1473.67 1395.23 1473.66 1394.17 1473.66 1393.31 1474.51 1393.3 1475.57 1393.3 1475.57 1393.3 1475.57 1393.3 1475.58 1393.3 1476.63 1394.15 1477.49 1395.21 1477.49Z" fill="#F2F2F2"/><path d="M1405.14 1520.98C1404.08 1520.98 1403.22 1521.83 1403.22 1522.89 1403.21 1523.94 1404.06 1524.81 1405.12 1524.81 1406.18 1524.82 1407.04 1523.96 1407.05 1522.91 1407.05 1522.9 1407.05 1522.9 1407.05 1522.89 1407.05 1521.84 1406.2 1520.99 1405.14 1520.98 1405.14 1520.98 1405.14 1520.98 1405.14 1520.98Z" fill="#F2F2F2"/><path d="M1391.72 1502.54C1389.56 1502.52 1387.79 1504.27 1387.78 1506.44 1387.77 1508.6 1389.51 1510.37 1391.68 1510.38 1393.84 1510.39 1395.61 1508.65 1395.62 1506.48 1395.62 1506.47 1395.62 1506.46 1395.62 1506.45 1395.62 1504.29 1393.88 1502.54 1391.72 1502.54Z" fill="#F2F2F2"/><path d="M1348.65 1456.18C1350 1458.01 1351.55 1459.67 1353.28 1461.14 1351.55 1462.61 1350 1464.28 1348.65 1466.1 1347.3 1464.28 1345.75 1462.61 1344.03 1461.14 1345.75 1459.67 1347.3 1458.01 1348.65 1456.18ZM1348.65 1444.96C1346.66 1452.09 1341.66 1458 1334.96 1461.14 1341.66 1464.28 1346.66 1470.19 1348.65 1477.32 1350.64 1470.19 1355.64 1464.28 1362.34 1461.14 1355.64 1458 1350.64 1452.09 1348.65 1444.96Z" fill="#F2F2F2"/><path d="M1345.41 1539.39C1345.83 1539.88 1346.27 1540.35 1346.73 1540.81 1346.27 1541.26 1345.83 1541.74 1345.41 1542.23 1345 1541.73 1344.56 1541.26 1344.1 1540.81 1344.56 1540.35 1345 1539.88 1345.41 1539.39ZM1345.41 1529.6C1344.03 1534.53 1340.58 1538.62 1335.95 1540.81 1340.58 1543 1344.03 1547.08 1345.41 1552.01 1346.8 1547.08 1350.25 1543 1354.88 1540.81 1350.25 1538.62 1346.8 1534.53 1345.41 1529.6Z" fill="#F2F2F2"/><path d="M1474.62 1468.17C1475.77 1469.68 1477.05 1471.08 1478.46 1472.34 1477.05 1473.61 1475.77 1475 1474.62 1476.51 1473.48 1475 1472.2 1473.61 1470.79 1472.34 1472.2 1471.08 1473.48 1469.68 1474.62 1468.17ZM1474.62 1457.41C1472.67 1463.94 1468.06 1469.36 1461.93 1472.34 1468.06 1475.33 1472.67 1480.75 1474.62 1487.28 1476.58 1480.75 1481.19 1475.33 1487.32 1472.34 1481.19 1469.36 1476.58 1463.94 1474.62 1457.41Z" fill="#F2F2F2"/><path d="M1393.71 1560.97C1394.01 1561.31 1394.32 1561.65 1394.64 1561.97 1394.32 1562.29 1394.01 1562.62 1393.71 1562.96 1393.41 1562.62 1393.1 1562.29 1392.78 1561.97 1393.1 1561.65 1393.41 1561.32 1393.71 1560.97ZM1393.71 1552.01C1392.51 1556.42 1389.41 1560.07 1385.25 1561.97 1389.41 1563.86 1392.51 1567.51 1393.71 1571.93 1394.91 1567.51 1398.01 1563.86 1402.18 1561.97 1398.01 1560.07 1394.91 1556.42 1393.71 1552.01Z" fill="#F2F2F2"/></g></svg>