<svg width="1392" height="1393" xmlns="http://www.w3.org/2000/svg" xmlns:xlink="http://www.w3.org/1999/xlink" xml:space="preserve" overflow="hidden"><defs><clipPath id="clip0"><path d="M-537.198 925.387-1232.92 1621.11-1928.64 925.387-1232.92 229.666Z" fill-rule="evenodd" clip-rule="evenodd"/></clipPath><clipPath id="clip1"><path d="M-537.198 925.387-1232.92 1621.11-1928.64 925.387-1232.92 229.666Z" fill-rule="evenodd" clip-rule="evenodd"/></clipPath><clipPath id="clip2"><path d="M-537.198 925.387-1232.92 1621.11-1928.64 925.387-1232.92 229.666Z" fill-rule="evenodd" clip-rule="evenodd"/></clipPath></defs><g transform="translate(1929 -229)"><g clip-path="url(#clip0)"><g clip-path="url(#clip1)"><g clip-path="url(#clip2)"><path d="M-1270.05 368.612C-1123.07 444.921-1023.24 563.256-1018.58 646.509-1008.25 831.305-1139.35 864.092-1091.5 986.092-1054.91 1079.38-963.193 1093.74-972.422 1155.61-980.904 1212.47-1060.35 1213.34-1101.37 1308.63-1122.05 1356.67-1122.7 1385.07-1148.22 1413.88-1184.85 1455.21-1248.27 1464.74-1293.53 1436.57-1345.4 1404.28-1309.94 1339.31-1360.42 1254.61-1422.29 1150.81-1523.11 1168.62-1537.2 1099.24-1554.83 1012.5-1402.58 958.353-1415.28 849.218-1423.9 775.157-1500.1 747.716-1484.76 701.315-1470.73 658.888-1404.67 644.133-1399.79 566.563-1394.44 481.664-1322.23 490.363-1270.05 368.612Z" fill="#2F2F2F"/><path d="M-1217.22 507.18C-1215.54 505.58-1214.19 503.764-1213.17 501.821-1213.16 501.805-1213.17 501.8-1213.18 501.807-1220.91 505.822-1230.65 504.591-1237.13 498.109-1243.61 491.628-1244.84 481.886-1240.83 474.164-1240.82 474.148-1240.83 474.142-1240.84 474.15-1242.64 475.09-1244.32 476.31-1245.83 477.818-1254.07 486.057-1253.83 499.567-1245.1 507.499-1237.25 514.636-1224.92 514.488-1217.22 507.18Z" fill="#505050"/><path d="M-1237.13 498.109C-1244.77 490.472-1246.42 479.738-1240.81 474.135-1235.21 468.531-1224.48 470.18-1216.84 477.818-1209.2 485.455-1207.55 496.189-1213.16 501.792-1218.76 507.396-1229.49 505.747-1237.13 498.109Z" fill="#737373"/><path d="M-1248.4 621.588C-1243.2 623.972-1237.43 625.31-1231.33 625.31-1213.73 625.31-1198.72 614.21-1192.91 598.628-1196.88 579.846-1215.24 554.143-1229.03 543.386-1229.79 543.345-1230.56 543.319-1231.33 543.318-1242.34 543.318-1252.33 547.667-1259.7 554.73-1263.74 566.705-1256.4 611.153-1248.4 621.588Z" fill="#D2D2D2"/><path d="M-1248.4 621.588C-1243.2 623.972-1237.43 625.31-1231.33 625.31-1213.73 625.31-1198.72 614.21-1192.91 598.628-1196.88 579.846-1215.24 554.143-1229.03 543.386-1229.79 543.345-1230.56 543.319-1231.33 543.318-1242.34 543.318-1252.33 547.667-1259.7 554.73-1263.74 566.705-1256.4 611.153-1248.4 621.588Z" fill="#D2D2D2"/><path d="M-1272.33 584.314C-1272.33 600.865-1262.52 615.114-1248.4 621.588-1247.44 615.782-1246.91 609.567-1246.91 603.097-1246.91 582.841-1252 565.033-1259.7 554.73-1267.48 562.192-1272.33 572.683-1272.33 584.314Z" fill="#E6E6E6"/><path d="M-1272.33 584.314C-1272.33 600.865-1262.52 615.114-1248.4 621.588-1247.44 615.782-1246.91 609.567-1246.91 603.097-1246.91 582.841-1252 565.033-1259.7 554.73-1267.48 562.192-1272.33 572.683-1272.33 584.314Z" fill="#E6E6E6"/><path d="M-1192.91 598.628C-1191.25 594.172-1190.34 589.349-1190.34 584.314-1190.34 562.446-1207.46 544.581-1229.03 543.386-1228.11 556.446-1218.89 573.873-1203.6 589.168-1200.12 592.644-1196.53 595.805-1192.91 598.628Z" fill="#E6E6E6"/><path d="M-1192.91 598.628C-1191.25 594.172-1190.34 589.349-1190.34 584.314-1190.34 562.446-1207.46 544.581-1229.03 543.386-1228.11 556.446-1218.89 573.873-1203.6 589.168-1200.12 592.644-1196.53 595.805-1192.91 598.628Z" fill="#E6E6E6"/><path d="M-1241.8 589.388C-1243.21 587.97-1243.23 585.683-1241.82 584.28-1240.42 582.876-1238.13 582.888-1236.71 584.306-1235.3 585.724-1235.28 588.011-1236.69 589.415-1238.09 590.818-1240.38 590.806-1241.8 589.388Z" fill="#F2F2F2"/><path d="M-1228.89 599.691C-1231.02 597.562-1231.04 594.133-1228.94 592.033-1226.84 589.934-1223.42 589.957-1221.29 592.086-1219.16 594.216-1219.13 597.644-1221.23 599.744-1223.33 601.844-1226.76 601.82-1228.89 599.691Z" fill="#F2F2F2"/><path d="M-1153.33 706.664C-1158.99 706.664-1163.58 702.076-1163.58 696.416-1163.58 690.755-1158.99 686.167-1153.33 686.167-1147.67 686.167-1143.08 690.755-1143.08 696.416-1143.08 702.076-1147.67 706.664-1153.33 706.664Z" fill="#E1D15A"/><path d="M-1247.12 665.748C-1253.07 667.923-1259.59 670.579-1266.3 673.542-1269.12 676.183-1271.7 679.174-1273.94 682.526-1277.52 687.886-1279.94 693.676-1281.3 699.608-1272.05 705.655-1247.32 711.839-1228.57 712.033-1208.78 712.236-1191.85 708.94-1181.55 698.858-1184.48 686.827-1191.75 675.816-1202.86 668.394-1209.93 663.666-1217.75 660.947-1225.66 660.073-1232.63 660.626-1241.08 663.536-1247.12 665.748Z" fill="#FFFFFF"/><path d="M-1225.67 717.251C-1255.58 713.662-1272.05 733.097-1274.37 738.835-1270.69 744.535-1265.81 749.597-1259.81 753.607-1237.64 768.427-1208.1 763.655-1191.61 743.363-1193.79 736.383-1206.35 719.57-1225.67 717.251Z" fill="#FFFFFF"/><path d="M-1266.3 673.542C-1260.35 674.129-1253.52 674.659-1245.38 670.791-1239.57 668.027-1240.52 666.554-1234.29 663.413-1233.36 662.944-1230.17 661.389-1225.71 660.089-1225.7 660.085-1225.7 660.068-1225.72 660.068-1240.31 658.471-1255.19 663.208-1266.2 673.455-1266.21 673.463-1266.25 673.501-1266.3 673.542Z" fill="#E1D15A"/><path d="M-1274.37 738.834C-1271.42 736.805-1267.52 735.574-1263.61 736.205-1253.72 737.8-1248.09 744.524-1240.3 741.916-1231.94 739.112-1233.12 724.809-1225.5 723.456-1219.72 722.429-1213.71 729.716-1213 730.577-1207.24 737.566-1208.7 744.889-1204.78 745.936-1201.15 746.906-1198.6 740.962-1194.54 741.684-1193.5 741.87-1192.51 742.474-1191.61 743.364-1190.6 742.123-1189.64 740.831-1188.73 739.475-1180.43 727.051-1178.28 712.316-1181.55 698.858-1188.69 702.455-1204.08 699.35-1213.86 691.861-1223.13 684.757-1231.12 670.817-1231.45 670.255-1231.45 670.242-1231.46 670.25-1231.46 670.265-1233 679.098-1236.16 689.349-1243.42 691.828-1249.08 693.762-1253.28 689.61-1260.19 689.25-1265.6 688.969-1272.65 691.019-1281.29 699.601-1284.36 713.073-1281.83 727.273-1274.37 738.834Z" fill="#E1D15A"/><path d="M-1190.34 838.037C-1190.34 821.148-1200.55 806.648-1215.14 800.369L-1215.14 875.704C-1200.55 869.425-1190.34 854.925-1190.34 838.037Z" fill="#505050"/><path d="M-1247.94 800.555C-1249.85 801.402-1251.68 802.39-1253.42 803.507-1253.42 803.507-1260.02 811.898-1262.78 823.348-1265.53 834.799-1258.7 868.559-1258.7 868.559-1255.52 871.409-1251.89 873.765-1247.94 875.518-1247.94 875.518-1229.27 856.922-1231.33 833.349-1233.38 809.776-1247.94 800.555-1247.94 800.555Z" fill="#737373"/><path d="M-1272.33 838.037C-1272.33 850.162-1267.06 861.053-1258.7 868.559-1258.7 868.559-1250.7 863.094-1255.93 840.087-1260.91 818.188-1253.85 804.322-1253.44 803.542-1253.43 803.522-1253.44 803.517-1253.45 803.529-1264.8 810.82-1272.33 823.545-1272.33 838.037Z" fill="#505050"/><path d="M-1215.14 875.704C-1215.14 875.704-1204.69 861.609-1206.74 831.887-1207.8 816.415-1215.14 800.369-1215.14 800.369-1220.11 798.23-1225.58 797.041-1231.33 797.041-1231.97 797.041-1232.6 797.06-1233.22 797.089-1233.22 797.089-1240.24 813.655-1236.83 831.32-1233.43 848.984-1223.72 878.314-1223.72 878.314-1220.73 877.754-1217.86 876.875-1215.14 875.704Z" fill="#2F2F2F"/><path d="M-1231.33 879.032C-1228.73 879.032-1226.19 878.779-1223.72 878.314-1223.72 878.314-1216.44 858.543-1223.13 839.061-1234.41 806.265-1233.22 797.089-1233.22 797.089-1238.44 797.325-1243.4 798.544-1247.94 800.555-1247.94 800.555-1233.38 815.489-1244.66 829.838-1255.42 843.538-1247.94 875.519-1247.94 875.519-1242.86 877.772-1237.25 879.033-1231.33 879.032Z" fill="#505050"/><path d="M-1244.8 853.632C-1246.22 852.22-1246.22 849.93-1244.8 848.517-1243.39 847.105-1241.1 847.105-1239.69 848.517-1238.28 849.93-1238.28 852.22-1239.69 853.632-1241.1 855.045-1243.39 855.045-1244.8 853.632Z" fill="#737373"/><path d="M-1236.74 869.106C-1238.86 866.987-1238.86 863.552-1236.74 861.434-1234.63 859.315-1231.19 859.315-1229.07 861.434-1226.95 863.552-1226.95 866.987-1229.07 869.106-1231.19 871.224-1234.63 871.224-1236.74 869.106Z" fill="#2F2F2F"/><path d="M-1236.39 1045.3C-1236.39 1045.3-1217.92 1042.73-1194.15 1018.51-1171.25 995.177-1170.9 972.679-1170.9 972.679-1171.53 969.34-1172.4 966.093-1173.54 962.968-1173.54 962.968-1183.93 962.782-1216.83 995.684-1249.73 1028.59-1248.35 1043.12-1248.35 1043.12-1244.5 1044.22-1240.5 1044.96-1236.39 1045.3Z" fill="#E6E6E6"/><path d="M-1231.33 1045.52C-1226.61 1045.52-1222.01 1044.97-1217.59 1043.96-1194.54 1038.7-1176.6 1020.71-1171.38 997.655-1170.38 993.267-1169.84 988.712-1169.84 984.025-1169.84 980.161-1170.21 976.385-1170.89 972.718-1170.9 972.697-1170.91 972.693-1170.91 972.714-1171.25 973.693-1178.69 994.922-1205.71 1021.95-1223.59 1039.82-1235.58 1044.96-1236.35 1045.28-1236.37 1045.29-1236.37 1045.3-1236.34 1045.3-1234.69 1045.43-1233.02 1045.52-1231.33 1045.52Z" fill="#D2D2D2"/><path d="M-1248.35 1043.12C-1248.35 1043.12-1235.11 1038.02-1207.76 1010.67-1178.04 980.95-1173.54 962.969-1173.54 962.969-1176.11 955.919-1179.94 949.481-1184.75 943.904L-1282.6 1012.03-1283.38 1016.77C-1275.42 1029.39-1263.01 1038.9-1248.35 1043.12Z" fill="#F2F2F2"/><path d="M-1283.38 1016.77C-1283.38 1016.77-1245.06 981.57-1237.48 1001.45-1229.28 1022.97-1184.75 943.904-1184.75 943.904-1187.83 940.339-1191.29 937.13-1195.1 934.348-1195.1 934.348-1207.63 935.316-1244.22 965.778-1282.38 997.532-1287.35 1009.4-1287.35 1009.4-1286.19 1011.95-1284.86 1014.41-1283.38 1016.77Z" fill="#D2D2D2"/><path d="M-1283.38 1016.77C-1283.38 1016.77-1245.06 981.57-1237.48 1001.45-1229.28 1022.97-1184.75 943.904-1184.75 943.904-1187.83 940.339-1191.29 937.13-1195.1 934.348-1195.1 934.348-1207.63 935.316-1244.22 965.778-1282.38 997.532-1287.35 1009.4-1287.35 1009.4-1286.19 1011.95-1284.86 1014.41-1283.38 1016.77Z" fill="#D2D2D2"/><path d="M-1292.56 978.432C-1292.56 978.432-1283.94 977.276-1261.18 954.521-1238.43 931.765-1236.93 922.796-1236.93 922.796-1266.42 925.458-1289.9 948.936-1292.56 978.432Z" fill="#D2D2D2"/><path d="M-1292.83 984.026C-1292.83 993.075-1290.86 1001.66-1287.35 1009.4L-1195.1 934.348C-1205.26 926.924-1217.78 922.531-1231.33 922.531-1233.22 922.531-1235.08 922.629-1236.93 922.796-1236.93 922.796-1257.98 937.905-1268.23 948.154-1278.48 958.404-1292.56 978.432-1292.56 978.432-1292.73 980.276-1292.83 982.139-1292.83 984.026Z" fill="#E6E6E6"/><path d="M-1292.83 984.026C-1292.83 993.075-1290.86 1001.66-1287.35 1009.4L-1195.1 934.348C-1205.26 926.924-1217.78 922.531-1231.33 922.531-1233.22 922.531-1235.08 922.629-1236.93 922.796-1236.93 922.796-1257.98 937.905-1268.23 948.154-1278.48 958.404-1292.56 978.432-1292.56 978.432-1292.73 980.276-1292.83 982.139-1292.83 984.026Z" fill="#E6E6E6"/><path d="M-1264.96 973.78C-1268.96 969.778-1262.8 957.123-1251.19 945.516-1239.58 933.909-1226.93 927.744-1222.93 931.746-1218.92 935.749-1225.09 948.403-1236.7 960.01-1248.3 971.618-1260.96 977.783-1264.96 973.78Z" fill="#D2D2D2"/><path d="M-1252.35 964.87C-1254 963.221-1251.46 958.006-1246.68 953.221-1241.89 948.436-1236.67 945.893-1235.03 947.542-1233.38 949.191-1235.92 954.407-1240.7 959.192-1245.49 963.977-1250.71 966.519-1252.35 964.87Z" fill="#E6E6E6"/><path d="M-1282.58 1152.05C-1282.58 1156.16-1282.08 1160.15-1281.16 1163.99-1281.16 1163.99-1257.27 1175.56-1233.93 1178.31-1210.6 1181.06-1184.88 1173.69-1184.88 1173.69-1181.81 1167.11-1180.09 1159.78-1180.09 1152.04-1180.09 1143.57-1182.16 1135.58-1185.8 1128.54-1185.8 1128.54-1205.09 1122.8-1233.21 1125.12-1261.33 1127.44-1280.26 1136.75-1280.26 1136.75-1281.76 1141.58-1282.58 1146.72-1282.58 1152.05Z" fill="#F2F2F2"/><path d="M-1282.58 1152.05C-1282.58 1156.16-1282.08 1160.15-1281.16 1163.99-1281.16 1163.99-1257.27 1175.56-1233.93 1178.31-1210.6 1181.06-1184.88 1173.69-1184.88 1173.69-1181.81 1167.11-1180.09 1159.78-1180.09 1152.04-1180.09 1143.57-1182.16 1135.58-1185.8 1128.54-1185.8 1128.54-1205.09 1122.8-1233.21 1125.12-1261.33 1127.44-1280.26 1136.75-1280.26 1136.75-1281.76 1141.58-1282.58 1146.72-1282.58 1152.05Z" fill="#F2F2F2"/><path d="M-1185.8 1128.54C-1187.16 1125.92-1188.73 1123.43-1190.5 1121.09-1190.5 1121.09-1212.48 1111.93-1233.64 1112.51-1254.81 1113.09-1272.17 1121.09-1272.17 1121.09-1275.71 1125.75-1278.47 1131.04-1280.26 1136.75L-1185.8 1128.54Z" fill="#D2D2D2"/><path d="M-1185.8 1128.54C-1187.16 1125.92-1188.73 1123.43-1190.5 1121.09-1190.5 1121.09-1212.48 1111.93-1233.64 1112.51-1254.81 1113.09-1272.17 1121.09-1272.17 1121.09-1275.71 1125.75-1278.47 1131.04-1280.26 1136.75L-1185.8 1128.54Z" fill="#D2D2D2"/><path d="M-1231.33 1100.8C-1248 1100.8-1262.81 1108.76-1272.17 1121.09L-1190.5 1121.09C-1199.86 1108.76-1214.66 1100.8-1231.33 1100.8Z" fill="#E6E6E6"/><path d="M-1231.33 1100.8C-1248 1100.8-1262.81 1108.76-1272.17 1121.09L-1190.5 1121.09C-1199.86 1108.76-1214.66 1100.8-1231.33 1100.8Z" fill="#E6E6E6"/><path d="M-1231.33 1203.29C-1210.77 1203.29-1193.04 1191.17-1184.88 1173.69L-1281.16 1163.99C-1275.78 1186.53-1255.52 1203.29-1231.33 1203.29Z" fill="#D2D2D2"/><path d="M-1231.33 1203.29C-1210.77 1203.29-1193.04 1191.17-1184.88 1173.69L-1281.16 1163.99C-1275.78 1186.53-1255.52 1203.29-1231.33 1203.29Z" fill="#D2D2D2"/><path d="M-1280.95 1164.71C-1281.45 1162.77-1281.83 1160.79-1282.1 1158.77-1291.39 1156.11-1296.97 1152.71-1296.97 1149-1296.97 1145.14-1290.91 1141.61-1280.93 1138.91-1268.89 1135.65-1251.15 1133.58-1231.33 1133.58-1211.52 1133.58-1193.77 1135.65-1181.74 1138.91-1171.75 1141.61-1165.7 1145.14-1165.7 1149-1165.7 1152.71-1171.28 1156.11-1180.57 1158.77-1180.84 1160.79-1181.22 1162.77-1181.72 1164.71-1157.7 1160.94-1141.88 1154.52-1141.88 1147.23-1141.88 1139.57-1159.31 1132.87-1185.36 1129.2-1198.79 1127.31-1214.52 1126.22-1231.33 1126.22-1248.15 1126.22-1263.87 1127.31-1277.31 1129.2-1303.35 1132.88-1320.78 1139.57-1320.78 1147.23-1320.78 1154.52-1304.96 1160.94-1280.95 1164.71Z" fill="#E6E6E6"/><path d="M-1231.61 1307.31C-1217.66 1307.31-1199.73 1291.95-1201.85 1278.57-1205.6 1265.83-1217.38 1256.53-1231.33 1256.53-1245.29 1256.53-1257.06 1265.83-1260.82 1278.57-1263.94 1288.9-1245.57 1307.31-1231.61 1307.31Z" fill="#737373"/><path d="M-1200.69 1289.85C-1200.37 1285.92-1200.8 1282.13-1201.84 1278.6-1201.84 1278.58-1201.85 1278.59-1201.86 1278.6-1205.63 1291.32-1217.39 1300.61-1231.33 1300.61-1245.28 1300.61-1257.04 1291.32-1260.81 1278.6-1260.82 1278.58-1260.83 1278.58-1260.83 1278.6-1261.64 1281.36-1262.08 1284.27-1262.08 1287.28-1262.08 1304.8-1247.42 1318.9-1229.7 1317.99-1215.22 1317.24-1201.89 1304.29-1200.69 1289.85Z" fill="#505050"/><path d="M-1227.97 1309.55C-1229.04 1309.55-1229.91 1303.5-1229.91 1296.03-1229.91 1288.56-1229.04 1282.5-1227.97 1282.5-1226.9 1282.5-1226.04 1288.56-1226.04 1296.03-1226.04 1303.5-1226.91 1309.55-1227.97 1309.55Z" fill="#2F2F2F"/><path d="M-1231.08 1398.48C-1219.49 1398.48-1202.97 1384.66-1204.42 1373.16-1209.66 1363.69-1219.74 1357.27-1231.33 1357.27-1242.92 1357.27-1253.01 1363.69-1258.25 1373.16-1259.11 1384.37-1242.67 1398.48-1231.08 1398.48Z" fill="#505050"/><path d="M-1200.62 1389.4C-1200.36 1383.5-1201.77 1377.95-1204.41 1373.17-1204.41 1373.16-1204.42 1373.16-1204.43 1373.17-1209.67 1382.63-1219.75 1389.04-1231.33 1389.04-1242.92 1389.04-1253 1382.63-1258.24 1373.17-1258.25 1373.16-1258.26 1373.16-1258.26 1373.17-1260.69 1377.57-1262.08 1382.63-1262.08 1388.02-1262.08 1405.65-1247.24 1419.81-1229.37 1418.7-1213.83 1417.74-1201.3 1404.95-1200.62 1389.4Z" fill="#737373"/><path d="M-1221.45 1407.97C-1222.52 1407.97-1223.38 1401.91-1223.38 1394.44-1223.38 1386.98-1222.51 1380.92-1221.45 1380.92-1220.38 1380.92-1219.51 1386.98-1219.51 1394.45-1219.51 1401.91-1220.38 1407.97-1221.45 1407.97Z" fill="#2F2F2F"/><path d="M-1245.26 1391.41C-1246.33 1391.41-1247.19 1385.35-1247.19 1377.88-1247.19 1370.41-1246.32 1364.36-1245.26 1364.36-1244.19 1364.36-1243.32 1370.41-1243.32 1377.88-1243.32 1385.35-1244.19 1391.41-1245.26 1391.41Z" fill="#2F2F2F"/><path d="M-1228.35 1505.31C-1239.64 1506.24-1249.53 1497.84-1250.46 1486.56-1251.39 1475.27-1242.99 1465.38-1231.71 1464.45-1220.43 1463.52-1210.53 1471.92-1209.6 1483.2-1208.68 1494.49-1217.07 1504.38-1228.35 1505.31Z" fill="#737373"/><path d="M-1226.99 1479.75C-1228.12 1479.84-1229.11 1479-1229.2 1477.87-1229.3 1476.74-1228.46 1475.75-1227.33 1475.66-1226.2 1475.57-1225.21 1476.41-1225.12 1477.54-1225.03 1478.67-1225.87 1479.66-1226.99 1479.75Z" fill="#2F2F2F"/><path d="M-1232.55 1490.76C-1234.24 1490.9-1235.72 1489.64-1235.86 1487.95-1236 1486.26-1234.74 1484.77-1233.05 1484.63-1231.36 1484.5-1229.87 1485.75-1229.73 1487.45-1229.59 1489.14-1230.85 1490.62-1232.55 1490.76Z" fill="#D2D2D2"/><path d="M-1218.58 1489.22C-1221.12 1489.43-1223.35 1487.54-1223.56 1485-1223.77 1482.46-1221.88 1480.24-1219.34 1480.03-1216.8 1479.82-1214.57 1481.71-1214.37 1484.25-1214.16 1486.78-1216.05 1489.01-1218.58 1489.22Z" fill="#2F2F2F"/><path d="M-1320.91 514.473C-1323.51 511.872-1323.51 507.654-1320.91 505.052-1318.3 502.451-1314.09 502.451-1311.48 505.052-1308.88 507.654-1308.88 511.872-1311.48 514.473-1314.09 517.075-1318.3 517.075-1320.91 514.473Z" fill="#E1D15A"/><path d="M-1315.99 543.452C-1317.29 542.151-1317.29 540.042-1315.99 538.741-1314.69 537.44-1312.58 537.44-1311.28 538.741-1309.98 540.042-1309.98 542.151-1311.28 543.452-1312.58 544.752-1314.69 544.752-1315.99 543.452Z" fill="#D2D2D2"/><path d="M-1118.56 800.507C-1119.86 799.206-1119.86 797.097-1118.56 795.796-1117.26 794.495-1115.15 794.495-1113.85 795.796-1112.55 797.097-1112.55 799.206-1113.85 800.507-1115.15 801.808-1117.26 801.808-1118.56 800.507Z" fill="#D2D2D2"/><path d="M-1125.45 874.789C-1126.75 873.489-1126.75 871.38-1125.45 870.079-1124.15 868.778-1122.04 868.778-1120.74 870.079-1119.44 871.38-1119.44 873.489-1120.74 874.789-1122.04 876.09-1124.15 876.09-1125.45 874.789Z" fill="#D2D2D2"/><path d="M-1167.53 831.257C-1170.13 828.655-1170.13 824.437-1167.53 821.836-1164.93 819.234-1160.71 819.234-1158.11 821.836-1155.51 824.437-1155.51 828.655-1158.11 831.257-1160.71 833.859-1164.93 833.859-1167.53 831.257Z" fill="#505050"/><path d="M-1138.67 850.693C-1141.27 848.091-1141.27 843.873-1138.67 841.272-1136.07 838.67-1131.85 838.67-1129.25 841.272-1126.65 843.873-1126.65 848.091-1129.25 850.693-1131.85 853.294-1136.07 853.294-1138.67 850.693Z" fill="#F2F2F2"/><path d="M-1179.8 902.328C-1181.1 901.028-1181.1 898.919-1179.8 897.618-1178.5 896.317-1176.39 896.317-1175.09 897.618-1173.79 898.919-1173.79 901.028-1175.09 902.328-1176.39 903.629-1178.5 903.629-1179.8 902.328Z" fill="#D2D2D2"/><path d="M-1117.84 984.583C-1119.14 983.282-1119.14 981.173-1117.84 979.872-1116.54 978.572-1114.43 978.572-1113.13 979.872-1111.83 981.173-1111.83 983.282-1113.13 984.583-1114.43 985.884-1116.54 985.884-1117.84 984.583Z" fill="#D2D2D2"/><path d="M-1135.59 951.609C-1136.89 950.308-1136.89 948.199-1135.59 946.898-1134.29 945.597-1132.18 945.597-1130.88 946.898-1129.58 948.199-1129.58 950.308-1130.88 951.609-1132.18 952.909-1134.29 952.91-1135.59 951.609Z" fill="#F2F2F2"/><path d="M-1087.94 1049.26C-1090.54 1046.66-1090.54 1042.44-1087.94 1039.84-1085.34 1037.24-1081.12 1037.24-1078.52 1039.84-1075.92 1042.44-1075.92 1046.66-1078.52 1049.26-1081.12 1051.86-1085.34 1051.86-1087.94 1049.26Z" fill="#E1D15A"/><path d="M-1149.54 993.461C-1152.14 990.859-1152.14 986.641-1149.54 984.039-1146.94 981.438-1142.72 981.438-1140.12 984.039-1137.52 986.641-1137.52 990.859-1140.12 993.461-1142.72 996.062-1146.94 996.062-1149.54 993.461Z" fill="#D2D2D2"/><path d="M-1158.05 874.634C-1160.65 872.033-1160.65 867.815-1158.05 865.213-1155.45 862.612-1151.23 862.612-1148.63 865.213-1146.03 867.815-1146.03 872.033-1148.63 874.634-1151.23 877.236-1155.45 877.236-1158.05 874.634Z" fill="#D2D2D2"/><path d="M-1138.26 1238.63C-1141.86 1235.02-1141.86 1229.18-1138.26 1225.58-1134.66 1221.98-1128.82 1221.98-1125.22 1225.58-1121.62 1229.18-1121.62 1235.02-1125.22 1238.63-1128.82 1242.23-1134.66 1242.23-1138.26 1238.63Z" fill="#E1D15A"/><path d="M-1169.24 1264.17C-1170.54 1262.87-1170.54 1260.76-1169.24 1259.46-1167.94 1258.16-1165.83 1258.16-1164.53 1259.46-1163.23 1260.76-1163.23 1262.87-1164.53 1264.17-1165.83 1265.47-1167.94 1265.47-1169.24 1264.17Z" fill="#D2D2D2"/><path d="M-1151.13 1248.95C-1152.43 1247.65-1152.43 1245.54-1151.13 1244.24-1149.83 1242.94-1147.72 1242.94-1146.42 1244.24-1145.11 1245.54-1145.11 1247.65-1146.42 1248.95-1147.72 1250.25-1149.83 1250.25-1151.13 1248.95Z" fill="#D2D2D2"/><path d="M-1181.38 1344.8C-1183.98 1342.2-1183.98 1337.98-1181.38 1335.38-1178.78 1332.77-1174.56 1332.77-1171.96 1335.38-1169.36 1337.98-1169.36 1342.2-1171.96 1344.8-1174.56 1347.4-1178.78 1347.4-1181.38 1344.8Z" fill="#D2D2D2"/><path d="M-1164.71 1220.87C-1167.32 1218.27-1167.32 1214.05-1164.71 1211.45-1162.11 1208.85-1157.89 1208.85-1155.29 1211.45-1152.69 1214.05-1152.69 1218.27-1155.29 1220.87-1157.89 1223.47-1162.11 1223.47-1164.71 1220.87Z" fill="#D2D2D2"/><path d="M-1298.44 1078.45C-1302.04 1074.84-1302.04 1069-1298.44 1065.4-1294.84 1061.8-1289 1061.8-1285.4 1065.4-1281.8 1069-1281.8 1074.84-1285.4 1078.45-1289 1082.05-1294.84 1082.05-1298.44 1078.45Z" fill="#D2D2D2"/><path d="M-1329.42 1103.99C-1330.72 1102.69-1330.72 1100.58-1329.42 1099.28-1328.12 1097.98-1326.01 1097.98-1324.71 1099.28-1323.41 1100.58-1323.41 1102.69-1324.71 1103.99-1326.01 1105.29-1328.12 1105.29-1329.42 1103.99Z" fill="#D2D2D2"/><path d="M-1311.31 1088.77C-1312.61 1087.47-1312.61 1085.36-1311.31 1084.06-1310.01 1082.76-1307.9 1082.76-1306.6 1084.06-1305.29 1085.36-1305.29 1087.47-1306.6 1088.77-1307.9 1090.07-1310.01 1090.07-1311.31 1088.77Z" fill="#D2D2D2"/><path d="M-1341.56 1184.62C-1344.16 1182.02-1344.16 1177.8-1341.56 1175.2-1338.96 1172.59-1334.74 1172.59-1332.14 1175.2-1329.54 1177.8-1329.54 1182.02-1332.14 1184.62-1334.74 1187.22-1338.96 1187.22-1341.56 1184.62Z" fill="#E1D15A"/><path d="M-1324.89 1060.69C-1327.5 1058.09-1327.5 1053.87-1324.89 1051.27-1322.29 1048.67-1318.07 1048.67-1315.47 1051.27-1312.87 1053.87-1312.87 1058.09-1315.47 1060.69-1318.07 1063.29-1322.29 1063.29-1324.89 1060.69Z" fill="#D2D2D2"/><path d="M-1344.61 941.781C-1345.91 940.48-1345.91 938.371-1344.61 937.07-1343.31 935.77-1341.2 935.77-1339.9 937.07-1338.6 938.371-1338.6 940.48-1339.9 941.781-1341.2 943.082-1343.31 943.082-1344.61 941.781Z" fill="#D2D2D2"/><path d="M-1351.82 1029.05C-1353.12 1027.75-1353.12 1025.65-1351.82 1024.34-1350.52 1023.04-1348.41 1023.04-1347.11 1024.34-1345.81 1025.65-1345.81 1027.75-1347.11 1029.05-1348.41 1030.36-1350.52 1030.36-1351.82 1029.05Z" fill="#E1D15A"/></g></g></g></g></svg>