<svg width="239" height="238" xmlns="http://www.w3.org/2000/svg" xmlns:xlink="http://www.w3.org/1999/xlink" xml:space="preserve" overflow="hidden"><g transform="translate(-1325 -517)"><path d="M121.189 91.4565 159.314 76.7327 160.776 80.3151 213.979 59.7702 198.385 21.5192 145.981 44.0176 147.441 47.6 49.4668 89.6665 51.4006 94.4116 24.0479 106.15 30.1491 121.117 57.9158 110.395 59.852 115.142 110.033 95.7653 67.1433 197.369C66.5842 198.619 67.1443 200.085 68.3943 200.644 69.644 201.203 71.1104 200.643 71.6695 199.393 71.6836 199.362 71.697 199.33 71.7099 199.298L94.1067 146.244C94.1464 146.244 94.1786 146.266 94.2183 146.266L114.052 146.266 114.052 208.25C114.052 209.619 115.162 210.729 116.531 210.729 117.9 210.729 119.01 209.619 119.01 208.25L119.01 146.271 138.843 146.271C138.883 146.271 138.915 146.251 138.955 146.249L161.352 199.303C161.858 200.575 163.299 201.196 164.572 200.69 165.844 200.183 166.465 198.742 165.959 197.47 165.946 197.437 165.932 197.405 165.918 197.374ZM195.7 28.0642 207.479 56.9688 163.531 73.9387 157.97 60.3032 152.412 46.6678ZM32.9134 114.738 30.4888 108.788 53.2723 99.008 54.6582 102.407 56.044 105.808ZM62.5419 108.61 62.5419 108.61 55.9573 92.4531 55.9573 92.4531 55.8953 92.2994 149.31 52.1914 153.376 62.1676 157.442 72.1438 62.6064 108.766ZM114.042 141.312 96.1917 141.312 114.004 99.127C114.029 99.065 114.052 99.0675 114.052 99.127ZM119 141.312 119 99.1369C119 99.0675 119.022 99.065 119.047 99.1369L136.85 141.312Z" fill="#F2F2F2" transform="matrix(1.0042 0 0 1 1325 517)"/></g></svg>