<svg width="720" height="720" xmlns="http://www.w3.org/2000/svg" xmlns:xlink="http://www.w3.org/1999/xlink" xml:space="preserve" overflow="hidden"><g transform="translate(-236 -35)"><path d="M866 395.767C866 544.883 745.117 665.766 596 665.766 446.883 665.766 326 544.883 326 395.766 326 246.65 446.883 125.766 596 125.766 745.117 125.766 866 246.65 866 395.767Z" fill="#E1D15A"/><path d="M775.1 318.388C775.1 311.671 767.938 303.275 759.917 304.271 753.832 306.182 749.417 311.866 749.417 318.582 749.417 325.299 753.832 330.982 759.917 332.894 768.5 333.875 775.1 325.104 775.1 318.388Z" fill="#737373"/><path d="M764.808 303.587C763.109 303.544 761.472 303.785 759.94 304.263 759.927 304.267 759.927 304.274 759.94 304.278 766.013 306.196 770.416 311.874 770.416 318.582 770.416 325.29 766.012 330.968 759.94 332.887 759.927 332.89 759.927 332.897 759.94 332.901 761.353 333.342 762.857 333.582 764.416 333.582 772.945 333.582 779.81 326.466 779.399 317.848 779.029 310.092 772.572 303.787 764.808 303.587Z" fill="#505050"/><path d="M462.441 319.81C461.593 317.94 460.623 316.14 459.537 314.417 453.715 305.182 444.633 298.218 433.901 295.134 431.086 294.325 428.161 293.784 425.149 293.539 423.929 293.44 422.699 293.375 421.452 293.375 418.023 293.375 414.689 293.771 411.48 294.498 411.48 294.498 400.95 298.85 393.05 307.15 382.761 317.96 377.575 328.402 377.575 328.402 376.849 331.612 376.452 334.946 376.452 338.375 376.452 341.213 376.726 343.986 377.229 346.677 377.685 349.12 378.328 351.497 379.161 353.784 381.041 358.943 383.847 363.654 387.364 367.734 389.613 370.343 392.152 372.692 394.939 374.728 402.375 380.16 411.537 383.375 421.452 383.375 422.833 383.375 424.196 383.303 425.545 383.182 425.545 383.182 433.738 382.328 451.25 366.55 461.35 357.45 466.258 342.469 466.258 342.469 466.38 341.119 466.452 339.757 466.452 338.375 466.452 331.753 465.01 325.471 462.441 319.81Z" fill="#737373"/><path d="M433.883 295.128C430.967 294.198 427.611 293.6 425.149 293.539 425.149 293.539 416.223 297.104 402.702 310.625 382.452 330.875 377.221 346.705 377.221 346.705 377.497 348.612 378.229 351.481 379.15 353.763 379.155 353.776 379.161 353.776 379.164 353.763 379.329 353.139 382.983 340.094 404.202 318.875 423.771 299.306 433.466 295.307 433.887 295.139 433.896 295.135 433.893 295.131 433.883 295.128Z" fill="#505050"/><path d="M377.594 328.384 411.46 294.517C411.471 294.506 411.468 294.501 411.453 294.504 394.633 298.323 381.399 311.555 377.581 328.376 377.578 328.39 377.583 328.394 377.594 328.384Z" fill="#505050"/><path d="M425.574 383.179C447.135 381.22 464.296 364.059 466.256 342.497 466.258 342.481 466.252 342.478 466.243 342.491 465.795 343.127 455.782 357.294 448.452 364.625 441.117 371.961 426.218 382.698 425.568 383.166 425.555 383.175 425.558 383.181 425.574 383.179Z" fill="#505050"/><path d="M459.543 314.412C459.543 314.412 431.493 340.172 425.952 325.625 419.952 309.875 387.364 367.734 387.364 367.734 389.284 370.091 391.988 372.654 394.932 374.731L462.445 319.805C461.637 317.934 460.67 316.12 459.543 314.412Z" fill="#505050"/><path d="M446.059 345.873C443.13 342.944 433.87 347.455 425.376 355.949 416.882 364.443 412.371 373.703 415.299 376.632 418.229 379.561 427.488 375.05 435.982 366.556 444.477 358.062 448.988 348.802 446.059 345.873ZM432.678 360.918C429.177 364.419 425.361 366.279 424.154 365.073 422.948 363.866 424.808 360.049 428.31 356.548 431.811 353.047 435.628 351.186 436.834 352.393 438.041 353.599 436.18 357.416 432.678 360.918Z" fill="#2F2F2F"/><path d="M672.904 242.652C670.775 240.523 668.449 238.714 665.992 237.204 665.992 237.204 646.7 240.65 632.9 252.8 619.1 264.95 611.151 282.004 611.151 282.004 612.966 286.995 615.867 291.682 619.871 295.685 624.256 300.07 629.46 303.133 634.988 304.891 634.988 304.891 654.8 292.4 666.65 278.9 678.5 265.4 679.615 251.765 679.615 251.765 677.896 248.486 675.66 245.407 672.904 242.652Z" fill="#737373"/><path d="M672.904 295.685C681.53 287.059 685.07 275.276 683.533 264.054 683.533 264.054 681.018 260.568 678.2 263.75 675.381 266.932 669.307 277.807 662.45 284.15 655.442 290.634 645.094 297.393 641.75 300.65 638.406 303.906 641.273 306.315 641.273 306.315 652.495 307.851 664.278 304.311 672.904 295.685Z" fill="#737373"/><path d="M619.871 242.652C609.229 253.293 606.329 268.736 611.151 282.004L665.992 237.204C651.545 228.326 632.387 230.136 619.871 242.652Z" fill="#505050"/><path d="M679.615 251.765C679.615 251.765 670.578 267.821 659 279.65 645.2 293.75 629.698 302.735 629.698 302.735 631.417 303.589 633.183 304.317 634.988 304.891 635.518 305.059 636.05 305.215 636.585 305.36 636.589 305.362 636.591 305.362 636.595 305.363 637.127 305.507 637.661 305.638 638.197 305.758 638.197 305.758 638.197 305.758 638.197 305.758L638.197 305.758C639.216 305.986 640.242 306.174 641.273 306.315 641.273 306.315 653.75 299.573 664.25 289.823 674.75 280.073 683.533 264.054 683.533 264.054 682.953 259.81 681.648 255.647 679.615 251.765Z" fill="#2F2F2F"/><path d="M695.166 225.375C691.393 221.602 679.882 226.464 665.505 236.941 666.766 237.685 667.989 238.516 669.174 239.419 675.358 235.987 680.006 234.861 681.925 236.78 683.923 238.778 682.614 243.736 678.847 250.302 674.307 258.216 666.192 268.468 655.939 278.721 645.687 288.973 635.434 297.089 627.52 301.629 620.955 305.396 615.997 306.705 613.999 304.706 612.08 302.787 613.206 298.14 616.638 291.955 615.735 290.77 614.903 289.548 614.161 288.286 603.682 302.664 598.82 314.174 602.594 317.947 606.555 321.908 619.04 316.354 634.416 304.778 642.35 298.807 651.052 291.233 659.752 282.533 668.451 273.833 676.025 265.131 681.996 257.198 693.573 241.821 699.127 229.336 695.166 225.375Z" fill="#505050"/><path d="M606.125 183.5C606.125 170.338 592.175 155.45 576.714 156.32 564.571 159.556 555.623 170.624 555.623 183.786 555.623 196.948 564.571 208.017 576.714 211.251 591.575 212.975 606.125 196.662 606.125 183.5Z" fill="#F2F2F2"/><path d="M586.91 155.502C583.367 155.149 579.944 155.463 576.741 156.313 576.726 156.317 576.726 156.324 576.741 156.327 588.87 159.572 597.805 170.634 597.805 183.786 597.805 196.938 588.415 207.884 576.286 211.128 576.271 211.133 576.271 211.139 576.286 211.143 578.619 211.763 581.523 212.212 584.049 212.212 600.308 212.212 613.378 198.564 612.427 182.1 611.629 168.266 600.699 156.872 586.91 155.502Z" fill="#D2D2D2"/><path d="M602.826 190.801C601.257 190.801 599.984 192.073 599.984 193.644 599.984 195.214 601.257 196.486 602.826 196.486 604.396 196.486 605.669 195.214 605.669 193.644 605.669 192.073 604.396 190.801 602.826 190.801Z" fill="#F2F2F2"/><path d="M584.078 166.18C577.844 166.18 572.79 171.234 572.79 177.468 572.79 183.703 577.844 188.757 584.078 188.757 590.313 188.757 595.367 183.703 595.367 177.468 595.367 171.234 590.313 166.18 584.078 166.18ZM584.078 182.829C580.545 182.829 577.681 179.964 577.681 176.431 577.681 172.897 580.545 170.033 584.078 170.033 587.611 170.033 590.476 172.897 590.476 176.431 590.476 179.964 587.612 182.829 584.078 182.829Z" fill="#E6E6E6"/><path d="M584.078 170.033C580.545 170.033 577.681 172.897 577.681 176.431 577.681 179.964 580.545 182.829 584.078 182.829 587.611 182.829 590.476 179.964 590.476 176.431 590.476 172.897 587.612 170.033 584.078 170.033Z" fill="#F2F2F2"/><path d="M568.491 171.527C570.603 168.048 569.945 163.658 567.19 160.902 562.231 164.45 558.725 169.1 557.098 174.709 561.105 176.77 566.118 175.438 568.491 171.527Z" fill="#E6E6E6"/><path d="M581.107 199.434C580.515 193.572 575.991 188.709 570.185 187.706 564.867 186.787 559.975 189.109 557.132 192.963 557.861 195.535 559.067 197.884 560.671 199.962 561.095 196.231 564.522 193.377 568.475 193.945 571.433 194.371 573.827 196.771 574.242 199.731 574.789 203.634 572.016 207.011 568.351 207.492 570.682 209.21 573.341 210.464 576.267 211.13 576.269 211.131 576.271 211.13 576.273 211.128 579.591 208.42 581.584 204.15 581.107 199.434Z" fill="#E6E6E6"/><path d="M756.95 522.85C748.979 508.875 737.05 497.95 729.244 499.25 723.115 505.925 719.372 514.824 719.372 524.599 719.372 530.826 720.898 536.692 723.583 541.859 726.85 546.05 731.25 549.75 735.35 552.55 740.797 556.27 742.65 557.65 748.299 561.103 751.053 561.748 753.921 562.099 756.872 562.099 761.589 562.099 766.098 561.22 770.256 559.631 770.85 551.05 764.65 536.35 756.95 522.85Z" fill="#505050"/><path d="M755.85 519.05C760.658 530.589 777.75 540.25 791.304 539.464 793.275 534.906 794.372 529.881 794.372 524.6 794.372 505.082 779.461 489.054 760.409 487.271 755.55 491.55 751.35 508.25 755.85 519.05Z" fill="#505050"/><path d="M738.122 549.5C734.076 547.086 733.567 548.264 729.122 545.75 728.459 545.374 726.218 544.068 723.613 541.884 723.597 541.87 723.591 541.874 723.6 541.893 728.575 551.444 737.536 558.58 748.282 561.099 748.291 561.102 748.295 561.096 748.291 561.088 746.232 557.237 743.779 552.875 738.122 549.5Z" fill="#737373"/><path d="M785.328 533.986C782.28 527.324 784.079 521.161 779.328 517.486 774.219 513.535 765.999 520.071 762.078 515.986 759.103 512.887 761.093 506.268 761.328 505.486 763.237 499.137 768.286 497.047 767.328 494.236 766.441 491.632 761.789 492.499 760.578 489.736 760.267 489.027 760.234 488.178 760.409 487.271 759.244 487.161 758.065 487.1 756.872 487.1 745.937 487.1 736.098 491.783 729.244 499.25 734.334 502.131 738.703 512.758 738.122 521.75 737.571 530.282 732.339 540.812 732.129 541.237 732.123 541.246 732.13 541.246 732.141 541.242 738.139 538.584 745.663 536.343 750.122 539.75 753.601 542.409 752.78 546.648 755.372 551 757.401 554.407 761.517 557.865 770.256 559.631 779.699 556.021 787.308 548.709 791.304 539.464 788.87 538.496 786.535 536.623 785.328 533.986Z" fill="#737373"/><path d="M707.32 617.407C707.32 620.1 705.138 622.282 702.445 622.282 699.753 622.282 697.57 620.1 697.57 617.407 697.57 614.715 699.753 612.532 702.445 612.532 705.138 612.532 707.32 614.715 707.32 617.407Z" fill="#FFFFFF"/><path d="M684.542 520.25C684.542 523.978 681.52 527 677.792 527 674.064 527 671.042 523.978 671.042 520.25 671.042 516.522 674.064 513.5 677.792 513.5 681.52 513.5 684.542 516.522 684.542 520.25Z" fill="#737373"/><path d="M691.292 587.782C691.292 591.51 688.27 594.532 684.542 594.532 680.814 594.532 677.792 591.51 677.792 587.782 677.792 584.054 680.814 581.032 684.542 581.032 688.27 581.032 691.292 584.054 691.292 587.782Z" fill="#FFFFFF"/><path d="M677.417 553.812C677.417 555.159 676.326 556.25 674.979 556.25 673.633 556.25 672.542 555.159 672.542 553.812 672.542 552.466 673.633 551.375 674.979 551.375 676.326 551.375 677.417 552.466 677.417 553.812Z" fill="#505050"/><path d="M678.917 536.562C678.917 537.909 677.826 539 676.479 539 675.133 539 674.042 537.909 674.042 536.562 674.042 535.216 675.133 534.125 676.479 534.125 677.826 534.125 678.917 535.216 678.917 536.562Z" fill="#FFFFFF"/><path d="M715.292 599.375C715.292 602.067 713.109 604.25 710.417 604.25 707.725 604.25 705.542 602.067 705.542 599.375 705.542 596.683 707.725 594.5 710.417 594.5 713.109 594.5 715.292 596.683 715.292 599.375Z" fill="#505050"/><path d="M659.792 526.625C659.792 529.317 657.609 531.5 654.917 531.5 652.225 531.5 650.042 529.317 650.042 526.625 650.042 523.933 652.225 521.75 654.917 521.75 657.609 521.75 659.792 523.933 659.792 526.625Z" fill="#737373"/><path d="M555.541 303.125C555.541 305.817 553.359 308 550.666 308 547.974 308 545.791 305.817 545.791 303.125 545.791 300.433 547.974 298.25 550.666 298.25 553.359 298.25 555.541 300.433 555.541 303.125Z" fill="#505050"/><path d="M564.916 351.312C564.916 352.659 563.825 353.75 562.479 353.75 561.133 353.75 560.041 352.659 560.041 351.312 560.041 349.966 561.133 348.875 562.479 348.875 563.825 348.875 564.916 349.966 564.916 351.312Z" fill="#FFFFFF"/><path d="M538.666 343.438C538.666 344.784 537.575 345.875 536.229 345.875 534.883 345.875 533.791 344.784 533.791 343.438 533.791 342.091 534.883 341 536.229 341 537.575 341 538.666 342.091 538.666 343.438Z" fill="#FFFFFF"/><path d="M616.291 366.875C616.291 369.567 614.109 371.75 611.416 371.75 608.724 371.75 606.541 369.567 606.541 366.875 606.541 364.183 608.724 362 611.416 362 614.109 362 616.291 364.183 616.291 366.875Z" fill="#FFFFFF"/><path d="M555.541 369.875C555.541 372.567 553.359 374.75 550.666 374.75 547.974 374.75 545.791 372.567 545.791 369.875 545.791 367.183 547.974 365 550.666 365 553.359 365 555.541 367.183 555.541 369.875Z" fill="#FFFFFF"/><path d="M572.791 327.875C572.791 330.567 570.609 332.75 567.916 332.75 565.224 332.75 563.041 330.567 563.041 327.875 563.041 325.183 565.224 323 567.916 323 570.609 323 572.791 325.183 572.791 327.875Z" fill="#FFFFFF"/><path d="M521.979 265.267C521.979 266.613 520.887 267.705 519.541 267.705 518.195 267.705 517.104 266.613 517.104 265.267 517.104 263.921 518.195 262.83 519.541 262.83 520.887 262.83 521.979 263.921 521.979 265.267Z" fill="#505050"/><path d="M527.416 256.062C527.416 257.409 526.325 258.5 524.979 258.5 523.633 258.5 522.541 257.409 522.541 256.062 522.541 254.716 523.633 253.625 524.979 253.625 526.325 253.625 527.416 254.716 527.416 256.062Z" fill="#F2F2F2"/><path d="M497.95 250.302C497.95 251.648 496.859 252.739 495.513 252.739 494.167 252.739 493.075 251.648 493.075 250.302 493.075 248.956 494.167 247.864 495.513 247.864 496.859 247.864 497.95 248.956 497.95 250.302Z" fill="#F2F2F2"/><path d="M461.975 200.782C461.975 202.128 460.884 203.22 459.537 203.22 458.191 203.22 457.1 202.128 457.1 200.782 457.1 199.436 458.191 198.345 459.537 198.345 460.884 198.345 461.975 199.436 461.975 200.782Z" fill="#505050"/><path d="M533.791 225.875C533.791 228.567 531.609 230.75 528.916 230.75 526.224 230.75 524.041 228.567 524.041 225.875 524.041 223.183 526.224 221 528.916 221 531.609 221 533.791 223.183 533.791 225.875Z" fill="#FFFFFF"/><path d="M505.962 288.141C505.962 290.833 503.779 293.016 501.087 293.016 498.394 293.016 496.212 290.833 496.212 288.141 496.212 285.448 498.394 283.266 501.087 283.266 503.779 283.266 505.962 285.448 505.962 288.141Z" fill="#FFFFFF"/><path d="M508.431 208.517C508.431 209.863 507.339 210.954 505.993 210.954 504.647 210.954 503.556 209.863 503.556 208.517 503.556 207.171 504.647 206.079 505.993 206.079 507.339 206.079 508.431 207.171 508.431 208.517Z" fill="#505050"/><path d="M468.889 189.717C468.889 191.064 467.798 192.155 466.452 192.155 465.106 192.155 464.014 191.064 464.014 189.717 464.014 188.371 465.106 187.28 466.452 187.28 467.798 187.28 468.889 188.371 468.889 189.717Z" fill="#FFFFFF"/><path d="M488.39 277.54C488.39 280.233 486.207 282.415 483.515 282.415 480.823 282.415 478.64 280.233 478.64 277.54 478.64 274.848 480.823 272.665 483.515 272.665 486.207 272.665 488.39 274.848 488.39 277.54Z" fill="#FFFFFF"/><path d="M562.667 599.562 568.292 599.562 545.18 660.989C549.732 661.856 554.326 662.607 558.957 663.242L582.917 599.562 582.917 584.562 569.424 588.312 562.667 588.312 562.667 599.562Z" fill="#2F2F2F"/><path d="M627.481 588.312 620.016 588.312 607.231 584.562 607.231 599.562 631.279 663.478C635.921 662.872 640.525 662.148 645.089 661.309L621.856 599.562 627.481 599.562 627.481 588.312Z" fill="#2F2F2F"/><path d="M587.979 665.645C590.643 665.722 593.317 665.766 596 665.766 598.208 665.766 600.409 665.738 602.604 665.685L602.604 599.562 587.979 599.562 587.979 665.645Z" fill="#737373"/><path d="M634.077 511.912 630.292 497.785 548.792 519.623 552.577 533.75 569.417 529.238 569.417 588.312 620.041 588.312 620.041 515.673Z" fill="#F2F2F2"/><path d="M617.454 559.25C617.454 571.676 607.38 581.75 594.954 581.75 582.527 581.75 572.454 571.676 572.454 559.25 572.454 546.824 582.527 536.75 594.954 536.75 607.38 536.75 617.454 546.824 617.454 559.25Z" fill="#D2D2D2"/><path d="M601.852 523.587C601.293 521.592 599.222 520.429 597.229 520.99L507.612 546.141 506.85 543.295 475.038 548.346C469.07 549.294 465.16 555.108 466.534 560.993 467.966 567.134 474.487 570.601 480.379 568.355L510.49 556.879 509.553 553.386 599.255 528.211C601.249 527.651 602.412 525.581 601.852 523.587Z" fill="#2F2F2F"/><path d="M594.954 548C588.741 548 583.704 553.037 583.704 559.25 583.704 562.093 584.767 564.683 586.507 566.664L593.856 559.315C594.442 558.729 595.392 558.729 595.978 559.315 596.563 559.9 596.563 560.85 595.978 561.435L588.77 568.643C590.545 569.814 592.669 570.5 594.954 570.5 601.167 570.5 606.204 565.463 606.204 559.25 606.204 553.037 601.167 548 594.954 548Z" fill="#737373"/><path d="M394.385 436.231 408.512 432.446 420.362 476.675 406.236 480.46Z" fill="#E6E6E6"/><path d="M359.159 436.548 378.427 431.377 381.927 444.415 362.658 449.586Z" fill="#2F2F2F"/><path d="M417.546 420.907 435.934 415.98 439.427 429.02 421.04 433.947Z" fill="#D2D2D2"/><path d="M375.961 426.614 428.413 412.561 434.624 435.742 382.173 449.796Z" fill="#FFFFFF"/><path d="M377.306 431.782 429.861 417.708 431.505 423.848 378.951 437.923Z" fill="#F2F2F2"/><path d="M433.903 414.195 457.117 407.976 461.776 425.362 438.562 431.582Z" fill="#2F2F2F"/><path d="M429.526 517.081 364.122 534.605 354.35 528.95 349.85 512.3 355.39 502.004 420.79 484.48Z" fill="#737373"/><path d="M839.026 415.257 765.253 435.024 753.006 387.762 826.779 367.994Z" fill="#505050"/><path d="M376.505 479.349 442.187 461.751 459.656 526.949 393.974 544.547Z" fill="#2F2F2F"/><path d="M455.304 510.658 389.587 528.267 387.573 520.725 453.284 503.12Z" fill="#505050"/><path d="M829.458 440.849 718.536 470.41 694.66 381.303 805.582 351.742Z" fill="#F2F2F2"/><path d="M702.385 418.895 817.109 388.234 827.838 428.379 713.115 459.04Z" fill="#FFFFFF"/><path d="M835.154 439.965 827.151 442.131 802.887 351.575 810.927 349.4Z"/><path d="M711.482 468.22 444.629 539.723C440.95 538.35 438.492 533.268 437.55 529.75L422.15 471.15C421.134 467.358 419.496 459.106 423.288 458.09L689.644 386.72 711.482 468.22Z" fill="#FFFFFF"/><path d="M431.116 500.331 701.001 427.991 707.39 451.828 437.506 524.168Z" fill="#F2F2F2"/><path d="M364.123 534.604 340.919 540.723 332.184 508.122 355.389 502.004Z"/><path d="M525.014 430.815 541.313 426.448 563.225 508.227 546.925 512.594Z" fill="#2F2F2F"/><path d="M589.953 413.439 606.253 409.072 628.159 490.829 611.859 495.196Z" fill="#2F2F2F"/><path d="M444.867 539.659 444.867 539.659C440.942 540.711 436.908 538.381 435.855 534.457L417.827 467.171C416.775 463.246 419.104 459.211 423.03 458.16L423.03 458.16 444.867 539.659Z"/><path d="M713.925 467.825 704.418 470.373 682.531 388.592 691.975 386.075Z" fill="#2F2F2F"/><path d="M517.571 422.308 542.02 415.757 543.554 421.484 519.105 428.035Z" fill="#737373"/><path d="M582.498 404.912 606.947 398.362 608.482 404.088 584.032 410.639Z" fill="#737373"/><path d="M688.968 382.094 696.575 380.056 720.837 470.609 713.231 472.647Z"/><path d="M704.479 392.094C703.811 392.094 703.202 391.645 703.027 390.969 702.82 390.167 703.302 389.349 704.105 389.142L797.416 365.048C798.219 364.84 799.037 365.323 799.244 366.125 799.451 366.927 798.969 367.745 798.166 367.952L704.855 392.046C704.729 392.079 704.603 392.094 704.479 392.094Z" fill="#FFFFFF"/><path d="M613.872 416.279C613.208 416.279 612.6 415.835 612.423 415.163 612.211 414.362 612.688 413.541 613.489 413.329L675.433 396.918C676.234 396.707 677.055 397.182 677.267 397.983 677.479 398.784 677.002 399.605 676.201 399.817L614.257 416.229C614.128 416.263 613.999 416.279 613.872 416.279Z" fill="#F2F2F2"/><path d="M444.829 461.574C444.165 461.574 443.558 461.13 443.38 460.458 443.168 459.657 443.645 458.836 444.446 458.623L506.39 442.213C507.191 442 508.012 442.477 508.224 443.278 508.437 444.078 507.96 444.9 507.159 445.112L445.214 461.523C445.086 461.557 444.956 461.574 444.829 461.574Z" fill="#F2F2F2"/><path d="M548.882 433.838C548.221 433.838 547.616 433.398 547.435 432.73 547.219 431.93 547.691 431.107 548.49 430.89L584.49 421.14C585.29 420.924 586.114 421.396 586.331 422.196 586.547 422.995 586.074 423.819 585.275 424.035L549.275 433.785C549.144 433.822 549.012 433.838 548.882 433.838Z" fill="#F2F2F2"/><path d="M418.014 478.661C418.014 481.353 415.832 483.536 413.139 483.536 410.447 483.536 408.264 481.353 408.264 478.661 408.264 475.969 410.447 473.786 413.139 473.786 415.832 473.786 418.014 475.969 418.014 478.661Z" fill="#737373"/></g></svg>