<svg width="238" height="238" xmlns="http://www.w3.org/2000/svg" xmlns:xlink="http://www.w3.org/1999/xlink" xml:space="preserve" overflow="hidden"><g transform="translate(-1319 0)"><path d="M1497.5 219.996 1497.5 71.2661 1491.55 31.5995C1490.79 28.2506 1488.35 25.5324 1485.1 24.4099L1441.22 13.0057C1440.08 12.5943 1438.88 12.3878 1437.67 12.3958 1436.7 12.3938 1435.73 12.5095 1434.78 12.7404L1390.9 24.3975C1387.7 25.5902 1385.29 28.2774 1384.45 31.5871L1378.5 71.2537 1378.5 71.2537 1378.5 76.2121 1378.5 76.2121 1378.5 220.004 1363.62 220.004 1363.62 224.962 1512.38 224.962 1512.38 220.004ZM1425.6 76.2046 1425.6 96.038 1400.81 96.038 1400.81 76.2046ZM1400.81 100.996 1425.6 100.996 1425.6 120.83 1400.81 120.83ZM1400.81 125.788 1425.6 125.788 1425.6 145.621 1400.81 145.621ZM1400.81 150.58 1425.6 150.58 1425.6 170.413 1400.81 170.413ZM1400.81 175.371 1425.6 175.371 1425.6 195.205 1400.81 195.205ZM1430.56 76.2046 1492.54 76.2046 1492.54 219.996 1430.56 219.996ZM1400.81 200.163 1425.6 200.163 1425.6 219.996 1400.81 219.996ZM1389.32 32.5515C1389.81 30.9945 1390.96 29.7344 1392.47 29.1104L1435.99 17.5525C1436.54 17.4191 1437.1 17.3526 1437.67 17.3542 1438.29 17.3419 1438.9 17.4359 1439.49 17.6318L1439.74 17.7236 1439.98 17.788 1483.56 29.1153C1485.09 29.6712 1486.25 30.935 1486.68 32.5044L1492.49 71.2463 1383.52 71.2463ZM1395.85 76.2046 1395.85 219.996 1383.46 219.996 1383.46 76.2046Z" fill="#F2F2F2"/></g></svg>